<svg width="1920" height="1080" viewBox="0 0 1920 1080" fill="none" xmlns="http://www.w3.org/2000/svg">
<g clip-path="url(#clip0)">
<rect width="1920" height="1080" fill="white"/>
<path d="M1921 -7H-7V1236H1921V-7Z" fill="#A14DA7"/>
<path opacity="0.2" fill-rule="evenodd" clip-rule="evenodd" d="M57.3297 320.899C50.335 323.546 43.1497 334.073 35.774 352.477C24.7105 380.084 13.6438 376.036 7.81041 406.335C23.1661 393.493 36.4153 383.337 47.5581 375.868C58.7008 368.398 61.9581 350.075 57.3297 320.899Z" fill="#6E1C74"/>
<path opacity="0.2" fill-rule="evenodd" clip-rule="evenodd" d="M-6.32178 335.453C-12.83 346.903 -13.5148 359.597 -8.37622 373.537C-0.668293 394.447 -5.72167 412.65 -9.61154 416.365C4.51403 407.334 9.1024 394.088 4.15359 376.626C-0.795223 359.164 -4.28701 345.44 -6.32178 335.453Z" fill="#6E1C74"/>
<path fill-rule="evenodd" clip-rule="evenodd" d="M81.9725 409.682C68.9964 416.599 58.1322 418.82 49.3797 416.346C36.251 412.636 25.821 409.097 15.5551 422.241C23.9727 420.786 32.0256 422.697 39.7138 427.974C51.2462 435.889 65.7604 436.295 72.659 429.706C77.2581 425.313 80.3626 418.639 81.9725 409.682Z" fill="#6E1C74"/>
<path fill-rule="evenodd" clip-rule="evenodd" d="M51.2775 354.785C53.8978 345.961 55.463 334.582 55.9563 320.626L57.1738 320.686C56.6779 334.717 55.1027 346.241 52.4316 355.236C49.7608 364.23 45.9789 370.745 41.0406 374.682C39.2842 376.082 37.5401 377.448 35.8187 378.796C23.3689 388.548 12.106 397.37 5.96159 411.483C-1.2414 428.028 -16.4683 434.487 -25.2065 437.898C-30.9283 440.132 -35.7736 444.014 -39.7492 449.561L-40.6929 448.677C-36.5796 442.938 -31.5476 438.901 -25.6037 436.581C-16.8435 433.162 -2.08872 426.845 4.8702 410.861C11.1654 396.401 22.7162 387.36 35.1369 377.638C36.8588 376.291 38.5975 374.93 40.3412 373.54C44.9964 369.828 48.657 363.61 51.2775 354.785Z" fill="#849DFF"/>
<path opacity="0.2" fill-rule="evenodd" clip-rule="evenodd" d="M-4.143 373.753C-8.50394 355.768 -9.35937 342.05 -6.5639 332.707L-5.40842 333.141C-8.07878 342.066 -7.31294 355.438 -2.96549 373.367C0.305259 386.856 1.06441 396.004 -0.757 403.073C-2.58952 410.185 -6.99679 415.058 -13.7185 420.092C-14.8099 420.909 -15.8515 421.684 -16.8481 422.425C-21.9738 426.236 -25.9118 429.164 -29.3306 432.506C-33.3907 436.475 -36.7194 441.031 -40.3683 448.35L-41.4284 447.674C-37.72 440.236 -34.3042 435.546 -30.1192 431.455C-26.6332 428.048 -22.6139 425.06 -17.4889 421.249C-16.4957 420.511 -15.461 419.742 -14.3806 418.932C-7.74257 413.961 -3.63654 409.325 -1.92852 402.697C-0.209393 396.025 -0.882467 387.2 -4.143 373.753Z" fill="#849DFF"/>
<path opacity="0.2" fill-rule="evenodd" clip-rule="evenodd" d="M64.891 426.283C59.0404 428.439 52.9785 428.208 46.7281 425.619C37.5378 421.813 32.1145 420.468 27.7044 420.622C23.531 420.767 20.2212 422.251 15.3771 424.423C15.1085 424.544 14.8352 424.666 14.5568 424.791C11.9955 425.937 9.36926 427.859 6.66245 430.115C5.31164 431.24 3.94912 432.441 2.56966 433.661C2.4664 433.752 2.36304 433.844 2.25959 433.936C0.983186 435.065 -0.307654 436.207 -1.60753 437.309C-7.19126 442.042 -13.1234 446.198 -19.2945 445.48C-26.9966 444.584 -32.7832 447.279 -36.7769 453.505L-37.7535 452.689C-33.4682 446.008 -27.2331 443.167 -19.1708 444.105C-13.5185 444.763 -7.9378 440.954 -2.32872 436.2C-1.03949 435.107 0.24165 433.974 1.52 432.842C1.62286 432.751 1.72571 432.66 1.82855 432.569C3.20713 431.35 4.58252 430.137 5.94931 428.999C8.67772 426.726 11.4055 424.717 14.1159 423.504C14.4162 423.37 14.7114 423.237 15.0019 423.107C19.781 420.963 23.2785 419.393 27.6685 419.24C32.32 419.078 37.9243 420.503 47.1418 424.32C53.1632 426.814 58.9483 427.021 64.52 424.968C70.101 422.912 75.5135 418.571 80.7505 411.884L81.6527 412.804C76.3171 419.617 70.7322 424.131 64.891 426.283Z" fill="#849DFF"/>
<g opacity="0.2">
<path fill-rule="evenodd" clip-rule="evenodd" d="M1525.73 18.5256L1501.55 -13.4473L1516.69 -28.3787C1524.63 -36.2022 1536.48 -35.3871 1543.16 -26.558C1549.83 -17.7289 1548.81 -4.22934 1540.87 3.59418L1525.73 18.5256Z" fill="white"/>
<path fill-rule="evenodd" clip-rule="evenodd" d="M1418.99 134.193C1425.95 131.421 1432.99 120.769 1440.11 102.235C1450.8 74.4352 1461.92 78.2868 1467.34 47.8879C1452.16 61.0012 1439.05 71.3909 1428.01 79.0569C1416.97 86.723 1413.97 105.102 1418.99 134.193Z" fill="#6E1C74"/>
<path fill-rule="evenodd" clip-rule="evenodd" d="M1482.44 118.51C1488.79 106.946 1489.3 94.241 1483.97 80.3943C1475.98 59.6241 1480.79 41.3331 1484.62 37.5493C1470.62 46.8302 1466.22 60.1565 1471.4 77.5281C1476.59 94.8998 1480.27 108.56 1482.44 118.51Z" fill="#6E1C74"/>
<path fill-rule="evenodd" clip-rule="evenodd" d="M1393.14 45.8576C1406.02 38.7114 1416.86 36.2974 1425.64 38.6157C1438.82 42.093 1449.3 45.4462 1459.38 32.1212C1450.98 33.7253 1442.91 31.9576 1435.15 26.8181C1423.51 19.1088 1408.99 18.9604 1402.18 25.6711C1397.64 30.1448 1394.63 36.8737 1393.14 45.8576Z" fill="#6E1C74"/>
<path fill-rule="evenodd" clip-rule="evenodd" d="M1424.58 100.203C1422.08 109.072 1420.67 120.478 1420.37 134.441L1419.15 134.403C1419.45 120.364 1420.87 108.814 1423.42 99.7728C1425.97 90.7327 1429.66 84.1514 1434.55 80.127C1436.28 78.6957 1438.01 77.2988 1439.71 75.9201C1452.03 65.9486 1463.17 56.9278 1469.12 42.7072C1476.1 26.0367 1491.23 19.3077 1499.92 15.7422C1505.61 13.4075 1510.41 9.43943 1514.31 3.82273L1515.26 4.68958C1511.23 10.5009 1506.25 14.6269 1500.34 17.0522C1491.63 20.6267 1476.96 27.2049 1470.22 43.3106C1464.12 57.88 1452.7 67.1249 1440.41 77.0659C1438.71 78.4441 1436.99 79.8357 1435.26 81.2566C1430.66 85.0503 1427.08 91.333 1424.58 100.203Z" fill="#849DFF"/>
<path fill-rule="evenodd" clip-rule="evenodd" d="M1479.74 80.2536C1484.34 98.159 1485.38 111.86 1482.72 121.251L1481.55 120.838C1484.1 111.867 1483.16 98.5103 1478.56 80.6603C1475.11 67.2311 1474.23 58.0976 1475.95 50.9973C1477.69 43.8538 1482.03 38.9035 1488.68 33.7504C1489.76 32.9137 1490.79 32.1208 1491.78 31.3621C1496.85 27.4602 1500.75 24.4625 1504.12 21.0605C1508.13 17.0202 1511.39 12.4053 1514.94 5.023L1516.01 5.6797C1512.4 13.1824 1509.05 17.9328 1504.92 22.0973C1501.48 25.5662 1497.51 28.6254 1492.43 32.5262C1491.45 33.2822 1490.43 34.0698 1489.36 34.898C1482.79 39.9869 1478.75 44.6947 1477.13 51.3529C1475.5 58.0545 1476.29 66.8663 1479.74 80.2536Z" fill="#849DFF"/>
<path fill-rule="evenodd" clip-rule="evenodd" d="M1410 28.9552C1415.82 26.6958 1421.88 26.8187 1428.17 29.2963C1437.41 32.9392 1442.85 34.1879 1447.25 33.956C1451.43 33.7365 1454.71 32.1938 1459.53 29.936C1459.8 29.8108 1460.07 29.6834 1460.34 29.5539C1462.89 28.3627 1465.49 26.3934 1468.16 24.0906C1469.5 22.9414 1470.85 21.7166 1472.21 20.4718C1472.31 20.3786 1472.41 20.2853 1472.52 20.1919C1473.78 19.0399 1475.05 17.8747 1476.34 16.75C1481.85 11.9185 1487.73 7.65789 1493.91 8.2663C1501.62 9.02566 1507.37 6.22833 1511.28 -0.0678187L1512.27 0.73051C1508.07 7.48637 1501.88 10.4379 1493.8 9.64306C1488.14 9.0858 1482.62 12.9928 1477.07 17.8462C1475.8 18.9618 1474.53 20.1181 1473.27 21.272C1473.17 21.3648 1473.07 21.4576 1472.96 21.5504C1471.6 22.7944 1470.24 24.031 1468.89 25.1938C1466.2 27.515 1463.5 29.572 1460.8 30.8324C1460.5 30.9721 1460.21 31.1098 1459.92 31.2452C1455.17 33.4742 1451.7 35.1055 1447.31 35.3364C1442.66 35.581 1437.04 34.2562 1427.77 30.6025C1421.71 28.2157 1415.93 28.1118 1410.38 30.2634C1404.83 32.4186 1399.48 36.855 1394.33 43.6343L1393.42 42.7299C1398.66 35.823 1404.18 31.2108 1410 28.9552Z" fill="#849DFF"/>
</g>
<path d="M184.395 106.873C75.4627 106.873 -1.50643 217.684 -52.3138 137.855C-180.457 -63.4849 315.73 -262.31 341.607 -7.62469C352.879 103.314 293.327 106.873 184.395 106.873Z" fill="url(#paint0_linear)" fill-opacity="0.3"/>
<path d="M184.395 106.873C75.4627 106.873 -1.50643 217.684 -52.3138 137.855C-180.457 -63.4849 315.73 -262.31 341.607 -7.62463C352.879 103.314 293.327 106.873 184.395 106.873Z" fill="url(#paint1_linear)" fill-opacity="0.3"/>
<path d="M1407.39 1119.98C1298.46 1119.98 1221.49 1244.74 1170.69 1154.86C1042.54 928.165 1538.73 704.303 1564.61 991.06C1575.88 1115.97 1516.33 1119.98 1407.39 1119.98Z" fill="url(#paint2_linear)" fill-opacity="0.3"/>
<path d="M1407.39 1119.98C1298.46 1119.98 1221.49 1244.74 1170.69 1154.86C1042.54 928.165 1538.73 704.303 1564.61 991.06C1575.88 1115.97 1516.33 1119.98 1407.39 1119.98Z" fill="url(#paint3_linear)" fill-opacity="0.3"/>
<path d="M196.395 1090.87C87.4627 1090.87 10.4936 1201.68 -40.3138 1121.85C-168.457 920.515 327.73 721.69 353.607 976.375C364.879 1087.31 305.327 1090.87 196.395 1090.87Z" fill="url(#paint4_linear)" fill-opacity="0.3"/>
<path d="M196.395 1090.87C87.4627 1090.87 10.4936 1201.68 -40.3138 1121.85C-168.457 920.515 327.73 721.69 353.607 976.375C364.879 1087.31 305.327 1090.87 196.395 1090.87Z" fill="url(#paint5_linear)" fill-opacity="0.3"/>
<g opacity="0.7">
<path d="M123.146 1058C204.55 1058 270.542 992.208 270.542 911.049C270.542 829.89 204.55 764.097 123.146 764.097C41.7414 764.097 -24.25 829.89 -24.25 911.049C-24.25 992.208 41.7414 1058 123.146 1058Z" fill="white"/>
<path d="M123.146 1058C204.55 1058 270.542 992.208 270.542 911.049C270.542 829.89 204.55 764.097 123.146 764.097C41.7414 764.097 -24.25 829.89 -24.25 911.049C-24.25 992.208 41.7414 1058 123.146 1058Z" fill="#E7EEFF"/>
<path d="M207.329 766.301C139.699 716.424 -22.9394 728.653 -40.6983 815.092C-58.4572 901.531 31.6116 908.078 55.9453 977.753C80.279 1047.43 164.85 1077.29 241.317 1017.86C317.785 958.432 274.959 816.179 207.329 766.301Z" fill="white"/>
<path d="M207.329 766.301C139.699 716.424 -22.9394 728.653 -40.6983 815.092C-58.4572 901.531 31.6116 908.078 55.9453 977.753C80.279 1047.43 164.85 1077.29 241.317 1017.86C317.785 958.432 274.959 816.179 207.329 766.301Z" fill="#F4F7FF"/>
<path fill-rule="evenodd" clip-rule="evenodd" d="M70.8889 746.38H197.278C199.771 746.377 201.792 748.401 201.792 750.897C201.792 750.898 201.792 750.899 201.789 750.9L201.664 949.259C201.659 951.754 199.639 953.776 197.147 953.779H70.8889C68.3959 953.779 66.375 951.756 66.375 949.259V750.9C66.375 748.404 68.3959 746.38 70.8889 746.38Z" fill="#6E1C74"/>
<path fill-rule="evenodd" clip-rule="evenodd" d="M77.729 756.802H191.479C193.723 756.799 195.542 758.611 195.542 760.847C195.542 760.847 195.542 760.848 195.539 760.849L195.426 938.268C195.422 940.502 193.604 942.312 191.361 942.315H77.729C75.4853 942.315 73.6665 940.503 73.6665 938.268V760.849C73.6665 758.614 75.4853 756.802 77.729 756.802Z" fill="#B1C1FF"/>
<path fill-rule="evenodd" clip-rule="evenodd" d="M164.292 808.912H179.917V824.545H164.292V808.912ZM165.187 809.807V823.651H179.021V809.807H165.187Z" fill="#E7EEFF"/>
<path fill-rule="evenodd" clip-rule="evenodd" d="M177.833 813.668L171.576 821.419L167.417 818.491L168.782 816.392L171.123 818.04L175.967 812.039L177.833 813.668Z" fill="white"/>
<path fill-rule="evenodd" clip-rule="evenodd" d="M177.833 847.019L171.576 854.77L167.417 851.841L168.782 849.743L171.123 851.39L175.967 845.39L177.833 847.019Z" fill="white"/>
<path fill-rule="evenodd" clip-rule="evenodd" d="M177.833 880.37L171.576 888.12L167.417 885.192L168.782 883.093L171.123 884.741L175.967 878.74L177.833 880.37Z" fill="white"/>
<path fill-rule="evenodd" clip-rule="evenodd" d="M177.833 912.678L171.576 920.429L167.417 917.5L168.782 915.402L171.123 917.05L175.967 911.049L177.833 912.678Z" fill="white"/>
<path fill-rule="evenodd" clip-rule="evenodd" d="M164.292 842.263H179.917V857.896H164.292V842.263ZM165.187 843.157V857.002H179.021V843.157H165.187Z" fill="#E7EEFF"/>
<path fill-rule="evenodd" clip-rule="evenodd" d="M164.292 874.571H179.917V891.247H164.292V874.571ZM165.187 875.525V890.293H179.021V875.525H165.187Z" fill="#E7EEFF"/>
<path fill-rule="evenodd" clip-rule="evenodd" d="M164.292 907.922H179.917V923.555H164.292V907.922ZM165.187 908.816V922.661H179.021V908.816H165.187Z" fill="#E7EEFF"/>
<path fill-rule="evenodd" clip-rule="evenodd" d="M148.666 777.646H86.1665V776.604H148.666V777.646Z" fill="#E7EEFF"/>
<path fill-rule="evenodd" clip-rule="evenodd" d="M148.666 784.941H86.1665V783.899H148.666V784.941Z" fill="#E7EEFF"/>
<path fill-rule="evenodd" clip-rule="evenodd" d="M148.666 792.237H86.1665V791.195H148.666V792.237Z" fill="#E7EEFF"/>
<path fill-rule="evenodd" clip-rule="evenodd" d="M148.666 809.955H86.1665V808.912H148.666V809.955Z" fill="#E7EEFF"/>
<path fill-rule="evenodd" clip-rule="evenodd" d="M148.666 817.25H86.1665V816.208H148.666V817.25Z" fill="#E7EEFF"/>
<path fill-rule="evenodd" clip-rule="evenodd" d="M148.666 824.546H86.1665V823.503H148.666V824.546Z" fill="#E7EEFF"/>
<path fill-rule="evenodd" clip-rule="evenodd" d="M148.666 843.305H86.1665V842.263H148.666V843.305Z" fill="#E7EEFF"/>
<path fill-rule="evenodd" clip-rule="evenodd" d="M148.666 850.601H86.1665V849.558H148.666V850.601Z" fill="#E7EEFF"/>
<path fill-rule="evenodd" clip-rule="evenodd" d="M148.666 857.896H86.1665V856.854H148.666V857.896Z" fill="#E7EEFF"/>
<path fill-rule="evenodd" clip-rule="evenodd" d="M148.666 891.247H86.1665V890.205H148.666V891.247Z" fill="#E7EEFF"/>
<path fill-rule="evenodd" clip-rule="evenodd" d="M148.666 908.964H86.1665V907.922H148.666V908.964Z" fill="#E7EEFF"/>
<path fill-rule="evenodd" clip-rule="evenodd" d="M148.666 916.26H86.1665V915.218H148.666V916.26Z" fill="#E7EEFF"/>
<path fill-rule="evenodd" clip-rule="evenodd" d="M148.666 923.555H86.1665V922.513H148.666V923.555Z" fill="#E7EEFF"/>
<g filter="url(#filter0_d)">
<path d="M172.104 798.49C179.87 798.49 186.166 792.191 186.166 784.421C186.166 776.65 179.87 770.351 172.104 770.351C164.337 770.351 158.042 776.65 158.042 784.421C158.042 792.191 164.337 798.49 172.104 798.49Z" fill="black"/>
</g>
<path d="M172.104 798.49C179.87 798.49 186.166 792.191 186.166 784.421C186.166 776.65 179.87 770.351 172.104 770.351C164.337 770.351 158.042 776.65 158.042 784.421C158.042 792.191 164.337 798.49 172.104 798.49Z" fill="white"/>
<path d="M172.104 793.279C176.994 793.279 180.958 789.313 180.958 784.42C180.958 779.528 176.994 775.562 172.104 775.562C167.214 775.562 163.25 779.528 163.25 784.42C163.25 789.313 167.214 793.279 172.104 793.279Z" fill="#13BB84"/>
<path fill-rule="evenodd" clip-rule="evenodd" d="M177.833 781.36L171.576 789.11L167.417 786.182L168.782 784.084L171.123 785.731L175.967 779.73L177.833 781.36Z" fill="white"/>
<path fill-rule="evenodd" clip-rule="evenodd" d="M4.9165 1032.99H28.8748V1045.82C28.8748 1052.55 23.5116 1058 16.8957 1058C10.2798 1058 4.9165 1052.55 4.9165 1045.82V1032.99Z" fill="white"/>
<path fill-rule="evenodd" clip-rule="evenodd" d="M4.9165 1031.94H28.8748V1045.31C28.8748 1052.32 23.5116 1058 16.8957 1058C10.2798 1058 4.9165 1052.32 4.9165 1045.31V1031.94ZM5.54699 1032.61V1045.31C5.54699 1051.95 10.628 1057.33 16.8957 1057.33C23.1634 1057.33 28.2444 1051.95 28.2444 1045.31V1032.61H5.54699Z" fill="#849DFF"/>
<path d="M16.8957 1032.99C23.5116 1032.99 28.8748 1032.75 28.8748 1032.47C28.8748 1032.18 23.5116 1031.94 16.8957 1031.94C10.2798 1031.94 4.9165 1032.18 4.9165 1032.47C4.9165 1032.75 10.2798 1032.99 16.8957 1032.99Z" fill="#849DFF"/>
<path fill-rule="evenodd" clip-rule="evenodd" d="M0.401738 938.146C-1.36223 942.548 0.240136 949.887 5.20883 960.165C12.6619 975.581 6.26802 979.571 17.0834 993.383C17.8812 981.182 18.9741 970.989 20.3621 962.804C21.7501 954.618 15.0967 946.399 0.401738 938.146Z" fill="#6E1C74"/>
<path fill-rule="evenodd" clip-rule="evenodd" d="M-20.0835 974.623C-17.8031 982.067 -12.5566 987.056 -4.34401 989.593C7.97482 993.397 13.8036 1002.59 13.8036 1005.89C15.747 995.526 11.8847 988.384 2.21651 984.464C-7.45167 980.543 -14.885 977.263 -20.0835 974.623Z" fill="#6E1C74"/>
<path fill-rule="evenodd" clip-rule="evenodd" d="M49.0539 957.948C46.6812 966.901 43.1482 973.099 38.455 976.542C31.4151 981.707 25.5664 985.595 27.013 995.467C29.8657 990.762 34.0256 987.461 39.4927 985.565C47.6934 982.721 53.8748 975.668 53.8748 969.849C53.8748 965.97 52.2679 962.003 49.0539 957.948Z" fill="#6E1C74"/>
<path fill-rule="evenodd" clip-rule="evenodd" d="M12.6948 953.429C9.9301 948.933 5.60678 944.032 -0.291504 938.727L0.243538 938.146C6.17347 943.48 10.5557 948.438 13.374 953.021C16.192 957.604 17.4617 961.838 17.1208 965.71C16.9995 967.086 16.8684 968.445 16.7391 969.786C15.8034 979.482 14.9569 988.255 18.563 996.413C22.7903 1005.98 19.2545 1015.85 17.0959 1021.42C15.6825 1025.06 15.3566 1028.86 16.1218 1032.84L15.341 1032.99C14.5492 1028.87 14.8856 1024.92 16.3539 1021.13C18.5178 1015.56 21.9187 1005.97 17.8346 996.727C14.1401 988.369 15.0111 979.375 15.9477 969.703C16.0775 968.362 16.2086 967.008 16.329 965.641C16.6504 961.992 15.4597 957.926 12.6948 953.429Z" fill="#849DFF"/>
<path fill-rule="evenodd" clip-rule="evenodd" d="M-2.16091 987.693C-11.849 983.326 -18.2066 978.771 -21.125 973.996L-20.4524 973.581C-17.6646 978.142 -11.4959 982.616 -1.83777 986.97C5.42843 990.246 9.7468 993.19 12.0777 996.657C14.4227 1000.15 14.7128 1004.1 14.1068 1009.25C14.0084 1010.09 13.912 1010.89 13.8198 1011.65C13.3456 1015.57 12.9813 1018.58 13.0147 1021.49C13.0544 1024.94 13.6567 1028.24 15.3333 1032.71L14.595 1032.99C12.891 1028.45 12.2665 1025.06 12.2256 1021.5C12.1915 1018.54 12.5635 1015.46 13.0379 1011.54C13.1299 1010.78 13.2256 1009.99 13.323 1009.16C13.9216 1004.07 13.6094 1000.35 11.4236 997.101C9.22363 993.828 5.08259 990.959 -2.16091 987.693Z" fill="#849DFF"/>
<path fill-rule="evenodd" clip-rule="evenodd" d="M49.2573 972.252C47.7502 975.952 45.1067 978.885 41.3486 981.053C35.8229 984.239 32.9578 986.448 31.1757 988.7C29.4892 990.831 28.7528 993.02 27.6751 996.224C27.6153 996.402 27.5545 996.583 27.4924 996.767C26.9213 998.46 26.6643 1000.47 26.5193 1002.64C26.4469 1003.72 26.4028 1004.84 26.3601 1005.97C26.3569 1006.06 26.3538 1006.14 26.3506 1006.22C26.3113 1007.27 26.2715 1008.33 26.2101 1009.38C25.9466 1013.89 25.2836 1018.36 22.3802 1021.17C18.7565 1024.67 17.513 1028.54 18.5719 1032.8L17.8042 1032.99C16.6679 1028.42 18.0353 1024.28 21.8284 1020.6C24.4877 1018.03 25.1559 1013.86 25.4206 1009.34C25.4815 1008.29 25.521 1007.24 25.5603 1006.19C25.5635 1006.11 25.5667 1006.03 25.5699 1005.94C25.6125 1004.81 25.657 1003.68 25.7302 1002.59C25.8764 1000.4 26.1383 998.308 26.7426 996.517C26.8096 996.318 26.8752 996.123 26.9398 995.931C28.0025 992.769 28.7802 990.455 30.5541 988.214C32.4338 985.839 35.4096 983.569 40.9517 980.373C44.5721 978.285 47.0891 975.48 48.5243 971.957C49.962 968.429 50.3258 964.15 49.5859 959.104L50.3684 958.99C51.1223 964.132 50.762 968.559 49.2573 972.252Z" fill="#849DFF"/>
<path fill-rule="evenodd" clip-rule="evenodd" d="M117.814 841.121C118.404 838.463 118.6 836.768 118.404 836.035C118.109 834.937 116.83 833.042 117.814 828.259C117.814 827.34 117.682 826.518 117.417 825.792C118.333 825.615 118.998 825.773 119.41 826.267C120.406 821.787 120.857 818.562 120.763 816.592C120.622 813.636 121.71 813.977 122.214 814.4C122.717 814.824 123.133 818.168 122.787 821.465C123.615 820.856 124.462 820.963 125.328 821.786C126.197 821.628 126.883 822.032 127.386 822.998C128.026 822.968 128.472 823.388 128.724 824.257C129.102 825.561 128.724 828.799 128.098 830.555C127.471 832.311 125.825 835.553 125.328 836.774C124.997 837.588 124.782 839.765 124.682 843.305L117.814 841.121Z" fill="#FFAE9C"/>
<path fill-rule="evenodd" clip-rule="evenodd" d="M85.2781 967.814V952.497L67.6024 951.695L69.369 969.929C67.373 974.042 66.375 978.341 66.375 982.825C66.375 984.868 67.2464 991.763 67.6024 998.521C68.4184 1014.01 69.0581 1035.16 68.3456 1041.07C66.4638 1044.11 66.5319 1046.53 68.55 1048.33C69.7249 1049.38 74.646 1051.91 83.3132 1055.92L87.2083 1052.86C83.0821 1050.44 80.5325 1048.18 79.5597 1046.08C76.8462 1040.22 77.6036 1031.89 77.9119 1028.9C80.1903 1006.78 82.6457 986.414 85.2781 967.814Z" fill="#FFAE9C"/>
<path fill-rule="evenodd" clip-rule="evenodd" d="M67.5346 1042.37C66.5038 1045.76 66.1603 1048.69 66.5038 1051.16C66.8474 1053.64 66.9978 1055.92 66.9548 1058H69.8402V1051.16C72.5129 1055.33 74.4285 1057.61 75.587 1058C86.7475 1058 92.3278 1058 92.3278 1058C92.3278 1058 93.2973 1055.54 88.8314 1053.51C85.8541 1052.16 83.9295 1051.11 83.0576 1050.37C84.0149 1051.43 83.5107 1051.96 81.5449 1051.96C78.5962 1051.96 74.9557 1050.32 73.4857 1047.27C72.5057 1045.23 70.522 1043.59 67.5346 1042.37Z" fill="black"/>
<path fill-rule="evenodd" clip-rule="evenodd" d="M65.4866 967.131V951.695H47.8109L49.5775 969.262C47.5815 973.407 46.5835 977.739 46.5835 982.258C46.5835 984.317 47.4549 991.266 47.8109 998.075C48.6268 1013.68 49.2666 1035 48.5541 1040.96C46.6723 1044.02 46.7404 1046.46 48.7585 1048.28C49.9334 1049.33 54.8545 1051.88 63.5217 1055.92L67.4168 1052.84C63.2906 1050.4 60.741 1048.12 59.7682 1046C57.0547 1040.1 57.8121 1031.71 58.1204 1028.69C60.3988 1006.4 62.8542 985.875 65.4866 967.131Z" fill="#FFAE9C"/>
<path fill-rule="evenodd" clip-rule="evenodd" d="M47.7366 1042.37C46.7116 1045.76 46.37 1048.69 46.7116 1051.16C47.0533 1053.64 47.2027 1055.92 47.16 1058H50.0291V1051.16C52.6866 1055.33 54.5914 1057.61 55.7433 1058C66.8407 1058 72.3893 1058 72.3893 1058C72.3893 1058 73.9771 1055.86 68.9127 1053.51C65.5364 1051.95 63.576 1050.84 63.0313 1050.18C64.1094 1051.89 63.6711 1052.74 61.7164 1052.74C58.7844 1052.74 55.6352 1051.4 53.654 1047.27C52.3331 1044.51 50.3607 1042.87 47.7366 1042.37Z" fill="black"/>
<path fill-rule="evenodd" clip-rule="evenodd" d="M48.8795 905.834C44.829 910.997 43.5882 917.723 45.157 926.013C46.7258 934.303 47.271 947.379 46.7925 965.243H86.756C89.6439 954.173 90.7833 944.08 90.1742 934.965C89.0402 917.995 85.028 906.425 85.028 900.627H52.2227L48.8795 905.834Z" fill="#004DE6"/>
<path fill-rule="evenodd" clip-rule="evenodd" d="M74.399 820.093C74.0083 816.001 71.8737 812.714 67.9953 810.234C62.1776 806.513 46.9433 813.293 48.2762 824.963C49.1649 832.742 54.9598 837.427 65.6612 839.018L74.399 820.093Z" fill="#7D1C1C"/>
<path fill-rule="evenodd" clip-rule="evenodd" d="M42.5358 830.42C42.035 829.924 41.4569 828.878 40.8128 827.229L40.2996 827.429C40.9444 829.081 41.5569 830.226 42.1482 830.811C43.3546 832.006 44.7585 832.612 46.187 832.593C47.5061 832.575 48.8159 832.024 49.9815 830.964C51.9546 835.146 55.5507 837.665 60.7214 838.528L60.8121 837.984C55.6513 837.122 52.1727 834.587 50.3235 830.385L50.1611 830.016L49.8763 830.302C48.7235 831.458 47.4382 832.024 46.1795 832.041C44.9216 832.058 43.6547 831.527 42.5358 830.42Z" fill="#7D1C1C"/>
<path fill-rule="evenodd" clip-rule="evenodd" d="M49.8818 818.103C47.708 816.443 45.2567 816.465 42.5279 818.169C38.4348 820.725 39.4381 829.806 43.6572 831.384C46.47 832.436 48.7236 832.02 50.4181 830.136L49.8818 818.103Z" fill="#7D1C1C"/>
<path d="M60.6618 831.184C60.1048 830.89 58.1802 828.581 59.4045 827.271C60.2207 826.397 61.1445 826.537 62.1758 827.689C68.8442 824.702 72.1326 820.855 72.0412 816.149C73.4717 816.862 74.6258 819.636 75.5034 824.472C77.6794 826.635 78.762 827.838 78.7509 828.08C78.7399 828.323 78.1554 828.849 76.9973 829.66C77.0593 831.46 77.1303 832.688 77.2105 833.346C77.5239 835.916 76.6563 837.024 75.6321 837.621C74.2591 838.42 72.4722 838.692 70.2715 838.437L71.3775 845.697L59.4045 845.697L60.6618 831.184Z" fill="white"/>
<path d="M60.6618 831.184C60.1048 830.89 58.1802 828.581 59.4045 827.271C60.2207 826.397 61.1445 826.537 62.1758 827.689C68.8442 824.702 72.1326 820.855 72.0412 816.149C73.4717 816.862 74.6258 819.636 75.5034 824.472C77.6794 826.635 78.762 827.838 78.7509 828.08C78.7399 828.323 78.1554 828.849 76.9973 829.66C77.0593 831.46 77.1303 832.688 77.2105 833.346C77.5239 835.916 76.6563 837.024 75.6321 837.621C74.2591 838.42 72.4722 838.692 70.2715 838.437L71.3775 845.697L59.4045 845.697L60.6618 831.184Z" fill="#FFAE9C"/>
<path fill-rule="evenodd" clip-rule="evenodd" d="M70.2711 838.437L66.9229 837.2C67.3021 840.488 68.8205 843.296 71.4782 845.622L70.2711 838.437Z" fill="#F99B86"/>
<path d="M73.4158 824.778C73.128 825.037 72.6837 825.013 72.4234 824.724C72.163 824.434 72.1853 823.99 72.4731 823.73C72.7609 823.471 73.2052 823.495 73.4655 823.785C73.7259 824.074 73.7036 824.519 73.4158 824.778Z" fill="black"/>
<path fill-rule="evenodd" clip-rule="evenodd" d="M77.1096 831.86L74.3426 832.01C75.2028 833.084 76.1644 833.551 77.2273 833.41L77.1096 831.86Z" fill="white"/>
<path fill-rule="evenodd" clip-rule="evenodd" d="M70.9407 823.557C71.5811 822.724 72.4451 822.198 73.5486 821.979L73.4413 821.438C72.2154 821.682 71.231 822.276 70.504 823.22L70.9407 823.557Z" fill="black"/>
<path fill-rule="evenodd" clip-rule="evenodd" d="M50.3162 830.37C48.4082 826.695 48.2638 822.561 49.9149 817.944L49.3961 817.759C47.7031 822.493 47.8361 826.789 49.8272 830.624L50.3162 830.37Z" fill="white"/>
<path fill-rule="evenodd" clip-rule="evenodd" d="M70.6274 822.956C72.3322 820.99 72.8928 818.691 72.3097 816.089L71.772 816.209C72.3181 818.647 71.7976 820.765 70.2112 822.594C68.6124 824.437 65.9156 826.003 62.0807 827.27L62.2535 827.793C66.1303 826.512 68.9349 824.907 70.6274 822.956Z" fill="#7D1C1C"/>
<path d="M115.824 841.221L126.792 843.1C125.24 865.202 122.464 876.253 118.465 876.253C114.466 876.253 104.49 874.203 88.5379 870.103C90.9971 873.867 90.2643 878.306 86.3394 883.421C84.1614 885.833 84.8699 894.673 88.4649 909.94L55.7084 910.007V902.543L51.2236 910.007L45.6775 909.94C37.7672 899.18 34.3041 892.07 35.2884 888.61C36.7648 883.421 49.3361 853.937 52.125 850.379C53.9843 848.007 56.2152 846.541 58.8178 845.983C66.1751 845.588 70.5247 845.588 71.8666 845.983C73.2086 846.379 74.7521 847.04 76.4973 847.966C81.5912 847.716 90.1914 850.816 102.298 857.265L111.458 861.545L115.824 841.221ZM48.624 890.186L50.585 896.483C51.8849 892.226 52.601 889.078 52.7332 887.04C52.8655 885.002 52.6483 882.972 52.0817 880.951L48.624 890.186Z" fill="white"/>
<path d="M115.824 841.221L126.792 843.1C125.24 865.202 122.464 876.253 118.465 876.253C114.466 876.253 104.49 874.203 88.5379 870.103C90.9971 873.867 90.2643 878.306 86.3394 883.421C84.1614 885.833 84.8699 894.673 88.4649 909.94L55.7084 910.007V902.543L51.2236 910.007L45.6775 909.94C37.7672 899.18 34.3041 892.07 35.2884 888.61C36.7648 883.421 49.3361 853.937 52.125 850.379C53.9843 848.007 56.2152 846.541 58.8178 845.983C66.1751 845.588 70.5247 845.588 71.8666 845.983C73.2086 846.379 74.7521 847.04 76.4973 847.966C81.5912 847.716 90.1914 850.816 102.298 857.265L111.458 861.545L115.824 841.221ZM48.624 890.186L50.585 896.483C51.8849 892.226 52.601 889.078 52.7332 887.04C52.8655 885.002 52.6483 882.972 52.0817 880.951L48.624 890.186Z" fill="white"/>
<path fill-rule="evenodd" clip-rule="evenodd" d="M59.0832 846.032C51.3271 847.896 48.1561 854.916 49.5702 867.091C51.6915 885.352 55.0621 883.254 50.8625 896.37C48.0627 905.115 46.0221 910.355 44.7405 912.091L33.0415 891.194L34.9583 887.018L47.8724 854.419L55.7458 844.347L59.0832 846.032Z" fill="#D6DFF3"/>
<path fill-rule="evenodd" clip-rule="evenodd" d="M76.7915 847.069L54.9165 847.474L60.4181 844.347L71.4949 845.016L76.7915 847.069Z" fill="#D6DFF3"/>
<path fill-rule="evenodd" clip-rule="evenodd" d="M111.167 859.095L110.213 866.234L102.833 856.854L111.167 859.095Z" fill="#D6DFF3"/>
<path fill-rule="evenodd" clip-rule="evenodd" d="M89.4267 870.284L82 868.318C86.9511 871.497 89.4267 874.276 89.4267 876.656C90.1571 875.371 90.4462 874.262 90.2939 873.327C90.1417 872.392 89.8526 871.378 89.4267 870.284Z" fill="#D6DFF3"/>
</g>
<path d="M1680.99 897.244C1645.65 955.464 1664.02 1031.2 1722.02 1066.41C1780.02 1101.62 1855.69 1082.97 1891.03 1024.75C1926.37 966.528 1908.01 890.79 1850 855.58C1792 820.371 1716.33 839.025 1680.99 897.244Z" fill="white"/>
<path d="M1680.99 897.244C1645.65 955.464 1664.02 1031.2 1722.02 1066.41C1780.02 1101.62 1855.69 1082.97 1891.03 1024.75C1926.37 966.528 1908.01 890.79 1850 855.58C1792 820.371 1716.33 839.025 1680.99 897.244Z" fill="#E7EEFF"/>
<path d="M1852.85 1084.06C1917.87 1057.31 1979.77 935.628 1925.71 885.418C1871.64 835.208 1827.84 896.814 1767.47 883.997C1707.1 871.179 1649.03 918.735 1658.29 999.234C1667.55 1079.73 1787.82 1110.81 1852.85 1084.06Z" fill="white"/>
<path d="M1852.85 1084.06C1917.87 1057.31 1979.77 935.628 1925.71 885.418C1871.64 835.208 1827.84 896.814 1767.47 883.997C1707.1 871.179 1649.03 918.735 1658.29 999.234C1667.55 1079.73 1787.82 1110.81 1852.85 1084.06Z" fill="#F4F7FF"/>
<path fill-rule="evenodd" clip-rule="evenodd" d="M1672.02 864.466C1672.02 861.265 1674.61 858.671 1677.8 858.671H1738.4C1741.59 858.671 1744.18 861.265 1744.18 864.466V902.486C1744.18 905.686 1741.59 908.281 1738.4 908.281H1677.8C1674.61 908.281 1672.02 905.686 1672.02 902.486V864.466ZM1677.8 859.134C1674.87 859.134 1672.49 861.522 1672.49 864.466V902.486C1672.49 905.43 1674.87 907.817 1677.8 907.817H1738.4C1741.34 907.817 1743.72 905.43 1743.72 902.486V864.466C1743.72 861.522 1741.34 859.134 1738.4 859.134H1677.8Z" fill="#062721"/>
<path fill-rule="evenodd" clip-rule="evenodd" d="M1708.55 899.261C1717.27 899.261 1724.34 892.194 1724.34 883.476C1724.34 874.758 1717.27 867.691 1708.55 867.691C1699.84 867.691 1692.77 874.758 1692.77 883.476C1692.77 892.194 1699.84 899.261 1708.55 899.261Z" fill="#3AABCC"/>
<path fill-rule="evenodd" clip-rule="evenodd" d="M1694.57 858.671C1694.57 851.696 1700.23 846.043 1707.2 846.043C1714.18 846.043 1719.83 851.696 1719.83 858.671H1715.24C1715.24 854.233 1711.64 850.635 1707.2 850.635C1702.76 850.635 1699.16 854.233 1699.16 858.671H1694.57Z" fill="#062721"/>
<g filter="url(#filter1_d)">
<path fill-rule="evenodd" clip-rule="evenodd" d="M1677.43 928.125C1681.42 928.125 1684.65 924.895 1684.65 920.909C1684.65 916.924 1681.42 913.693 1677.43 913.693C1673.45 913.693 1670.22 916.924 1670.22 920.909C1670.22 924.895 1673.45 928.125 1677.43 928.125Z" fill="#F1E59D"/>
<path fill-rule="evenodd" clip-rule="evenodd" d="M1676.98 927.223C1680.72 927.223 1683.75 924.194 1683.75 920.458C1683.75 916.722 1680.72 913.693 1676.98 913.693C1673.25 913.693 1670.22 916.722 1670.22 920.458C1670.22 924.194 1673.25 927.223 1676.98 927.223Z" fill="#FFF6BF"/>
<mask id="mask0" mask-type="alpha" maskUnits="userSpaceOnUse" x="1670" y="913" width="14" height="15">
<path fill-rule="evenodd" clip-rule="evenodd" d="M1676.98 927.223C1680.72 927.223 1683.75 924.194 1683.75 920.458C1683.75 916.722 1680.72 913.693 1676.98 913.693C1673.25 913.693 1670.22 916.722 1670.22 920.458C1670.22 924.194 1673.25 927.223 1676.98 927.223Z" fill="white"/>
</mask>
<g mask="url(#mask0)">
</g>
<path fill-rule="evenodd" clip-rule="evenodd" d="M1682.85 920.909H1671.12V920.007H1682.85V920.909Z" fill="#F1E59D"/>
</g>
<g filter="url(#filter2_d)">
<path fill-rule="evenodd" clip-rule="evenodd" d="M1684.65 912.791C1687.64 912.791 1690.06 910.368 1690.06 907.379C1690.06 904.39 1687.64 901.967 1684.65 901.967C1681.66 901.967 1679.24 904.39 1679.24 907.379C1679.24 910.368 1681.66 912.791 1684.65 912.791Z" fill="#DBDBDB"/>
<path fill-rule="evenodd" clip-rule="evenodd" d="M1684.65 912.791C1687.64 912.791 1690.06 910.368 1690.06 907.379C1690.06 904.39 1687.64 901.967 1684.65 901.967C1681.66 901.967 1679.24 904.39 1679.24 907.379C1679.24 910.368 1681.66 912.791 1684.65 912.791Z" fill="#F1F1F1"/>
<mask id="mask1" mask-type="alpha" maskUnits="userSpaceOnUse" x="1679" y="901" width="12" height="12">
<path fill-rule="evenodd" clip-rule="evenodd" d="M1684.65 912.791C1687.64 912.791 1690.06 910.368 1690.06 907.379C1690.06 904.39 1687.64 901.967 1684.65 901.967C1681.66 901.967 1679.24 904.39 1679.24 907.379C1679.24 910.368 1681.66 912.791 1684.65 912.791Z" fill="white"/>
</mask>
<g mask="url(#mask1)">
</g>
<path fill-rule="evenodd" clip-rule="evenodd" d="M1689.16 907.379H1680.14V906.477H1689.16V907.379Z" fill="#DBDBDB"/>
</g>
<g filter="url(#filter3_d)">
<path fill-rule="evenodd" clip-rule="evenodd" d="M1693.22 924.517C1695.46 924.517 1697.28 922.498 1697.28 920.007C1697.28 917.516 1695.46 915.497 1693.22 915.497C1690.98 915.497 1689.16 917.516 1689.16 920.007C1689.16 922.498 1690.98 924.517 1693.22 924.517Z" fill="#FFB2A7"/>
<path fill-rule="evenodd" clip-rule="evenodd" d="M1693.22 923.615C1695.46 923.615 1697.28 921.798 1697.28 919.556C1697.28 917.314 1695.46 915.497 1693.22 915.497C1690.98 915.497 1689.16 917.314 1689.16 919.556C1689.16 921.798 1690.98 923.615 1693.22 923.615Z" fill="#FFCCC4"/>
<mask id="mask2" mask-type="alpha" maskUnits="userSpaceOnUse" x="1689" y="915" width="9" height="9">
<path fill-rule="evenodd" clip-rule="evenodd" d="M1693.22 923.615C1695.46 923.615 1697.28 921.798 1697.28 919.556C1697.28 917.314 1695.46 915.497 1693.22 915.497C1690.98 915.497 1689.16 917.314 1689.16 919.556C1689.16 921.798 1690.98 923.615 1693.22 923.615Z" fill="white"/>
</mask>
<g mask="url(#mask2)">
</g>
</g>
<g filter="url(#filter4_d)">
<path d="M1714.38 935.514C1713.27 937.384 1710.81 937.972 1708.88 936.827C1706.96 935.683 1706.29 933.239 1707.4 931.37L1712.13 923.404C1713.24 921.534 1715.71 920.947 1717.63 922.091C1719.56 923.236 1720.22 925.679 1719.11 927.549L1714.38 935.514Z" fill="white"/>
<mask id="mask3" mask-type="alpha" maskUnits="userSpaceOnUse" x="1706" y="921" width="14" height="17">
<path d="M1714.38 935.514C1713.27 937.384 1710.81 937.972 1708.88 936.827C1706.96 935.683 1706.29 933.239 1707.4 931.37L1712.13 923.404C1713.24 921.534 1715.71 920.947 1717.63 922.091C1719.56 923.236 1720.22 925.679 1719.11 927.549L1714.38 935.514Z" fill="white"/>
</mask>
<g mask="url(#mask3)">
<path d="M1716.98 931.144L1710 926.999L1714.14 920.019L1721.12 924.163L1716.98 931.144Z" fill="#FF6600"/>
<path opacity="0.0953265" d="M1713.15 939.36L1706.94 935.676L1715.69 920.94L1721.9 924.624L1713.15 939.36Z" fill="white"/>
<path opacity="0.1" d="M1713.93 932.743C1713.74 933.065 1713.41 933.222 1713.2 933.095C1712.98 932.968 1712.96 932.604 1713.16 932.283L1716.15 927.242C1716.34 926.92 1716.67 926.763 1716.88 926.89C1717.1 927.017 1717.12 927.381 1716.92 927.702L1713.93 932.743Z" fill="white"/>
</g>
</g>
<g filter="url(#filter5_d)">
<path d="M1756.04 912.095C1757.97 913.099 1758.79 915.346 1757.87 917.113C1756.95 918.881 1754.64 919.5 1752.71 918.496L1744.49 914.219C1742.56 913.215 1741.75 910.968 1742.67 909.2C1743.59 907.433 1745.9 906.814 1747.82 907.818L1756.04 912.095Z" fill="white"/>
<mask id="mask4" mask-type="alpha" maskUnits="userSpaceOnUse" x="1742" y="907" width="17" height="12">
<path d="M1756.04 912.095C1757.97 913.099 1758.79 915.346 1757.87 917.113C1756.95 918.881 1754.64 919.5 1752.71 918.496L1744.49 914.219C1742.56 913.215 1741.75 910.968 1742.67 909.2C1743.59 907.433 1745.9 906.814 1747.82 907.818L1756.04 912.095Z" fill="white"/>
</mask>
<g mask="url(#mask4)">
<path d="M1752.75 909.365L1748.58 917.366L1740.58 913.201L1744.75 905.2L1752.75 909.365Z" fill="#64A3E5"/>
<path opacity="0.0953265" d="M1760.37 912.313L1756.62 919.514L1741.42 911.601L1745.16 904.4L1760.37 912.313Z" fill="white"/>
<path opacity="0.1" d="M1753.72 911.902C1754.05 912.075 1754.13 912.573 1753.9 913.014C1753.67 913.456 1753.21 913.675 1752.88 913.502L1747.68 910.795C1747.35 910.623 1747.27 910.124 1747.5 909.683C1747.73 909.241 1748.18 909.022 1748.52 909.195L1753.72 911.902Z" fill="white"/>
</g>
</g>
<path d="M1798.3 860.475C1798.3 849.515 1807.14 840.63 1818.05 840.63H1904.84C1915.74 840.63 1924.58 849.515 1924.58 860.475V1078.76C1924.58 1089.72 1915.74 1098.6 1904.84 1098.6H1818.05C1807.14 1098.6 1798.3 1089.72 1798.3 1078.76V860.475Z" fill="#1C154A"/>
<path d="M1804.62 865.697C1804.62 855.839 1812.59 847.847 1822.42 847.847H1900.46C1910.3 847.847 1918.27 855.839 1918.27 865.697V1073.54C1918.27 1083.4 1910.3 1091.39 1900.46 1091.39H1822.42C1812.59 1091.39 1804.62 1083.4 1804.62 1073.54V865.697Z" fill="#EFECFF"/>
<mask id="mask5" mask-type="alpha" maskUnits="userSpaceOnUse" x="1804" y="847" width="115" height="245">
<path d="M1804.62 865.697C1804.62 855.839 1812.59 847.847 1822.42 847.847H1900.46C1910.3 847.847 1918.27 855.839 1918.27 865.697V1073.54C1918.27 1083.4 1910.3 1091.39 1900.46 1091.39H1822.42C1812.59 1091.39 1804.62 1083.4 1804.62 1073.54V865.697Z" fill="white"/>
</mask>
<g mask="url(#mask5)">
<path opacity="0.5" d="M1816.34 880.501C1816.34 875.419 1820.46 871.299 1825.54 871.299H1900.05C1905.13 871.299 1909.25 875.419 1909.25 880.501V999.202C1909.25 1004.28 1905.13 1008.4 1900.05 1008.4H1825.54C1820.46 1008.4 1816.34 1004.28 1816.34 999.202V880.501Z" fill="white"/>
<path fill-rule="evenodd" clip-rule="evenodd" d="M1841.87 921.614C1841.87 921.614 1839.23 907.274 1841.87 905.226C1841.87 905.226 1849.57 890.577 1865.07 893.28C1880.57 895.983 1887.16 903.803 1884.21 921.091C1881.27 938.378 1845.53 929.406 1845.53 929.406L1841.87 921.614Z" fill="#062721"/>
<path fill-rule="evenodd" clip-rule="evenodd" d="M1909.62 1072.17C1909.62 1072.17 1935.14 1073.63 1938.38 1062.86C1941.63 1052.1 1931.81 1008.21 1922.48 984.185C1913.15 960.16 1877.83 954.284 1877.83 954.284L1849.21 955.563C1849.21 955.563 1813.67 963.441 1806.91 974.93C1800.16 986.418 1780.89 1014.41 1780.89 1014.41L1763.55 965.778L1739.67 974.93C1739.67 974.93 1759.06 1059.39 1774.84 1061.82C1790.63 1064.26 1815.63 1035.15 1815.63 1035.15V1110.33H1909.62V1072.17Z" fill="#6E1C74"/>
<mask id="mask6" mask-type="alpha" maskUnits="userSpaceOnUse" x="1739" y="954" width="201" height="157">
<path fill-rule="evenodd" clip-rule="evenodd" d="M1909.62 1072.17C1909.62 1072.17 1935.14 1073.63 1938.38 1062.86C1941.63 1052.1 1931.81 1008.21 1922.48 984.185C1913.15 960.16 1877.83 954.284 1877.83 954.284L1849.21 955.563C1849.21 955.563 1813.67 963.441 1806.91 974.93C1800.16 986.418 1780.89 1014.41 1780.89 1014.41L1763.55 965.778L1739.67 974.93C1739.67 974.93 1759.06 1059.39 1774.84 1061.82C1790.63 1064.26 1815.63 1035.15 1815.63 1035.15V1110.33H1909.62V1072.17Z" fill="white"/>
</mask>
<g mask="url(#mask6)">
<path fill-rule="evenodd" clip-rule="evenodd" d="M1847.01 955.554L1860.89 1021.93L1875.88 954.284L1847.01 955.554Z" fill="white"/>
<path fill-rule="evenodd" clip-rule="evenodd" d="M1847.09 955.186L1847.69 955.486L1833.55 983.087L1847.47 986.884L1838.04 994.418L1861.44 1033.32L1860.87 1033.66L1837.17 994.263L1846.04 987.18L1832.58 983.511L1847.09 955.186Z" fill="#062721"/>
<path fill-rule="evenodd" clip-rule="evenodd" d="M1876.68 954.284L1876.09 954.584L1890.24 982.116L1876.31 985.903L1885.75 993.42L1862.35 1033.33L1862.92 1033.66L1886.62 993.261L1877.74 986.198L1891.21 982.539L1876.68 954.284Z" fill="#062721"/>
<path fill-rule="evenodd" clip-rule="evenodd" d="M1888.5 976.702C1888.5 976.703 1888.5 976.703 1887.37 976.768C1886.23 976.834 1886.23 976.834 1886.23 976.834L1886.23 976.833L1886.23 976.827L1886.23 976.803C1886.23 976.781 1886.22 976.747 1886.22 976.702C1886.21 976.613 1886.2 976.478 1886.19 976.303C1886.16 975.953 1886.12 975.439 1886.05 974.792C1885.91 973.496 1885.69 971.666 1885.33 969.539C1884.61 965.271 1883.37 959.858 1881.29 955.152L1883.38 954.284C1885.57 959.227 1886.85 964.84 1887.58 969.185C1887.94 971.363 1888.17 973.237 1888.31 974.568C1888.38 975.234 1888.43 975.764 1888.46 976.13C1888.48 976.313 1888.49 976.454 1888.49 976.551C1888.5 976.599 1888.5 976.636 1888.5 976.662L1888.5 976.691L1888.5 976.702Z" fill="white"/>
<path fill-rule="evenodd" clip-rule="evenodd" d="M1843.67 954.284C1843.67 954.283 1843.67 954.283 1843.99 955.349C1844.3 956.415 1844.3 956.415 1844.3 956.415L1844.3 956.414L1844.3 956.414L1844.29 956.418C1844.28 956.422 1844.25 956.431 1844.22 956.444C1844.14 956.47 1844.02 956.514 1843.87 956.581C1843.56 956.713 1843.1 956.934 1842.54 957.276C1841.42 957.958 1839.9 959.125 1838.36 961.042C1835.3 964.863 1832.1 971.768 1832.1 984.006V1014.72C1832.1 1014.72 1832.1 1014.72 1830.99 1014.72C1829.87 1014.72 1829.87 1014.72 1829.87 1014.72V984.006C1829.87 971.368 1833.18 963.945 1836.62 959.656C1838.33 957.519 1840.06 956.185 1841.37 955.381C1842.03 954.98 1842.59 954.711 1842.99 954.54C1843.19 954.454 1843.35 954.393 1843.47 954.351C1843.53 954.331 1843.57 954.315 1843.61 954.304C1843.62 954.298 1843.64 954.294 1843.65 954.29L1843.67 954.286L1843.67 954.284L1843.67 954.284ZM1844.31 956.414C1844.31 956.413 1844.31 956.413 1844.3 956.414L1844.31 956.414Z" fill="white"/>
<path fill-rule="evenodd" clip-rule="evenodd" d="M1830.78 1020.13C1833.76 1020.13 1836.19 1017.51 1836.19 1014.27C1836.19 1011.03 1833.76 1008.4 1830.78 1008.4C1827.79 1008.4 1825.36 1011.03 1825.36 1014.27C1825.36 1017.51 1827.79 1020.13 1830.78 1020.13Z" fill="white"/>
</g>
<path d="M1845.21 1015.62H1883.99V1070.64H1845.21V1015.62Z" fill="#F9F8F8"/>
<path fill-rule="evenodd" clip-rule="evenodd" d="M1878.58 1023.74H1851.52V1022.84H1878.58V1023.74Z" fill="#062721"/>
<path fill-rule="evenodd" clip-rule="evenodd" d="M1871.37 1030.95H1851.52V1030.05H1871.37V1030.95Z" fill="#062721"/>
<path fill-rule="evenodd" clip-rule="evenodd" d="M1878.58 1037.27H1851.52V1036.37H1878.58V1037.27Z" fill="#062721"/>
<path fill-rule="evenodd" clip-rule="evenodd" d="M1871.37 1044.48H1851.52V1043.58H1871.37V1044.48Z" fill="#062721"/>
<path fill-rule="evenodd" clip-rule="evenodd" d="M1883.99 1048.99L1873.48 1042.03L1866.58 1040.32C1866.58 1040.32 1864.25 1039.54 1864.06 1040.32C1863.87 1041.09 1865.18 1043.07 1865.76 1043.63C1866.33 1044.2 1871.67 1046.24 1871.67 1046.24L1862.78 1044.64L1854.83 1040.87C1854.83 1040.87 1852.88 1040.17 1852.49 1041.11C1852.1 1042.05 1853.51 1043.25 1853.51 1043.25L1860.61 1047.54C1860.61 1047.54 1857.84 1047.06 1857.58 1047.17C1857.31 1047.27 1856.7 1047.56 1856.56 1048.57C1856.43 1049.58 1857.28 1050.76 1857.28 1050.76L1857.66 1051.06C1857.66 1051.06 1856.79 1051.8 1856.68 1052.77C1856.56 1053.73 1857.28 1054.38 1857.28 1054.38L1857.49 1054.6C1857.49 1054.6 1856.8 1055.39 1856.8 1056.23C1856.8 1057.07 1857.28 1057.58 1857.28 1057.58L1866.09 1062.54C1866.09 1062.54 1876.35 1063.95 1883.99 1063.21V1048.99Z" fill="#FFAE9C"/>
<path fill-rule="evenodd" clip-rule="evenodd" d="M1861.21 1052.6L1857.84 1051.5L1858.07 1050.8L1861.44 1051.9L1861.21 1052.6Z" fill="#062721"/>
<path fill-rule="evenodd" clip-rule="evenodd" d="M1861.19 1057.11L1857.84 1055.19L1858.09 1054.41L1861.44 1056.33L1861.19 1057.11Z" fill="#062721"/>
<path fill-rule="evenodd" clip-rule="evenodd" d="M1863.91 1048.99L1860.54 1047.89L1860.78 1047.19L1864.15 1048.3L1863.91 1048.99Z" fill="#062721"/>
<path fill-rule="evenodd" clip-rule="evenodd" d="M1847.91 937.195C1847.91 937.195 1850.28 947.815 1849.49 955.934C1849.49 955.934 1855.86 971.422 1864.07 971.422C1872.28 971.422 1877.9 954.674 1877.9 954.674C1877.9 954.674 1876.82 947.774 1878.52 940.642C1880.21 933.51 1847.91 937.195 1847.91 937.195Z" fill="#FFAE9C"/>
<mask id="mask7" mask-type="alpha" maskUnits="userSpaceOnUse" x="1847" y="936" width="32" height="36">
<path fill-rule="evenodd" clip-rule="evenodd" d="M1847.91 937.195C1847.91 937.195 1850.28 947.815 1849.49 955.934C1849.49 955.934 1855.86 971.422 1864.07 971.422C1872.28 971.422 1877.9 954.674 1877.9 954.674C1877.9 954.674 1876.82 947.774 1878.52 940.642C1880.21 933.51 1847.91 937.195 1847.91 937.195Z" fill="white"/>
</mask>
<g mask="url(#mask7)">
<path fill-rule="evenodd" clip-rule="evenodd" d="M1877.68 942.667C1877.68 942.667 1871.44 957.322 1856.73 957.322C1856.73 957.322 1850.17 958.269 1858.69 970.52L1846.11 956.995L1848.2 938.949L1877.68 942.667Z" fill="#DF8D70"/>
</g>
<path fill-rule="evenodd" clip-rule="evenodd" d="M1883.05 932.921C1884.03 932.382 1885.2 930.306 1885.71 926.127C1886.22 921.948 1884.48 921.178 1883.44 921.526C1882.4 921.874 1880.07 926.88 1880.07 926.88L1880.22 919.574C1876.55 915.67 1876.37 909.983 1876.37 909.983C1865.3 913.679 1852.19 906.477 1852.19 906.477C1850.98 908.594 1849.97 910.1 1848.94 911.364C1847.79 912.78 1845.77 914.39 1845.77 914.39L1846.12 926.901L1842.88 921.526C1838.6 921.526 1841.75 929.946 1842.88 932.043C1844 934.141 1846.67 932.921 1846.67 932.921C1846.67 932.921 1850.9 952.473 1862.7 953.347C1874.5 954.22 1880.22 938.494 1880.22 932.921C1880.22 932.921 1882.07 933.46 1883.05 932.921Z" fill="#FFAE9C"/>
<path fill-rule="evenodd" clip-rule="evenodd" d="M1815.44 1077.86V1016.52H1816.34V1077.86H1815.44Z" fill="#062721"/>
<path fill-rule="evenodd" clip-rule="evenodd" d="M1863.7 943.459C1860.33 943.459 1857.84 940.753 1857.84 940.753L1869.56 940.753C1869.56 940.753 1867.07 943.459 1863.7 943.459Z" fill="white"/>
<path fill-rule="evenodd" clip-rule="evenodd" d="M1861.45 923.615L1862.13 923.665L1861.25 934.85C1861.32 934.893 1861.42 934.947 1861.53 935.007C1861.82 935.154 1862.24 935.333 1862.79 935.453C1863.88 935.691 1865.47 935.699 1867.44 934.718L1867.76 935.302C1865.63 936.357 1863.88 936.365 1862.64 936.094C1862.02 935.959 1861.54 935.756 1861.21 935.586C1861.04 935.5 1860.91 935.423 1860.82 935.365C1860.78 935.337 1860.75 935.313 1860.72 935.296C1860.71 935.287 1860.7 935.28 1860.69 935.275L1860.69 935.268L1860.68 935.266L1860.68 935.265L1860.68 935.265C1860.68 935.265 1860.68 935.265 1860.9 935.01L1860.68 935.265L1860.54 935.156L1861.45 923.615Z" fill="#062721"/>
<path fill-rule="evenodd" clip-rule="evenodd" d="M1856.03 926.321C1856.53 926.321 1856.93 925.918 1856.93 925.419C1856.93 924.921 1856.53 924.517 1856.03 924.517C1855.53 924.517 1855.13 924.921 1855.13 925.419C1855.13 925.918 1855.53 926.321 1856.03 926.321Z" fill="#062721"/>
<path fill-rule="evenodd" clip-rule="evenodd" d="M1888.09 977.591C1885.91 977.493 1883.91 978.25 1882.93 979.167C1881.9 980.134 1881.23 981.526 1880.81 982.739C1880.61 983.336 1880.48 983.868 1880.4 984.25C1880.36 984.441 1880.33 984.593 1880.31 984.696C1880.3 984.741 1880.3 984.777 1880.29 984.802C1879.88 1003.97 1885.9 1013.07 1891.81 1017.41C1891.89 1017.47 1891.98 1017.53 1892.06 1017.59C1894.34 1014.08 1895.82 1009.65 1896.6 1004.95C1897.4 1000.19 1897.46 995.257 1896.95 990.957C1896.44 986.634 1895.36 983.04 1893.95 980.893C1892.44 978.597 1890.22 977.687 1888.09 977.591ZM1893.47 1018.51C1895.94 1014.71 1897.47 1009.99 1898.27 1005.21C1899.09 1000.3 1899.15 995.215 1898.63 990.768C1898.11 986.344 1896.99 982.458 1895.37 980.001C1893.52 977.189 1890.76 976.059 1888.17 975.942C1885.62 975.828 1883.14 976.687 1881.76 977.974C1880.44 979.212 1879.66 980.902 1879.21 982.219C1878.98 982.888 1878.83 983.482 1878.74 983.911C1878.7 984.126 1878.66 984.301 1878.64 984.423C1878.63 984.485 1878.62 984.533 1878.62 984.567C1878.62 984.584 1878.61 984.598 1878.61 984.608L1878.61 984.619L1878.61 984.623L1878.61 984.625C1878.61 984.625 1878.61 984.625 1879.45 984.734L1878.61 984.625L1878.6 984.671L1878.6 984.716C1878.17 1004.29 1884.32 1013.98 1890.79 1018.73C1890.9 1018.8 1891 1018.88 1891.11 1018.95C1888.83 1021.92 1885.88 1024.04 1882.17 1024.83L1882.53 1026.44C1886.76 1025.55 1890.04 1023.14 1892.51 1019.87C1895.14 1021.46 1897.69 1022.28 1899.7 1022.7C1900.92 1022.96 1901.94 1023.07 1902.66 1023.11C1903.02 1023.14 1903.31 1023.14 1903.51 1023.14C1903.61 1023.15 1903.69 1023.14 1903.75 1023.14C1903.77 1023.14 1903.8 1023.14 1903.81 1023.14L1903.83 1023.14L1903.84 1023.14L1903.84 1023.14C1903.84 1023.14 1903.84 1023.14 1903.8 1022.32C1903.76 1021.49 1903.76 1021.49 1903.76 1021.49L1903.75 1021.49C1903.74 1021.49 1903.73 1021.49 1903.71 1021.49C1903.67 1021.49 1903.6 1021.49 1903.52 1021.49C1903.35 1021.49 1903.1 1021.49 1902.77 1021.47C1902.12 1021.43 1901.18 1021.33 1900.05 1021.09C1898.21 1020.7 1895.88 1019.96 1893.47 1018.51Z" fill="white"/>
<path fill-rule="evenodd" clip-rule="evenodd" d="M1904.74 1024.64C1905.74 1024.64 1906.54 1023.63 1906.54 1022.39C1906.54 1021.14 1905.74 1020.13 1904.74 1020.13C1903.74 1020.13 1902.94 1021.14 1902.94 1022.39C1902.94 1023.63 1903.74 1024.64 1904.74 1024.64Z" fill="#062721"/>
<path fill-rule="evenodd" clip-rule="evenodd" d="M1882.19 1027.35C1883.19 1027.35 1883.99 1026.54 1883.99 1025.54C1883.99 1024.55 1883.19 1023.74 1882.19 1023.74C1881.19 1023.74 1880.39 1024.55 1880.39 1025.54C1880.39 1026.54 1881.19 1027.35 1882.19 1027.35Z" fill="#062721"/>
<path fill-rule="evenodd" clip-rule="evenodd" d="M1868.21 926.321C1868.96 926.321 1869.56 925.918 1869.56 925.419C1869.56 924.921 1868.96 924.517 1868.21 924.517C1867.46 924.517 1866.86 924.921 1866.86 925.419C1866.86 925.918 1867.46 926.321 1868.21 926.321Z" fill="#062721"/>
<path fill-rule="evenodd" clip-rule="evenodd" d="M1850.62 925.419C1850.62 922.929 1852.84 920.909 1855.58 920.909C1858.32 920.909 1860.54 922.929 1860.54 925.419C1860.54 927.91 1858.32 929.929 1855.58 929.929C1852.84 929.929 1850.62 927.91 1850.62 925.419ZM1855.58 921.611C1853.27 921.611 1851.39 923.316 1851.39 925.419C1851.39 927.523 1853.27 929.227 1855.58 929.227C1857.89 929.227 1859.77 927.523 1859.77 925.419C1859.77 923.316 1857.89 921.611 1855.58 921.611Z" fill="white"/>
<path fill-rule="evenodd" clip-rule="evenodd" d="M1864.15 925.419C1864.15 922.929 1866.17 920.909 1868.66 920.909C1871.15 920.909 1873.17 922.929 1873.17 925.419C1873.17 927.91 1871.15 929.929 1868.66 929.929C1866.17 929.929 1864.15 927.91 1864.15 925.419ZM1868.66 921.611C1866.56 921.611 1864.85 923.316 1864.85 925.419C1864.85 927.523 1866.56 929.227 1868.66 929.227C1870.76 929.227 1872.47 927.523 1872.47 925.419C1872.47 923.316 1870.76 921.611 1868.66 921.611Z" fill="white"/>
<path fill-rule="evenodd" clip-rule="evenodd" d="M1882.19 922.278L1873.31 924.517L1873.17 924.051L1882.05 921.811L1882.19 922.278Z" fill="white"/>
<path fill-rule="evenodd" clip-rule="evenodd" d="M1843.65 920.909L1851.52 924.042L1851.28 924.517L1843.4 921.385L1843.65 920.909Z" fill="white"/>
<path fill-rule="evenodd" clip-rule="evenodd" d="M1851.82 920.909C1851.82 920.909 1851.82 920.909 1851.67 920.626C1851.52 920.343 1851.52 920.343 1851.52 920.343L1851.52 920.343L1851.52 920.342L1851.53 920.34L1851.53 920.334C1851.54 920.328 1851.55 920.321 1851.57 920.311C1851.6 920.292 1851.64 920.265 1851.69 920.232C1851.79 920.165 1851.95 920.074 1852.14 919.971C1852.53 919.767 1853.08 919.519 1853.75 919.34C1855.08 918.984 1856.89 918.905 1858.74 920.038L1858.47 920.628C1856.78 919.59 1855.12 919.658 1853.87 919.99C1853.25 920.157 1852.74 920.389 1852.38 920.579C1852.2 920.674 1852.06 920.758 1851.96 920.817C1851.91 920.847 1851.88 920.871 1851.86 920.887C1851.84 920.895 1851.84 920.901 1851.83 920.905L1851.82 920.909L1851.82 920.909Z" fill="#062721"/>
<path fill-rule="evenodd" clip-rule="evenodd" d="M1866.22 920.909C1866.22 920.909 1866.22 920.909 1866.09 920.626C1865.95 920.343 1865.95 920.343 1865.95 920.343L1865.95 920.343L1865.96 920.342L1865.96 920.34L1865.97 920.334C1865.97 920.328 1865.98 920.321 1865.99 920.311C1866.02 920.292 1866.05 920.265 1866.1 920.232C1866.19 920.165 1866.33 920.074 1866.49 919.971C1866.83 919.767 1867.32 919.519 1867.9 919.34C1869.07 918.984 1870.65 918.905 1872.27 920.038L1872.04 920.628C1870.55 919.59 1869.1 919.658 1868.01 919.99C1867.47 920.157 1867.02 920.389 1866.7 920.579C1866.54 920.674 1866.42 920.758 1866.34 920.817C1866.3 920.847 1866.27 920.871 1866.25 920.887C1866.24 920.895 1866.23 920.901 1866.22 920.905L1866.22 920.909L1866.22 920.909Z" fill="#062721"/>
<path fill-rule="evenodd" clip-rule="evenodd" d="M1883.09 1047.19L1923.07 1048.32L1923.09 1048.32L1923.04 1048.65C1923.09 1048.32 1923.09 1048.32 1923.09 1048.32L1923.09 1048.32L1923.09 1048.32L1923.1 1048.32L1923.11 1048.33C1923.12 1048.33 1923.14 1048.33 1923.16 1048.33C1923.21 1048.34 1923.27 1048.36 1923.36 1048.37C1923.52 1048.41 1923.76 1048.47 1924.04 1048.56C1924.62 1048.74 1925.4 1049.04 1926.25 1049.55C1927.95 1050.56 1929.89 1052.37 1930.9 1055.54L1930.26 1055.75C1929.31 1052.76 1927.49 1051.07 1925.91 1050.13C1925.11 1049.65 1924.38 1049.37 1923.85 1049.2C1923.58 1049.12 1923.36 1049.06 1923.21 1049.03C1923.14 1049.01 1923.08 1049 1923.04 1049C1923.03 1048.99 1923.02 1048.99 1923.01 1048.99L1883.76 1047.88V1066.53C1883.78 1066.53 1883.8 1066.54 1883.82 1066.54C1884.01 1066.6 1884.3 1066.69 1884.67 1066.8C1885.41 1067.02 1886.5 1067.33 1887.86 1067.69C1890.59 1068.4 1894.43 1069.31 1898.9 1070.09C1907.84 1071.65 1919.23 1072.69 1929.13 1070.61L1929.27 1071.27C1919.24 1073.37 1907.75 1072.32 1898.78 1070.75C1894.3 1069.97 1890.43 1069.05 1887.69 1068.34C1886.32 1067.98 1885.23 1067.67 1884.48 1067.44C1884.11 1067.33 1883.82 1067.25 1883.62 1067.19C1883.53 1067.15 1883.45 1067.13 1883.4 1067.12L1883.34 1067.1L1883.33 1067.09L1883.32 1067.09C1883.32 1067.09 1883.32 1067.09 1883.43 1066.77L1883.32 1067.09L1883.09 1067.02V1047.19Z" fill="#062721"/>
<path fill-rule="evenodd" clip-rule="evenodd" d="M1908.54 1048.99L1906.54 1003.92L1907.25 1003.89L1909.25 1048.97L1908.54 1048.99Z" fill="#062721"/>
</g>
<path fill-rule="evenodd" clip-rule="evenodd" d="M1763.12 975.661L1757.51 960.437C1757.51 960.437 1759.43 953.627 1758.47 947.996C1757.51 942.365 1761.5 938.07 1761.5 938.07C1761.5 938.07 1756.86 936.418 1755.02 940.4C1753.18 944.382 1751.84 946.798 1751.84 946.798C1751.84 946.798 1749.12 941.878 1748.31 939.685C1745.06 930.881 1743.89 926.357 1743.03 926.758C1741.41 927.509 1743.03 938.07 1743.03 938.07C1743.03 938.07 1741.61 935.597 1741.05 934.427C1737.57 927.111 1736.01 924.993 1735.11 925.487C1733.56 926.347 1738.55 939.685 1737.77 939.685C1736.99 939.685 1732.31 929.142 1731.01 929.896C1729.7 930.651 1734.37 943.315 1734.37 943.315C1734.37 943.315 1730.35 936.041 1729.1 936.592C1727.85 937.143 1731.62 945.347 1732.58 948.109C1733.55 950.871 1734.64 959.74 1742.01 966.727L1745.7 981.344L1763.12 975.661Z" fill="#FFAE9C"/>
<path fill-rule="evenodd" clip-rule="evenodd" d="M1841.87 921.614C1841.87 921.614 1839.23 907.274 1841.87 905.226C1841.87 905.226 1849.57 890.577 1865.07 893.28C1880.57 895.983 1887.16 903.803 1884.21 921.091C1881.27 938.378 1845.53 929.406 1845.53 929.406L1841.87 921.614Z" fill="#062721"/>
<path fill-rule="evenodd" clip-rule="evenodd" d="M1909.62 1072.76C1909.62 1072.76 1935.14 1074.22 1938.38 1063.4C1941.63 1052.59 1931.81 1008.48 1922.48 984.334C1913.15 960.189 1877.83 954.284 1877.83 954.284L1849.21 955.569C1849.21 955.569 1813.67 963.486 1806.91 975.032C1800.16 986.578 1780.89 1014.71 1780.89 1014.71L1763.55 965.835L1739.67 975.032C1739.67 975.032 1759.06 1059.91 1774.84 1062.36C1790.63 1064.8 1815.63 1035.55 1815.63 1035.55V1083.27H1909.62V1072.76Z" fill="#6E1C74"/>
<mask id="mask8" mask-type="alpha" maskUnits="userSpaceOnUse" x="1739" y="954" width="201" height="130">
<path fill-rule="evenodd" clip-rule="evenodd" d="M1909.62 1072.76C1909.62 1072.76 1935.14 1074.22 1938.38 1063.4C1941.63 1052.59 1931.81 1008.48 1922.48 984.334C1913.15 960.189 1877.83 954.284 1877.83 954.284L1849.21 955.569C1849.21 955.569 1813.67 963.486 1806.91 975.032C1800.16 986.578 1780.89 1014.71 1780.89 1014.71L1763.55 965.835L1739.67 975.032C1739.67 975.032 1759.06 1059.91 1774.84 1062.36C1790.63 1064.8 1815.63 1035.55 1815.63 1035.55V1083.27H1909.62V1072.76Z" fill="white"/>
</mask>
<g mask="url(#mask8)">
<path fill-rule="evenodd" clip-rule="evenodd" d="M1847.01 955.554L1860.89 1021.93L1875.88 954.284L1847.01 955.554Z" fill="white"/>
<path fill-rule="evenodd" clip-rule="evenodd" d="M1847.09 955.186L1847.69 955.486L1833.55 983.087L1847.47 986.884L1838.04 994.418L1861.44 1033.32L1860.87 1033.66L1837.17 994.263L1846.04 987.18L1832.58 983.511L1847.09 955.186Z" fill="#062721"/>
<path fill-rule="evenodd" clip-rule="evenodd" d="M1876.68 954.284L1876.09 954.584L1890.24 982.116L1876.3 985.903L1885.75 993.42L1862.35 1033.33L1862.92 1033.66L1886.61 993.261L1877.74 986.198L1891.21 982.539L1876.68 954.284Z" fill="#062721"/>
<path fill-rule="evenodd" clip-rule="evenodd" d="M1888.5 976.702C1888.5 976.703 1888.5 976.703 1887.37 976.768C1886.23 976.834 1886.23 976.834 1886.23 976.834L1886.23 976.833L1886.23 976.827L1886.23 976.803C1886.23 976.781 1886.22 976.747 1886.22 976.702C1886.21 976.613 1886.2 976.478 1886.19 976.303C1886.16 975.953 1886.12 975.439 1886.05 974.792C1885.91 973.496 1885.69 971.666 1885.33 969.539C1884.61 965.271 1883.37 959.858 1881.29 955.152L1883.38 954.284C1885.57 959.227 1886.85 964.84 1887.58 969.185C1887.94 971.363 1888.17 973.237 1888.31 974.568C1888.38 975.234 1888.43 975.764 1888.46 976.13C1888.48 976.313 1888.49 976.454 1888.49 976.551C1888.5 976.599 1888.5 976.636 1888.5 976.662L1888.5 976.691L1888.5 976.702Z" fill="white"/>
<path fill-rule="evenodd" clip-rule="evenodd" d="M1843.67 954.284C1843.67 954.283 1843.67 954.283 1843.99 955.349C1844.3 956.415 1844.3 956.415 1844.3 956.415L1844.3 956.414L1844.3 956.414L1844.29 956.418C1844.28 956.422 1844.25 956.431 1844.22 956.444C1844.14 956.47 1844.02 956.514 1843.87 956.581C1843.56 956.713 1843.1 956.934 1842.54 957.276C1841.42 957.958 1839.9 959.125 1838.36 961.042C1835.3 964.863 1832.1 971.768 1832.1 984.006V1014.72C1832.1 1014.72 1832.1 1014.72 1830.99 1014.72C1829.87 1014.72 1829.87 1014.72 1829.87 1014.72V984.006C1829.87 971.368 1833.18 963.945 1836.62 959.656C1838.33 957.519 1840.06 956.185 1841.37 955.381C1842.03 954.98 1842.59 954.711 1842.99 954.54C1843.19 954.454 1843.35 954.393 1843.47 954.351C1843.53 954.331 1843.57 954.315 1843.61 954.304C1843.62 954.298 1843.64 954.294 1843.65 954.29L1843.67 954.286L1843.67 954.284L1843.67 954.284ZM1844.31 956.414C1844.31 956.413 1844.31 956.413 1844.3 956.414L1844.31 956.414Z" fill="white"/>
<path fill-rule="evenodd" clip-rule="evenodd" d="M1830.78 1020.13C1833.76 1020.13 1836.19 1017.51 1836.19 1014.27C1836.19 1011.03 1833.76 1008.4 1830.78 1008.4C1827.79 1008.4 1825.36 1011.03 1825.36 1014.27C1825.36 1017.51 1827.79 1020.13 1830.78 1020.13Z" fill="white"/>
</g>
<path d="M1845.21 1015.62H1883.99V1070.64H1845.21V1015.62Z" fill="#F9F8F8"/>
<path fill-rule="evenodd" clip-rule="evenodd" d="M1878.58 1023.74H1851.52V1022.84H1878.58V1023.74Z" fill="#062721"/>
<path fill-rule="evenodd" clip-rule="evenodd" d="M1871.37 1030.95H1851.52V1030.05H1871.37V1030.95Z" fill="#062721"/>
<path fill-rule="evenodd" clip-rule="evenodd" d="M1878.58 1037.27H1851.52V1036.37H1878.58V1037.27Z" fill="#062721"/>
<path fill-rule="evenodd" clip-rule="evenodd" d="M1871.37 1044.48H1851.52V1043.58H1871.37V1044.48Z" fill="#062721"/>
<path fill-rule="evenodd" clip-rule="evenodd" d="M1883.99 1048.99L1873.48 1042.03L1866.58 1040.32C1866.58 1040.32 1864.25 1039.54 1864.06 1040.32C1863.87 1041.09 1865.18 1043.07 1865.76 1043.63C1866.33 1044.2 1871.67 1046.24 1871.67 1046.24L1862.78 1044.64L1854.83 1040.87C1854.83 1040.87 1852.88 1040.17 1852.49 1041.11C1852.1 1042.05 1853.51 1043.25 1853.51 1043.25L1860.61 1047.54C1860.61 1047.54 1857.84 1047.06 1857.58 1047.17C1857.31 1047.27 1856.7 1047.56 1856.56 1048.57C1856.43 1049.58 1857.28 1050.76 1857.28 1050.76L1857.66 1051.06C1857.66 1051.06 1856.79 1051.8 1856.68 1052.77C1856.56 1053.73 1857.28 1054.38 1857.28 1054.38L1857.49 1054.6C1857.49 1054.6 1856.8 1055.39 1856.8 1056.23C1856.8 1057.07 1857.28 1057.58 1857.28 1057.58L1866.09 1062.54C1866.09 1062.54 1876.35 1063.95 1883.99 1063.21V1048.99Z" fill="#FFAE9C"/>
<path fill-rule="evenodd" clip-rule="evenodd" d="M1861.21 1052.6L1857.84 1051.5L1858.07 1050.8L1861.44 1051.9L1861.21 1052.6Z" fill="#062721"/>
<path fill-rule="evenodd" clip-rule="evenodd" d="M1861.19 1057.11L1857.84 1055.19L1858.09 1054.41L1861.44 1056.33L1861.19 1057.11Z" fill="#062721"/>
<path fill-rule="evenodd" clip-rule="evenodd" d="M1863.91 1048.99L1860.54 1047.89L1860.78 1047.19L1864.15 1048.3L1863.91 1048.99Z" fill="#062721"/>
<path fill-rule="evenodd" clip-rule="evenodd" d="M1847.91 937.195C1847.91 937.195 1850.28 947.815 1849.49 955.934C1849.49 955.934 1855.86 971.422 1864.07 971.422C1872.28 971.422 1877.9 954.674 1877.9 954.674C1877.9 954.674 1876.82 947.774 1878.52 940.642C1880.21 933.51 1847.91 937.195 1847.91 937.195Z" fill="#FFAE9C"/>
<mask id="mask9" mask-type="alpha" maskUnits="userSpaceOnUse" x="1847" y="936" width="32" height="36">
<path fill-rule="evenodd" clip-rule="evenodd" d="M1847.91 937.195C1847.91 937.195 1850.28 947.815 1849.49 955.934C1849.49 955.934 1855.86 971.422 1864.07 971.422C1872.28 971.422 1877.9 954.674 1877.9 954.674C1877.9 954.674 1876.82 947.774 1878.52 940.642C1880.21 933.51 1847.91 937.195 1847.91 937.195Z" fill="white"/>
</mask>
<g mask="url(#mask9)">
<path fill-rule="evenodd" clip-rule="evenodd" d="M1877.68 942.667C1877.68 942.667 1871.44 957.322 1856.73 957.322C1856.73 957.322 1850.17 958.269 1858.69 970.52L1846.11 956.995L1848.2 938.949L1877.68 942.667Z" fill="#DF8D70"/>
</g>
<path fill-rule="evenodd" clip-rule="evenodd" d="M1883.05 932.921C1884.03 932.382 1885.2 930.306 1885.71 926.127C1886.22 921.948 1884.48 921.178 1883.44 921.526C1882.4 921.874 1880.07 926.88 1880.07 926.88L1880.22 919.574C1876.55 915.67 1876.37 909.983 1876.37 909.983C1865.3 913.679 1852.19 906.477 1852.19 906.477C1850.98 908.594 1849.97 910.1 1848.94 911.364C1847.79 912.78 1845.77 914.39 1845.77 914.39L1846.12 926.901L1842.88 921.526C1838.6 921.526 1841.75 929.946 1842.88 932.043C1844 934.141 1846.67 932.921 1846.67 932.921C1846.67 932.921 1850.9 952.473 1862.7 953.347C1874.5 954.22 1880.22 938.494 1880.22 932.921C1880.22 932.921 1882.07 933.46 1883.05 932.921Z" fill="#FFAE9C"/>
<path fill-rule="evenodd" clip-rule="evenodd" d="M1752.3 946.751L1752.02 946.166L1752.1 946.488C1752.02 946.166 1752.02 946.165 1752.02 946.166L1752.01 946.166L1752.01 946.168L1751.99 946.173C1751.97 946.178 1751.94 946.185 1751.91 946.194C1751.84 946.213 1751.74 946.241 1751.61 946.278C1751.35 946.353 1750.98 946.463 1750.52 946.609C1749.61 946.899 1748.37 947.331 1747.03 947.893C1745.68 948.455 1744.24 949.15 1742.94 949.969C1741.64 950.786 1740.46 951.738 1739.67 952.821L1740.2 953.217C1740.92 952.23 1742.02 951.331 1743.29 950.535C1744.55 949.742 1745.96 949.063 1747.28 948.509C1748.6 947.956 1749.83 947.531 1750.72 947.245C1750.75 947.235 1750.79 947.225 1750.82 947.215C1750.79 947.242 1750.76 947.27 1750.73 947.298C1750.07 947.981 1749.21 948.968 1748.46 950.185C1746.96 952.616 1745.86 956.008 1747.63 959.696L1748.22 959.404C1746.59 956.004 1747.58 952.865 1749.02 950.538C1749.73 949.375 1750.56 948.426 1751.2 947.767C1751.52 947.438 1751.8 947.183 1752 947.01C1752.09 946.924 1752.17 946.858 1752.22 946.815C1752.25 946.793 1752.27 946.777 1752.28 946.766L1752.3 946.755L1752.3 946.752L1752.3 946.751C1752.3 946.751 1752.3 946.751 1752.3 946.751Z" fill="#062721"/>
<path fill-rule="evenodd" clip-rule="evenodd" d="M1741.48 931.818C1741.48 931.818 1741.48 931.818 1741.89 931.775C1742.31 931.733 1742.31 931.733 1742.31 931.733L1742.32 931.822C1742.33 931.88 1742.34 931.965 1742.36 932.074C1742.39 932.293 1742.44 932.607 1742.5 932.99C1742.62 933.757 1742.78 934.799 1742.97 935.9C1743.35 938.119 1743.82 940.524 1744.18 941.436L1743.39 941.655C1743 940.67 1742.52 938.191 1742.14 935.999C1741.95 934.894 1741.79 933.849 1741.67 933.08C1741.61 932.696 1741.56 932.38 1741.53 932.161C1741.51 932.051 1741.5 931.965 1741.49 931.907L1741.48 931.818Z" fill="#062721"/>
<path fill-rule="evenodd" clip-rule="evenodd" d="M1738.08 941.655L1736.06 935.496L1736.76 935.341L1738.77 941.501L1738.08 941.655Z" fill="#062721"/>
<path fill-rule="evenodd" clip-rule="evenodd" d="M1734.5 944.362L1732.46 939.178L1733.12 938.949L1735.16 944.133L1734.5 944.362Z" fill="#062721"/>
<path fill-rule="evenodd" clip-rule="evenodd" d="M1734 944.972C1733.84 945.105 1733.62 945.263 1733.36 945.263V944.616C1733.36 944.616 1733.36 944.616 1733.36 944.615C1733.36 944.614 1733.41 944.603 1733.55 944.486C1733.67 944.386 1733.81 944.251 1733.98 944.078C1734.02 944.04 1734.06 944.002 1734.1 943.961C1734.55 943.511 1735.18 942.909 1736.11 942.351C1737.96 941.227 1740.94 940.31 1745.99 940.982L1745.89 941.623C1740.98 940.969 1738.17 941.87 1736.47 942.897C1735.62 943.413 1735.03 943.97 1734.59 944.409C1734.55 944.445 1734.52 944.481 1734.48 944.517C1734.31 944.69 1734.15 944.851 1734 944.972Z" fill="#062721"/>
<path fill-rule="evenodd" clip-rule="evenodd" d="M1815.44 1077.86V1016.52H1816.34V1077.86H1815.44Z" fill="#062721"/>
<path fill-rule="evenodd" clip-rule="evenodd" d="M1763.77 966.01L1781.17 1014.49V1026.44H1780.5V1014.6L1763.37 966.864L1739.91 975.796L1739.67 975.182L1763.77 966.01Z" fill="#062721"/>
<path fill-rule="evenodd" clip-rule="evenodd" d="M1863.7 943.459C1860.33 943.459 1857.84 940.753 1857.84 940.753L1869.56 940.753C1869.56 940.753 1867.07 943.459 1863.7 943.459Z" fill="white"/>
<path fill-rule="evenodd" clip-rule="evenodd" d="M1861.45 923.615L1862.13 923.665L1861.25 934.85C1861.32 934.893 1861.42 934.947 1861.53 935.007C1861.82 935.154 1862.24 935.333 1862.79 935.453C1863.88 935.691 1865.47 935.699 1867.44 934.718L1867.76 935.302C1865.63 936.357 1863.88 936.365 1862.64 936.094C1862.02 935.959 1861.54 935.756 1861.21 935.586C1861.04 935.5 1860.91 935.423 1860.82 935.365C1860.78 935.337 1860.75 935.313 1860.72 935.296C1860.71 935.287 1860.7 935.28 1860.69 935.275L1860.69 935.268L1860.68 935.266L1860.68 935.265L1860.68 935.265C1860.68 935.265 1860.68 935.265 1860.9 935.01L1860.68 935.265L1860.54 935.156L1861.45 923.615Z" fill="#062721"/>
<path fill-rule="evenodd" clip-rule="evenodd" d="M1856.03 926.321C1856.53 926.321 1856.93 925.918 1856.93 925.419C1856.93 924.921 1856.53 924.517 1856.03 924.517C1855.53 924.517 1855.13 924.921 1855.13 925.419C1855.13 925.918 1855.53 926.321 1856.03 926.321Z" fill="#062721"/>
<path fill-rule="evenodd" clip-rule="evenodd" d="M1888.09 977.591C1885.91 977.493 1883.91 978.25 1882.93 979.167C1881.9 980.134 1881.23 981.526 1880.81 982.739C1880.61 983.336 1880.48 983.868 1880.4 984.25C1880.36 984.441 1880.33 984.593 1880.31 984.696C1880.3 984.741 1880.3 984.777 1880.29 984.802C1879.88 1003.97 1885.9 1013.07 1891.81 1017.41C1891.89 1017.47 1891.98 1017.53 1892.06 1017.59C1894.34 1014.08 1895.82 1009.65 1896.6 1004.95C1897.4 1000.19 1897.46 995.257 1896.95 990.957C1896.44 986.634 1895.36 983.04 1893.95 980.893C1892.44 978.597 1890.22 977.687 1888.09 977.591ZM1893.47 1018.51C1895.94 1014.71 1897.47 1009.99 1898.27 1005.21C1899.09 1000.3 1899.15 995.215 1898.63 990.768C1898.11 986.344 1896.99 982.458 1895.37 980.001C1893.52 977.189 1890.76 976.059 1888.17 975.942C1885.62 975.828 1883.14 976.687 1881.76 977.974C1880.44 979.212 1879.66 980.902 1879.21 982.219C1878.98 982.888 1878.83 983.482 1878.74 983.911C1878.7 984.126 1878.66 984.301 1878.64 984.423C1878.63 984.485 1878.62 984.533 1878.62 984.567C1878.62 984.584 1878.61 984.598 1878.61 984.608L1878.61 984.619L1878.61 984.623L1878.61 984.625C1878.61 984.625 1878.61 984.625 1879.45 984.734L1878.61 984.625L1878.6 984.671L1878.6 984.716C1878.17 1004.29 1884.32 1013.98 1890.79 1018.73C1890.9 1018.8 1891 1018.88 1891.11 1018.95C1888.83 1021.92 1885.88 1024.04 1882.17 1024.83L1882.53 1026.44C1886.76 1025.55 1890.04 1023.14 1892.51 1019.87C1895.14 1021.46 1897.69 1022.28 1899.7 1022.7C1900.92 1022.96 1901.94 1023.07 1902.66 1023.11C1903.02 1023.14 1903.31 1023.14 1903.51 1023.14C1903.61 1023.15 1903.69 1023.14 1903.75 1023.14C1903.77 1023.14 1903.8 1023.14 1903.81 1023.14L1903.83 1023.14L1903.84 1023.14L1903.84 1023.14C1903.84 1023.14 1903.84 1023.14 1903.8 1022.32C1903.76 1021.49 1903.76 1021.49 1903.76 1021.49L1903.75 1021.49C1903.74 1021.49 1903.73 1021.49 1903.71 1021.49C1903.67 1021.49 1903.6 1021.49 1903.52 1021.49C1903.35 1021.49 1903.1 1021.49 1902.77 1021.47C1902.12 1021.43 1901.18 1021.33 1900.05 1021.09C1898.21 1020.7 1895.88 1019.96 1893.47 1018.51Z" fill="white"/>
<path fill-rule="evenodd" clip-rule="evenodd" d="M1904.74 1024.64C1905.74 1024.64 1906.54 1023.63 1906.54 1022.39C1906.54 1021.14 1905.74 1020.13 1904.74 1020.13C1903.74 1020.13 1902.94 1021.14 1902.94 1022.39C1902.94 1023.63 1903.74 1024.64 1904.74 1024.64Z" fill="#062721"/>
<path fill-rule="evenodd" clip-rule="evenodd" d="M1882.19 1027.35C1883.19 1027.35 1883.99 1026.54 1883.99 1025.54C1883.99 1024.55 1883.19 1023.74 1882.19 1023.74C1881.19 1023.74 1880.39 1024.55 1880.39 1025.54C1880.39 1026.54 1881.19 1027.35 1882.19 1027.35Z" fill="#062721"/>
<path fill-rule="evenodd" clip-rule="evenodd" d="M1868.21 926.321C1868.96 926.321 1869.56 925.918 1869.56 925.419C1869.56 924.921 1868.96 924.517 1868.21 924.517C1867.46 924.517 1866.86 924.921 1866.86 925.419C1866.86 925.918 1867.46 926.321 1868.21 926.321Z" fill="#062721"/>
<path fill-rule="evenodd" clip-rule="evenodd" d="M1850.62 925.419C1850.62 922.929 1852.84 920.909 1855.58 920.909C1858.32 920.909 1860.54 922.929 1860.54 925.419C1860.54 927.91 1858.32 929.929 1855.58 929.929C1852.84 929.929 1850.62 927.91 1850.62 925.419ZM1855.58 921.611C1853.27 921.611 1851.39 923.316 1851.39 925.419C1851.39 927.523 1853.27 929.227 1855.58 929.227C1857.89 929.227 1859.77 927.523 1859.77 925.419C1859.77 923.316 1857.89 921.611 1855.58 921.611Z" fill="white"/>
<path fill-rule="evenodd" clip-rule="evenodd" d="M1864.15 925.419C1864.15 922.929 1866.17 920.909 1868.66 920.909C1871.15 920.909 1873.17 922.929 1873.17 925.419C1873.17 927.91 1871.15 929.929 1868.66 929.929C1866.17 929.929 1864.15 927.91 1864.15 925.419ZM1868.66 921.611C1866.56 921.611 1864.85 923.316 1864.85 925.419C1864.85 927.523 1866.56 929.227 1868.66 929.227C1870.76 929.227 1872.47 927.523 1872.47 925.419C1872.47 923.316 1870.76 921.611 1868.66 921.611Z" fill="white"/>
<path fill-rule="evenodd" clip-rule="evenodd" d="M1882.19 922.278L1873.31 924.517L1873.17 924.051L1882.05 921.811L1882.19 922.278Z" fill="white"/>
<path fill-rule="evenodd" clip-rule="evenodd" d="M1843.65 920.909L1851.52 924.042L1851.28 924.517L1843.4 921.385L1843.65 920.909Z" fill="white"/>
<path fill-rule="evenodd" clip-rule="evenodd" d="M1851.82 920.909C1851.82 920.909 1851.82 920.909 1851.67 920.626C1851.52 920.343 1851.52 920.343 1851.52 920.343L1851.52 920.343L1851.52 920.342L1851.53 920.34L1851.53 920.334C1851.54 920.328 1851.55 920.321 1851.57 920.311C1851.6 920.292 1851.64 920.265 1851.69 920.232C1851.79 920.165 1851.95 920.074 1852.14 919.971C1852.53 919.767 1853.08 919.519 1853.75 919.34C1855.08 918.984 1856.89 918.905 1858.74 920.038L1858.47 920.628C1856.78 919.59 1855.12 919.658 1853.87 919.99C1853.25 920.157 1852.73 920.389 1852.38 920.579C1852.2 920.674 1852.06 920.758 1851.96 920.817C1851.91 920.847 1851.88 920.871 1851.86 920.887C1851.84 920.895 1851.84 920.901 1851.83 920.905L1851.82 920.909L1851.82 920.909Z" fill="#062721"/>
<path fill-rule="evenodd" clip-rule="evenodd" d="M1866.22 920.909C1866.22 920.909 1866.22 920.909 1866.09 920.626C1865.95 920.343 1865.95 920.343 1865.95 920.343L1865.95 920.343L1865.95 920.342L1865.96 920.34L1865.96 920.334C1865.97 920.328 1865.98 920.321 1865.99 920.311C1866.02 920.292 1866.05 920.265 1866.1 920.232C1866.19 920.165 1866.33 920.074 1866.49 919.971C1866.83 919.767 1867.32 919.519 1867.9 919.34C1869.07 918.984 1870.65 918.905 1872.27 920.038L1872.04 920.628C1870.55 919.59 1869.1 919.658 1868.01 919.99C1867.47 920.157 1867.02 920.389 1866.7 920.579C1866.54 920.674 1866.42 920.758 1866.34 920.817C1866.3 920.847 1866.27 920.871 1866.25 920.887C1866.24 920.895 1866.23 920.901 1866.22 920.905L1866.22 920.909L1866.22 920.909Z" fill="#062721"/>
<path fill-rule="evenodd" clip-rule="evenodd" d="M1883.09 1047.19L1923.07 1048.32L1923.09 1048.32L1923.04 1048.65C1923.09 1048.32 1923.09 1048.32 1923.09 1048.32L1923.09 1048.32L1923.09 1048.32L1923.1 1048.32L1923.11 1048.33C1923.12 1048.33 1923.14 1048.33 1923.16 1048.33C1923.21 1048.34 1923.27 1048.36 1923.36 1048.37C1923.52 1048.41 1923.76 1048.47 1924.04 1048.56C1924.62 1048.74 1925.4 1049.04 1926.25 1049.55C1927.95 1050.56 1929.89 1052.37 1930.9 1055.54L1930.26 1055.75C1929.31 1052.76 1927.49 1051.07 1925.91 1050.13C1925.11 1049.65 1924.38 1049.37 1923.84 1049.2C1923.58 1049.12 1923.36 1049.06 1923.21 1049.03C1923.14 1049.01 1923.08 1049 1923.04 1049C1923.03 1048.99 1923.02 1048.99 1923.01 1048.99L1883.76 1047.88V1066.53C1883.78 1066.53 1883.8 1066.54 1883.82 1066.54C1884.01 1066.6 1884.3 1066.69 1884.67 1066.8C1885.41 1067.02 1886.5 1067.33 1887.86 1067.69C1890.59 1068.4 1894.43 1069.31 1898.9 1070.09C1907.84 1071.65 1919.23 1072.69 1929.13 1070.61L1929.27 1071.27C1919.24 1073.37 1907.75 1072.32 1898.78 1070.75C1894.3 1069.97 1890.43 1069.05 1887.69 1068.34C1886.32 1067.98 1885.23 1067.67 1884.48 1067.44C1884.11 1067.33 1883.82 1067.25 1883.62 1067.19C1883.53 1067.15 1883.45 1067.13 1883.4 1067.12L1883.34 1067.1L1883.33 1067.09L1883.32 1067.09C1883.32 1067.09 1883.32 1067.09 1883.43 1066.77L1883.32 1067.09L1883.09 1067.02V1047.19Z" fill="#062721"/>
<path fill-rule="evenodd" clip-rule="evenodd" d="M1908.54 1048.99L1906.54 1003.92L1907.25 1003.89L1909.25 1048.97L1908.54 1048.99Z" fill="#062721"/>
<path d="M1831.68 845.141H1892.11V849.886C1892.11 852.745 1889.61 855.063 1886.53 855.063H1837.26C1834.18 855.063 1831.68 852.745 1831.68 849.886V845.141Z" fill="#1C154A"/>
<path fill-rule="evenodd" clip-rule="evenodd" d="M1828.97 914.646V895.755C1828.97 892.71 1826.47 890.241 1823.38 890.241H1775.93C1772.84 890.241 1770.34 892.71 1770.34 895.755V910.326C1770.34 913.372 1772.84 915.841 1775.93 915.841H1818.63L1828.97 925.419V914.646Z" fill="#49B7D7"/>
<path fill-rule="evenodd" clip-rule="evenodd" d="M1788.38 904.673C1789.38 904.673 1790.19 903.865 1790.19 902.869C1790.19 901.873 1789.38 901.065 1788.38 901.065C1787.39 901.065 1786.58 901.873 1786.58 902.869C1786.58 903.865 1787.39 904.673 1788.38 904.673Z" fill="white"/>
<path fill-rule="evenodd" clip-rule="evenodd" d="M1798.3 904.673C1799.3 904.673 1800.11 903.865 1800.11 902.869C1800.11 901.873 1799.3 901.065 1798.3 901.065C1797.31 901.065 1796.5 901.873 1796.5 902.869C1796.5 903.865 1797.31 904.673 1798.3 904.673Z" fill="white"/>
<path fill-rule="evenodd" clip-rule="evenodd" d="M1807.32 904.673C1808.32 904.673 1809.13 903.865 1809.13 902.869C1809.13 901.873 1808.32 901.065 1807.32 901.065C1806.33 901.065 1805.52 901.873 1805.52 902.869C1805.52 903.865 1806.33 904.673 1807.32 904.673Z" fill="white"/>
<g opacity="0.4">
<path fill-rule="evenodd" clip-rule="evenodd" d="M1786.14 17.7362C1786.14 5.87333 1795.65 -3.77051 1807.47 -3.99608C1819.67 -4.22941 1829.65 5.9777 1829.65 18.1658V34.0716H1822.44V17.7362C1822.44 9.69679 1815.9 3.15615 1807.85 3.15615C1799.8 3.15615 1793.26 9.69679 1793.26 17.7362L1793.26 17.8259L1793.19 34.0716H1785.98L1786.14 17.7362Z" fill="#E5EEF4"/>
<path fill-rule="evenodd" clip-rule="evenodd" d="M1805.28 54.8131C1803.04 53.8379 1801.47 51.6046 1801.47 49.0043C1801.47 45.3465 1804.57 42.4132 1808.29 42.6893C1811.34 42.9153 1813.82 45.3362 1814.11 48.3751C1814.39 51.2402 1812.75 53.7598 1810.33 54.8131L1813.28 70.7224C1813.37 71.2503 1812.97 71.7372 1812.43 71.7372H1803.18C1802.64 71.7372 1802.24 71.2503 1802.33 70.7224L1805.28 54.8131Z" fill="#030091"/>
<path fill-rule="evenodd" clip-rule="evenodd" d="M1805.28 54.8131C1803.04 53.8379 1801.47 51.6046 1801.47 49.0043C1801.47 45.3465 1804.57 42.4132 1808.29 42.6893C1811.34 42.9153 1813.82 45.3362 1814.11 48.3751C1814.39 51.2402 1812.75 53.7598 1810.33 54.8131L1813.28 70.7224C1813.37 71.2503 1812.97 71.7372 1812.43 71.7372H1803.18C1802.64 71.7372 1802.24 71.2503 1802.33 70.7224L1805.28 54.8131Z" fill="#D4E3ED"/>
<path fill-rule="evenodd" clip-rule="evenodd" d="M1805.29 54.8131C1803.05 53.8379 1801.48 51.6047 1801.48 49.0044C1801.48 45.3465 1804.58 42.4133 1808.3 42.6893C1811.35 42.9153 1813.83 45.3362 1814.12 48.3751C1814.4 51.2402 1812.76 53.7599 1810.34 54.8131L1813.29 70.7224C1813.39 71.2503 1812.98 71.7373 1812.44 71.7373H1803.19C1802.65 71.7373 1802.25 71.2503 1802.34 70.7224L1805.29 54.8131ZM1780 34.9301V68.7319C1780 74.3776 1784.58 78.9545 1790.23 78.9545H1825.4C1831.05 78.9545 1835.63 74.3776 1835.63 68.7319V34.9301C1835.63 34.4557 1835.25 34.0714 1834.77 34.0714H1829.65H1822.44H1793.19H1785.98H1780.86C1780.38 34.0714 1780 34.4557 1780 34.9301Z" fill="#EFF5F9"/>
<path fill-rule="evenodd" clip-rule="evenodd" d="M1785.98 34.0716H1793.19L1793.22 27.7656L1785.98 34.0716Z" fill="#D4E3ED"/>
<path fill-rule="evenodd" clip-rule="evenodd" d="M1822.72 2.04639L1817.37 6.70959C1820.47 9.38536 1822.44 13.3313 1822.44 17.7362V34.0716H1829.65V18.1657C1829.65 11.8709 1826.97 6.11914 1822.72 2.04639Z" fill="#D4E3ED"/>
<path fill-rule="evenodd" clip-rule="evenodd" d="M1854.44 159H1750.21C1747.42 159 1745.16 156.74 1745.16 153.952V92.171C1745.16 89.3827 1747.42 87.1227 1750.21 87.1227H1854.44C1857.23 87.1227 1859.5 89.3827 1859.5 92.171V153.952C1859.5 156.74 1857.23 159 1854.44 159Z" fill="#EFF5F9"/>
<mask id="mask10" mask-type="alpha" maskUnits="userSpaceOnUse" x="1634" y="-100" width="518" height="259">
<path fill-rule="evenodd" clip-rule="evenodd" d="M1634 159H2152V-100H1634V159Z" fill="white"/>
</mask>
<g mask="url(#mask10)">
<path fill-rule="evenodd" clip-rule="evenodd" d="M1745.16 116.121H1859.5V103.034H1745.16V116.121Z" fill="#D4E3ED"/>
<path fill-rule="evenodd" clip-rule="evenodd" d="M1778.88 148.382H1762.85C1760.76 148.382 1759.07 146.688 1759.07 144.598V135.963C1759.07 133.873 1760.76 132.179 1762.85 132.179H1778.88C1780.97 132.179 1782.67 133.873 1782.67 135.963V144.598C1782.67 146.688 1780.97 148.382 1778.88 148.382Z" fill="#E5EEF4"/>
<path fill-rule="evenodd" clip-rule="evenodd" d="M1808.73 138.106H1845.35V135.899H1808.73V138.106Z" fill="#D4E3ED"/>
<path fill-rule="evenodd" clip-rule="evenodd" d="M1808.73 144.663H1827.04V142.457H1808.73V144.663Z" fill="#D4E3ED"/>
<path fill-rule="evenodd" clip-rule="evenodd" d="M1895.72 -6.67957H1890.28L1891.04 -3.13774C1865.36 15.0057 1827.89 22.3434 1827.89 22.3434V67.1083C1827.89 124.003 1878.04 150.826 1892.1 157.226L1890.28 158.77H1895.72C1895.72 158.77 1963.56 133.275 1963.56 67.1083V22.3434C1963.56 22.3434 1921.25 14.056 1895.72 -6.67957Z" fill="#570A5C"/>
<path fill-rule="evenodd" clip-rule="evenodd" d="M1890.28 -6.67957C1864.75 14.056 1822.44 22.3434 1822.44 22.3434V67.1083C1822.44 133.275 1890.28 158.77 1890.28 158.77C1890.28 158.77 1958.11 133.275 1958.11 67.1083V22.3434C1958.11 22.3434 1915.8 14.056 1890.28 -6.67957Z" fill="#83248A"/>
<path fill-rule="evenodd" clip-rule="evenodd" d="M1830.13 103.477C1847.89 142.838 1890.28 158.77 1890.28 158.77C1890.28 158.77 1958.11 133.275 1958.11 67.1086V22.3432C1958.11 22.3432 1937.17 18.2416 1915.86 8.58911L1830.13 103.477Z" fill="#6E1C74"/>
<path fill-rule="evenodd" clip-rule="evenodd" d="M1890.31 139.614C1884.6 136.715 1875.71 131.55 1867 123.87C1849.02 108.024 1839.91 88.9278 1839.91 67.1089V35.9946C1853.01 32.3087 1873.01 25.5067 1890.28 14.6888C1907.54 25.5067 1927.54 32.3087 1940.65 35.9946V67.1089C1940.65 109.799 1904.98 132.206 1890.31 139.614Z" fill="#F6F9FC"/>
<path fill-rule="evenodd" clip-rule="evenodd" d="M1867 123.862C1875.71 131.542 1884.6 136.707 1890.31 139.606C1904.98 132.198 1940.65 109.791 1940.65 67.1008V35.9865C1930.83 33.2266 1917.16 28.72 1903.66 22.0887L1843.24 88.9564C1847.36 101.87 1855.3 113.555 1867 123.862Z" fill="white"/>
<path fill-rule="evenodd" clip-rule="evenodd" d="M1870.64 123.87C1852.67 108.025 1843.55 88.928 1843.55 67.1086V35.9948C1856.2 32.437 1875.26 25.9658 1892.1 15.7944C1891.49 15.427 1890.88 15.066 1890.28 14.6886C1873.01 25.5069 1853.01 32.3084 1839.91 35.9948V67.1086C1839.91 88.928 1849.02 108.025 1867 123.87C1875.71 131.55 1884.6 136.715 1890.31 139.613C1890.89 139.323 1891.5 139.001 1892.14 138.664C1886.46 135.645 1878.49 130.786 1870.64 123.87Z" fill="#D4E3ED"/>
<path fill-rule="evenodd" clip-rule="evenodd" d="M1886.02 93.0001L1866.72 75.1788L1873.05 68.3376L1885.13 79.4901L1909.6 50.041L1916.77 55.9916L1886.02 93.0001Z" fill="#005FFF"/>
</g>
</g>
<rect width="1921" height="1091" fill="#515151" fill-opacity="0.2"/>
</g>
<defs>
<filter id="filter0_d" x="147.042" y="765.351" width="44.125" height="44.1396" filterUnits="userSpaceOnUse" color-interpolation-filters="sRGB">
<feFlood flood-opacity="0" result="BackgroundImageFix"/>
<feColorMatrix in="SourceAlpha" type="matrix" values="0 0 0 0 0 0 0 0 0 0 0 0 0 0 0 0 0 0 127 0"/>
<feOffset dx="-3" dy="3"/>
<feGaussianBlur stdDeviation="4"/>
<feColorMatrix type="matrix" values="0 0 0 0 0.100372 0 0 0 0 0.387639 0 0 0 0 0.687217 0 0 0 0.360741 0"/>
<feBlend mode="normal" in2="BackgroundImageFix" result="effect1_dropShadow"/>
<feBlend mode="normal" in="SourceGraphic" in2="effect1_dropShadow" result="shape"/>
</filter>
<filter id="filter1_d" x="1666.22" y="913.693" width="22.4321" height="22.4321" filterUnits="userSpaceOnUse" color-interpolation-filters="sRGB">
<feFlood flood-opacity="0" result="BackgroundImageFix"/>
<feColorMatrix in="SourceAlpha" type="matrix" values="0 0 0 0 0 0 0 0 0 0 0 0 0 0 0 0 0 0 127 0"/>
<feOffset dy="4"/>
<feGaussianBlur stdDeviation="2"/>
<feColorMatrix type="matrix" values="0 0 0 0 0.227451 0 0 0 0 0.670588 0 0 0 0 0.8 0 0 0 0.15 0"/>
<feBlend mode="normal" in2="BackgroundImageFix" result="effect1_dropShadow"/>
<feBlend mode="normal" in="SourceGraphic" in2="effect1_dropShadow" result="shape"/>
</filter>
<filter id="filter2_d" x="1675.24" y="901.967" width="18.8241" height="18.8241" filterUnits="userSpaceOnUse" color-interpolation-filters="sRGB">
<feFlood flood-opacity="0" result="BackgroundImageFix"/>
<feColorMatrix in="SourceAlpha" type="matrix" values="0 0 0 0 0 0 0 0 0 0 0 0 0 0 0 0 0 0 127 0"/>
<feOffset dy="4"/>
<feGaussianBlur stdDeviation="2"/>
<feColorMatrix type="matrix" values="0 0 0 0 0.227451 0 0 0 0 0.670588 0 0 0 0 0.8 0 0 0 0.15 0"/>
<feBlend mode="normal" in2="BackgroundImageFix" result="effect1_dropShadow"/>
<feBlend mode="normal" in="SourceGraphic" in2="effect1_dropShadow" result="shape"/>
</filter>
<filter id="filter3_d" x="1685.16" y="915.497" width="16.1181" height="17.0201" filterUnits="userSpaceOnUse" color-interpolation-filters="sRGB">
<feFlood flood-opacity="0" result="BackgroundImageFix"/>
<feColorMatrix in="SourceAlpha" type="matrix" values="0 0 0 0 0 0 0 0 0 0 0 0 0 0 0 0 0 0 127 0"/>
<feOffset dy="4"/>
<feGaussianBlur stdDeviation="2"/>
<feColorMatrix type="matrix" values="0 0 0 0 0.227451 0 0 0 0 0.670588 0 0 0 0 0.8 0 0 0 0.15 0"/>
<feBlend mode="normal" in2="BackgroundImageFix" result="effect1_dropShadow"/>
<feBlend mode="normal" in="SourceGraphic" in2="effect1_dropShadow" result="shape"/>
</filter>
<filter id="filter4_d" x="1702.87" y="921.507" width="20.7862" height="23.9052" filterUnits="userSpaceOnUse" color-interpolation-filters="sRGB">
<feFlood flood-opacity="0" result="BackgroundImageFix"/>
<feColorMatrix in="SourceAlpha" type="matrix" values="0 0 0 0 0 0 0 0 0 0 0 0 0 0 0 0 0 0 127 0"/>
<feOffset dy="4"/>
<feGaussianBlur stdDeviation="2"/>
<feColorMatrix type="matrix" values="0 0 0 0 0.227451 0 0 0 0 0.670588 0 0 0 0 0.8 0 0 0 0.34 0"/>
<feBlend mode="normal" in2="BackgroundImageFix" result="effect1_dropShadow"/>
<feBlend mode="normal" in="SourceGraphic" in2="effect1_dropShadow" result="shape"/>
</filter>
<filter id="filter5_d" x="1738.29" y="907.337" width="23.9577" height="19.64" filterUnits="userSpaceOnUse" color-interpolation-filters="sRGB">
<feFlood flood-opacity="0" result="BackgroundImageFix"/>
<feColorMatrix in="SourceAlpha" type="matrix" values="0 0 0 0 0 0 0 0 0 0 0 0 0 0 0 0 0 0 127 0"/>
<feOffset dy="4"/>
<feGaussianBlur stdDeviation="2"/>
<feColorMatrix type="matrix" values="0 0 0 0 0.227451 0 0 0 0 0.670588 0 0 0 0 0.8 0 0 0 0.18 0"/>
<feBlend mode="normal" in2="BackgroundImageFix" result="effect1_dropShadow"/>
<feBlend mode="normal" in="SourceGraphic" in2="effect1_dropShadow" result="shape"/>
</filter>
<linearGradient id="paint0_linear" x1="114.613" y1="-30.8852" x2="152.177" y2="158.659" gradientUnits="userSpaceOnUse">
<stop stop-color="#FF90B1" stop-opacity="0.2"/>
<stop offset="1" stop-color="#96ADFF"/>
</linearGradient>
<linearGradient id="paint1_linear" x1="114.613" y1="-30.8851" x2="152.177" y2="158.659" gradientUnits="userSpaceOnUse">
<stop stop-color="#FF90B1" stop-opacity="0.2"/>
<stop offset="1" stop-color="#96ADFF"/>
</linearGradient>
<linearGradient id="paint2_linear" x1="1337.61" y1="964.87" x2="1384.76" y2="1176.14" gradientUnits="userSpaceOnUse">
<stop stop-color="#FF90B1" stop-opacity="0.2"/>
<stop offset="1" stop-color="#96ADFF"/>
</linearGradient>
<linearGradient id="paint3_linear" x1="1337.61" y1="964.87" x2="1384.76" y2="1176.14" gradientUnits="userSpaceOnUse">
<stop stop-color="#FF90B1" stop-opacity="0.2"/>
<stop offset="1" stop-color="#96ADFF"/>
</linearGradient>
<linearGradient id="paint4_linear" x1="126.613" y1="953.115" x2="164.177" y2="1142.66" gradientUnits="userSpaceOnUse">
<stop stop-color="#FF90B1" stop-opacity="0.2"/>
<stop offset="1" stop-color="#96ADFF"/>
</linearGradient>
<linearGradient id="paint5_linear" x1="126.613" y1="953.115" x2="164.177" y2="1142.66" gradientUnits="userSpaceOnUse">
<stop stop-color="#FF90B1" stop-opacity="0.2"/>
<stop offset="1" stop-color="#96ADFF"/>
</linearGradient>
<clipPath id="clip0">
<rect width="1920" height="1080" fill="white"/>
</clipPath>
</defs>
</svg>
