<svg width="25" height="25" viewBox="0 0 25 25" fill="none" xmlns="http://www.w3.org/2000/svg">
<path fill-rule="evenodd" clip-rule="evenodd" d="M10.4167 13.5417H3.12504C2.54974 13.5417 2.08337 14.0081 2.08337 14.5834V21.875C2.08337 22.4503 2.54974 22.9167 3.12504 22.9167H10.4167C10.992 22.9167 11.4584 22.4503 11.4584 21.875V14.5834C11.4584 14.0081 10.992 13.5417 10.4167 13.5417ZM9.37504 20.8334H4.16671V15.625H9.37504V20.8334ZM21.875 2.08337H14.5834C14.0081 2.08337 13.5417 2.54974 13.5417 3.12504V10.4167C13.5417 10.992 14.0081 11.4584 14.5834 11.4584H21.875C22.4503 11.4584 22.9167 10.992 22.9167 10.4167V3.12504C22.9167 2.54974 22.4503 2.08337 21.875 2.08337ZM20.8334 9.37504H15.625V4.16671H20.8334V9.37504ZM21.875 13.5417H14.5834C14.0081 13.5417 13.5417 14.0081 13.5417 14.5834V21.875C13.5417 22.4503 14.0081 22.9167 14.5834 22.9167H21.875C22.4503 22.9167 22.9167 22.4503 22.9167 21.875V14.5834C22.9167 14.0081 22.4503 13.5417 21.875 13.5417ZM20.8334 20.8334H15.625V15.625H20.8334V20.8334ZM10.4167 2.08337H3.12504C2.54974 2.08337 2.08337 2.54974 2.08337 3.12504V10.4167C2.08337 10.992 2.54974 11.4584 3.12504 11.4584H10.4167C10.992 11.4584 11.4584 10.992 11.4584 10.4167V3.12504C11.4584 2.54974 10.992 2.08337 10.4167 2.08337ZM9.37504 9.37504H4.16671V4.16671H9.37504V9.37504Z" fill="white"/>
</svg>
