<svg width="117" height="106" viewBox="0 0 117 106" fill="none" xmlns="http://www.w3.org/2000/svg">
<path d="M9.58561 24.0887C-4.71984 47.6746 2.71567 78.3581 26.1933 92.6221C49.6709 106.886 80.3001 99.3292 94.6056 75.7432C108.911 52.1572 101.476 21.4738 77.9979 7.20978C54.5203 -7.05423 23.8911 0.5027 9.58561 24.0887Z" fill="white"/>
<path d="M9.58561 24.0887C-4.71984 47.6746 2.71567 78.3581 26.1933 92.6221C49.6709 106.886 80.3001 99.3292 94.6056 75.7432C108.911 52.1572 101.476 21.4738 77.9979 7.20978C54.5203 -7.05423 23.8911 0.502698 9.58561 24.0887Z" fill="#E7EEFF"/>
<path d="M79.148 99.7704C105.468 88.933 130.525 39.6386 108.64 19.2976C86.7553 -1.04341 69.0257 23.9146 44.5905 18.7218C20.1552 13.529 -3.35311 32.7949 0.395718 65.4068C4.14454 98.0187 52.8279 110.608 79.148 99.7704Z" fill="white"/>
<path d="M79.148 99.7704C105.468 88.933 130.525 39.6386 108.64 19.2976C86.7553 -1.04341 69.0257 23.9146 44.5905 18.7218C20.1552 13.529 -3.35311 32.7949 0.395718 65.4068C4.14454 98.0187 52.8279 110.608 79.148 99.7704Z" fill="#F4F7FF"/>
<g filter="url(#filter0_d)">
<path fill-rule="evenodd" clip-rule="evenodd" d="M8.14551 36.5992C9.75868 36.5992 11.0664 35.2904 11.0664 33.6758C11.0664 32.0613 9.75868 30.7524 8.14551 30.7524C6.53234 30.7524 5.22461 32.0613 5.22461 33.6758C5.22461 35.2904 6.53234 36.5992 8.14551 36.5992Z" fill="#F1E59D"/>
<path fill-rule="evenodd" clip-rule="evenodd" d="M7.96295 36.2338C9.4753 36.2338 10.7013 35.0068 10.7013 33.4931C10.7013 31.9795 9.4753 30.7524 7.96295 30.7524C6.45061 30.7524 5.22461 31.9795 5.22461 33.4931C5.22461 35.0068 6.45061 36.2338 7.96295 36.2338Z" fill="#FFF6BF"/>
<mask id="mask0" mask-type="alpha" maskUnits="userSpaceOnUse" x="5" y="30" width="6" height="7">
<path fill-rule="evenodd" clip-rule="evenodd" d="M7.96295 36.2338C9.4753 36.2338 10.7013 35.0068 10.7013 33.4931C10.7013 31.9795 9.4753 30.7524 7.96295 30.7524C6.45061 30.7524 5.22461 31.9795 5.22461 33.4931C5.22461 35.0068 6.45061 36.2338 7.96295 36.2338Z" fill="white"/>
</mask>
<g mask="url(#mask0)">
</g>
<path fill-rule="evenodd" clip-rule="evenodd" d="M10.3363 33.6756H5.58984V33.3104H10.3363V33.6756Z" fill="#F1E59D"/>
</g>
<g filter="url(#filter1_d)">
<path fill-rule="evenodd" clip-rule="evenodd" d="M11.0667 30.387C12.2765 30.387 13.2573 29.4054 13.2573 28.1945C13.2573 26.9836 12.2765 26.002 11.0667 26.002C9.85678 26.002 8.87598 26.9836 8.87598 28.1945C8.87598 29.4054 9.85678 30.387 11.0667 30.387Z" fill="#DBDBDB"/>
<path fill-rule="evenodd" clip-rule="evenodd" d="M11.0667 30.387C12.2765 30.387 13.2573 29.4054 13.2573 28.1945C13.2573 26.9836 12.2765 26.002 11.0667 26.002C9.85678 26.002 8.87598 26.9836 8.87598 28.1945C8.87598 29.4054 9.85678 30.387 11.0667 30.387Z" fill="#F1F1F1"/>
<mask id="mask1" mask-type="alpha" maskUnits="userSpaceOnUse" x="8" y="26" width="6" height="5">
<path fill-rule="evenodd" clip-rule="evenodd" d="M11.0667 30.387C12.2765 30.387 13.2573 29.4054 13.2573 28.1945C13.2573 26.9836 12.2765 26.002 11.0667 26.002C9.85678 26.002 8.87598 26.9836 8.87598 28.1945C8.87598 29.4054 9.85678 30.387 11.0667 30.387Z" fill="white"/>
</mask>
<g mask="url(#mask1)">
</g>
<path fill-rule="evenodd" clip-rule="evenodd" d="M12.8918 28.1943H9.24072V27.8291H12.8918V28.1943Z" fill="#DBDBDB"/>
</g>
<g filter="url(#filter2_d)">
<path fill-rule="evenodd" clip-rule="evenodd" d="M14.5351 35.1376C15.4425 35.1376 16.1781 34.3196 16.1781 33.3105C16.1781 32.3014 15.4425 31.4834 14.5351 31.4834C13.6277 31.4834 12.8921 32.3014 12.8921 33.3105C12.8921 34.3196 13.6277 35.1376 14.5351 35.1376Z" fill="#FFB2A7"/>
<path fill-rule="evenodd" clip-rule="evenodd" d="M14.5351 34.7722C15.4425 34.7722 16.1781 34.036 16.1781 33.1278C16.1781 32.2196 15.4425 31.4834 14.5351 31.4834C13.6277 31.4834 12.8921 32.2196 12.8921 33.1278C12.8921 34.036 13.6277 34.7722 14.5351 34.7722Z" fill="#FFCCC4"/>
<mask id="mask2" mask-type="alpha" maskUnits="userSpaceOnUse" x="12" y="31" width="5" height="4">
<path fill-rule="evenodd" clip-rule="evenodd" d="M14.5351 34.7722C15.4425 34.7722 16.1781 34.036 16.1781 33.1278C16.1781 32.2196 15.4425 31.4834 14.5351 31.4834C13.6277 31.4834 12.8921 32.2196 12.8921 33.1278C12.8921 34.036 13.6277 34.7722 14.5351 34.7722Z" fill="white"/>
</mask>
<g mask="url(#mask2)">
</g>
</g>
<g filter="url(#filter3_d)">
<path d="M23.1018 39.5927C22.6524 40.3502 21.6555 40.5883 20.8752 40.1246C20.0948 39.6609 19.8266 38.6709 20.2759 37.9134L22.1905 34.6862C22.6398 33.9288 23.6367 33.6906 24.417 34.1543C25.1974 34.6181 25.4657 35.608 25.0163 36.3655L23.1018 39.5927Z" fill="white"/>
<mask id="mask3" mask-type="alpha" maskUnits="userSpaceOnUse" x="20" y="33" width="6" height="8">
<path d="M23.1018 39.5927C22.6524 40.3502 21.6555 40.5883 20.8752 40.1246C20.0948 39.6609 19.8266 38.6709 20.2759 37.9134L22.1905 34.6862C22.6398 33.9288 23.6367 33.6906 24.417 34.1543C25.1974 34.6181 25.4657 35.608 25.0163 36.3655L23.1018 39.5927Z" fill="white"/>
</mask>
<g mask="url(#mask3)">
<path d="M24.1523 37.822L21.3265 36.1427L23.0042 33.3147L25.8301 34.994L24.1523 37.822Z" fill="#FF6600"/>
<path opacity="0.0953265" d="M22.6021 41.1508L20.0902 39.6581L23.6321 33.6878L26.1439 35.1805L22.6021 41.1508Z" fill="white"/>
<path opacity="0.1" d="M22.9186 38.47C22.8414 38.6002 22.7085 38.6639 22.6218 38.6124C22.5351 38.5609 22.5274 38.4136 22.6046 38.2834L23.8163 36.241C23.8935 36.1108 24.0264 36.0471 24.1131 36.0986C24.1998 36.1501 24.2075 36.2974 24.1303 36.4276L22.9186 38.47Z" fill="white"/>
</g>
</g>
<g filter="url(#filter4_d)">
<path d="M39.9638 30.1052C40.7445 30.5119 41.0755 31.4222 40.7031 32.1382C40.3307 32.8543 39.3959 33.1051 38.6152 32.6983L35.289 30.9654C34.5083 30.5587 34.1773 29.6485 34.5497 28.9324C34.9221 28.2163 35.857 27.9656 36.6377 28.3723L39.9638 30.1052Z" fill="white"/>
<mask id="mask4" mask-type="alpha" maskUnits="userSpaceOnUse" x="34" y="28" width="7" height="5">
<path d="M39.9638 30.1052C40.7445 30.5119 41.0755 31.4222 40.7031 32.1382C40.3307 32.8543 39.3959 33.1051 38.6152 32.6983L35.289 30.9654C34.5083 30.5587 34.1773 29.6485 34.5497 28.9324C34.9221 28.2163 35.857 27.9656 36.6377 28.3723L39.9638 30.1052Z" fill="white"/>
</mask>
<g mask="url(#mask4)">
<path d="M38.6313 28.999L36.9455 32.2404L33.7069 30.5531L35.3927 27.3118L38.6313 28.999Z" fill="#64A3E5"/>
<path opacity="0.0953265" d="M41.7144 30.1937L40.1971 33.111L34.0437 29.9052L35.561 26.9879L41.7144 30.1937Z" fill="white"/>
<path opacity="0.1" d="M39.0232 30.0268C39.1574 30.0967 39.1906 30.2984 39.0975 30.4775C39.0044 30.6565 38.8202 30.745 38.686 30.6751L36.5806 29.5782C36.4465 29.5083 36.4132 29.3065 36.5063 29.1275C36.5994 28.9485 36.7836 28.86 36.9178 28.9299L39.0232 30.0268Z" fill="white"/>
</g>
</g>
<path d="M57.0708 9.19252C57.0708 4.75252 60.6492 1.1532 65.0634 1.1532H100.194C104.608 1.1532 108.187 4.75252 108.187 9.19252V97.625C108.187 102.065 104.608 105.664 100.194 105.664H65.0634C60.6492 105.664 57.0708 102.065 57.0708 97.625V9.19252Z" fill="#1C154A"/>
<path d="M59.6265 11.3083C59.6265 7.31438 62.8536 4.07666 66.8344 4.07666H98.4227C102.404 4.07666 105.631 7.31438 105.631 11.3083V95.5094C105.631 99.5033 102.404 102.741 98.4227 102.741H66.8344C62.8536 102.741 59.6265 99.5033 59.6265 95.5094V11.3083Z" fill="#EFECFF"/>
<mask id="mask5" mask-type="alpha" maskUnits="userSpaceOnUse" x="59" y="4" width="47" height="99">
<path d="M59.6265 11.3083C59.6265 7.31438 62.8536 4.07666 66.8344 4.07666H98.4227C102.404 4.07666 105.631 7.31438 105.631 11.3083V95.5094C105.631 99.5033 102.404 102.741 98.4227 102.741H66.8344C62.8536 102.741 59.6265 99.5033 59.6265 95.5094V11.3083Z" fill="white"/>
</mask>
<g mask="url(#mask5)">
<path opacity="0.5" d="M64.373 17.3054C64.373 15.2466 66.0401 13.5776 68.0965 13.5776H98.2562C100.313 13.5776 101.98 15.2466 101.98 17.3054V65.3942C101.98 67.453 100.313 69.122 98.2562 69.122H68.0965C66.0401 69.122 64.373 67.453 64.373 65.3942V17.3054Z" fill="white"/>
<path fill-rule="evenodd" clip-rule="evenodd" d="M74.705 33.9614C74.705 33.9614 73.6373 28.152 74.705 27.3222C74.705 27.3222 77.8202 21.3876 84.0945 22.4826C90.3689 23.5776 93.0363 26.7459 91.8437 33.7495C90.6512 40.753 76.1858 37.118 76.1858 37.118L74.705 33.9614Z" fill="#062721"/>
<path fill-rule="evenodd" clip-rule="evenodd" d="M102.129 94.9548C102.129 94.9548 112.46 95.5446 113.772 91.1848C115.084 86.825 111.112 69.0434 107.336 59.3102C103.559 49.577 89.2591 47.1965 89.2591 47.1965L77.6769 47.7147C77.6769 47.7147 63.2889 50.9063 60.5544 55.5607C57.8199 60.215 50.0199 71.5571 50.0199 71.5571L43.0018 51.8533L33.3379 55.5607C33.3379 55.5607 41.1857 89.7755 47.5744 90.7622C53.963 91.7489 64.0836 79.9557 64.0836 79.9557V110.415H102.129V94.9548Z" fill="#6E1C74"/>
<mask id="mask6" mask-type="alpha" maskUnits="userSpaceOnUse" x="33" y="47" width="82" height="64">
<path fill-rule="evenodd" clip-rule="evenodd" d="M102.129 94.9548C102.129 94.9548 112.46 95.5446 113.772 91.1848C115.084 86.825 111.112 69.0434 107.336 59.3102C103.559 49.577 89.2591 47.1965 89.2591 47.1965L77.6769 47.7147C77.6769 47.7147 63.2889 50.9063 60.5544 55.5607C57.8199 60.215 50.0199 71.5571 50.0199 71.5571L43.0018 51.8533L33.3379 55.5607C33.3379 55.5607 41.1857 89.7755 47.5744 90.7622C53.963 91.7489 64.0836 79.9557 64.0836 79.9557V110.415H102.129V94.9548Z" fill="white"/>
</mask>
<g mask="url(#mask6)">
<path fill-rule="evenodd" clip-rule="evenodd" d="M76.7861 47.7113L82.4026 74.6033L88.4697 47.1965L76.7861 47.7113Z" fill="white"/>
<path fill-rule="evenodd" clip-rule="evenodd" d="M76.8194 47.5618L77.0599 47.6836L71.3352 58.8654L76.972 60.4035L73.1539 63.4556L82.6279 79.2158L82.3962 79.3536L72.8016 63.3928L76.391 60.5234L70.9443 59.0372L76.8194 47.5618Z" fill="#062721"/>
<path fill-rule="evenodd" clip-rule="evenodd" d="M88.7963 47.1965L88.5555 47.3181L94.2855 58.4719L88.6436 60.0062L92.4664 63.0516L82.9932 79.2193L83.2268 79.3538L92.8167 62.987L89.225 60.1258L94.6768 58.6433L88.7963 47.1965Z" fill="#062721"/>
<path fill-rule="evenodd" clip-rule="evenodd" d="M93.5811 56.2788C93.5811 56.2789 93.5811 56.279 93.1208 56.3055C92.6605 56.3321 92.6605 56.3321 92.6605 56.3321L92.6605 56.3316L92.6603 56.3294L92.6597 56.3196C92.6591 56.3106 92.6582 56.297 92.6569 56.2788C92.6543 56.2425 92.6503 56.1881 92.6445 56.1172C92.6329 55.9753 92.6144 55.7671 92.5869 55.5048C92.5317 54.9798 92.4403 54.2387 92.2955 53.3768C92.005 51.6478 91.5032 49.4551 90.6602 47.5484L91.5078 47.1965C92.3933 49.1993 92.9099 51.4731 93.2057 53.2332C93.354 54.1159 93.4477 54.8751 93.5043 55.4143C93.5327 55.6839 93.5518 55.8988 93.5638 56.0469C93.5699 56.121 93.5741 56.1783 93.5769 56.2175C93.5783 56.2371 93.5793 56.2521 93.58 56.2625L93.5808 56.2744L93.5811 56.2788Z" fill="white"/>
<path fill-rule="evenodd" clip-rule="evenodd" d="M75.4348 47.1965C75.4352 47.1964 75.4356 47.1963 75.5621 47.6282C75.6885 48.0601 75.6889 48.06 75.6892 48.0599L75.6898 48.0597L75.6906 48.0595L75.6857 48.0611C75.6798 48.0629 75.6693 48.0664 75.6543 48.0717C75.6244 48.0824 75.5767 48.1003 75.5139 48.1272C75.3883 48.1809 75.2022 48.2704 74.9755 48.4088C74.5226 48.6852 73.9058 49.1579 73.2838 49.9346C72.0443 51.4826 70.7516 54.2799 70.7516 59.2376V71.6799C70.7516 71.6799 70.7516 71.6799 70.3004 71.6799C69.8491 71.6799 69.8491 71.6799 69.8491 71.6799V59.2376C69.8491 54.1179 71.1873 51.1105 72.5786 49.3731C73.272 48.5072 73.9707 47.967 74.5043 47.6413C74.7709 47.4786 74.9958 47.3696 75.158 47.3003C75.2391 47.2656 75.3045 47.2407 75.3516 47.224C75.3752 47.2156 75.3942 47.2093 75.4083 47.2047C75.4153 47.2025 75.4211 47.2007 75.4257 47.1993L75.4316 47.1975L75.4338 47.1968L75.4348 47.1965ZM75.6908 48.0594C75.691 48.0594 75.691 48.0594 75.6906 48.0595L75.6908 48.0594Z" fill="white"/>
<path fill-rule="evenodd" clip-rule="evenodd" d="M70.2141 73.8725C71.424 73.8725 72.4048 72.809 72.4048 71.4972C72.4048 70.1854 71.424 69.1219 70.2141 69.1219C69.0042 69.1219 68.0234 70.1854 68.0234 71.4972C68.0234 72.809 69.0042 73.8725 70.2141 73.8725Z" fill="white"/>
</g>
<path d="M76.0562 72.0454H91.756V94.3362H76.0562V72.0454Z" fill="#F9F8F8"/>
<path fill-rule="evenodd" clip-rule="evenodd" d="M89.5652 75.3339H78.6118V74.9688H89.5652V75.3339Z" fill="#062721"/>
<path fill-rule="evenodd" clip-rule="evenodd" d="M86.6443 78.2573H78.6118V77.8921H86.6443V78.2573Z" fill="#062721"/>
<path fill-rule="evenodd" clip-rule="evenodd" d="M89.5652 80.8152H78.6118V80.4501H89.5652V80.8152Z" fill="#062721"/>
<path fill-rule="evenodd" clip-rule="evenodd" d="M86.6443 83.7387H78.6118V83.3735H86.6443V83.7387Z" fill="#062721"/>
<path fill-rule="evenodd" clip-rule="evenodd" d="M91.756 85.5649L87.4986 82.7455L84.7083 82.0515C84.7083 82.0515 83.7657 81.7373 83.6875 82.0515C83.6093 82.3657 84.1401 83.1658 84.374 83.3943C84.6079 83.6228 86.7695 84.4515 86.7695 84.4515L83.1672 83.8001L79.9515 82.2742C79.9515 82.2742 79.1624 81.9915 79.0046 82.3727C78.8469 82.7538 79.4175 83.2396 79.4175 83.2396L82.2907 84.9787C82.2907 84.9787 81.1713 84.7825 81.0637 84.826C80.956 84.8694 80.706 84.9846 80.6532 85.3944C80.6004 85.8042 80.9422 86.2797 80.9422 86.2797L81.095 86.4041C81.095 86.4041 80.7445 86.7024 80.6989 87.0944C80.6532 87.4865 80.9422 87.7494 80.9422 87.7494L81.0269 87.839C81.0269 87.839 80.7497 88.1565 80.7497 88.4969C80.7497 88.8374 80.9422 89.0459 80.9422 89.0459L84.5075 91.053C84.5075 91.053 88.6638 91.6263 91.756 91.3257V85.5649Z" fill="#FFAE9C"/>
<path fill-rule="evenodd" clip-rule="evenodd" d="M82.5334 87.0277L81.1685 86.5797L81.2642 86.2969L82.6291 86.7449L82.5334 87.0277Z" fill="#062721"/>
<path fill-rule="evenodd" clip-rule="evenodd" d="M82.5274 88.8548L81.1685 88.0761L81.2702 87.7585L82.6291 88.5373L82.5274 88.8548Z" fill="#062721"/>
<path fill-rule="evenodd" clip-rule="evenodd" d="M83.6281 85.5661L82.2632 85.1181L82.3589 84.8352L83.7239 85.2832L83.6281 85.5661Z" fill="#062721"/>
<path fill-rule="evenodd" clip-rule="evenodd" d="M77.1514 40.2737C77.1514 40.2737 78.1078 44.576 77.789 47.8653C77.789 47.8653 80.3682 54.1397 83.6915 54.1397C87.0148 54.1397 89.2886 47.3547 89.2886 47.3547C89.2886 47.3547 88.8528 44.5597 89.5391 41.6703C90.2254 38.7809 77.1514 40.2737 77.1514 40.2737Z" fill="#FFAE9C"/>
<mask id="mask7" mask-type="alpha" maskUnits="userSpaceOnUse" x="77" y="39" width="13" height="16">
<path fill-rule="evenodd" clip-rule="evenodd" d="M77.1514 40.2737C77.1514 40.2737 78.1078 44.576 77.789 47.8653C77.789 47.8653 80.3682 54.1397 83.6915 54.1397C87.0148 54.1397 89.2886 47.3547 89.2886 47.3547C89.2886 47.3547 88.8528 44.5597 89.5391 41.6703C90.2254 38.7809 77.1514 40.2737 77.1514 40.2737Z" fill="white"/>
</mask>
<g mask="url(#mask7)">
<path fill-rule="evenodd" clip-rule="evenodd" d="M89.1998 42.4903C89.1998 42.4903 86.6725 48.4274 80.7195 48.4274C80.7195 48.4274 78.0642 48.8113 81.5119 53.7742L76.4209 48.2949L77.2683 40.9844L89.1998 42.4903Z" fill="#DF8D70"/>
</g>
<path fill-rule="evenodd" clip-rule="evenodd" d="M91.3736 38.542C91.7716 38.3236 92.2424 37.4828 92.4489 35.7898C92.6553 34.0967 91.9543 33.7846 91.5318 33.9256C91.1093 34.0667 90.1673 36.0948 90.1673 36.0948L90.2277 33.1351C88.7422 31.5534 88.6695 29.2495 88.6695 29.2495C84.1878 30.7468 78.8827 27.8291 78.8827 27.8291C78.3926 28.6866 77.9829 29.2966 77.5663 29.809C77.1003 30.3823 76.2829 31.0347 76.2829 31.0347L76.4236 36.1033L75.112 33.9256C73.3804 33.9256 74.6552 37.3367 75.112 38.1865C75.5688 39.0364 76.6477 38.542 76.6477 38.542C76.6477 38.542 78.3619 46.463 83.1377 46.817C87.9135 47.1709 90.2277 40.7997 90.2277 38.542C90.2277 38.542 90.9757 38.7605 91.3736 38.542Z" fill="#FFAE9C"/>
<path fill-rule="evenodd" clip-rule="evenodd" d="M64.0073 97.2596V72.4108H64.3725V97.2596H64.0073Z" fill="#062721"/>
<path fill-rule="evenodd" clip-rule="evenodd" d="M83.5412 42.8115C82.1758 42.8115 81.168 41.7152 81.168 41.7152L85.9144 41.7152C85.9144 41.7152 84.9066 42.8115 83.5412 42.8115Z" fill="white"/>
<path fill-rule="evenodd" clip-rule="evenodd" d="M82.6292 34.7722L82.906 34.7922L82.5513 39.3235C82.579 39.3409 82.6166 39.363 82.6635 39.3872C82.7792 39.4469 82.9511 39.5194 83.1726 39.5679C83.6127 39.6642 84.2573 39.6676 85.0563 39.2702L85.1841 39.5067C84.3246 39.9341 83.6126 39.9374 83.1108 39.8275C82.8613 39.7729 82.6659 39.6908 82.532 39.6217C82.465 39.5871 82.4132 39.5557 82.3775 39.5324C82.3597 39.5207 82.3458 39.5111 82.3361 39.5041C82.3312 39.5006 82.3274 39.4978 82.3246 39.4957L82.3212 39.4931L82.3201 39.4922L82.3196 39.4919L82.3195 39.4918C82.3194 39.4917 82.3193 39.4917 82.407 39.3885L82.3195 39.4918L82.2632 39.4478L82.6292 34.7722Z" fill="#062721"/>
<path fill-rule="evenodd" clip-rule="evenodd" d="M80.4374 35.8684C80.6391 35.8684 80.8026 35.7048 80.8026 35.503C80.8026 35.3012 80.6391 35.1376 80.4374 35.1376C80.2358 35.1376 80.0723 35.3012 80.0723 35.503C80.0723 35.7048 80.2358 35.8684 80.4374 35.8684Z" fill="#062721"/>
<path fill-rule="evenodd" clip-rule="evenodd" d="M93.4139 56.6389C92.5317 56.5993 91.723 56.9059 91.3251 57.2775C90.9061 57.669 90.635 58.233 90.4684 58.7243C90.3864 58.9662 90.3326 59.182 90.2993 59.3368C90.2827 59.414 90.2714 59.4756 90.2643 59.5171C90.2611 59.5356 90.2588 59.5501 90.2572 59.5601C90.09 67.3275 92.5261 71.011 94.9192 72.7695C94.9535 72.7946 94.9877 72.8194 95.022 72.8438C95.9435 71.4213 96.5408 69.6253 96.8583 67.7219C97.1801 65.7935 97.2053 63.7959 96.9997 62.0538C96.7929 60.3023 96.357 58.8465 95.7856 57.9767C95.1743 57.0464 94.277 56.6777 93.4139 56.6389ZM95.5904 73.216C96.5897 71.6755 97.2107 69.7647 97.5336 67.8295C97.8658 65.8383 97.892 63.7786 97.6793 61.9771C97.4677 60.185 97.0153 58.6108 96.3612 57.6154C95.6125 56.476 94.4954 56.0181 93.4453 55.9709C92.4141 55.9246 91.4105 56.2728 90.8524 56.7942C90.3154 57.2958 90 57.9802 89.819 58.514C89.7272 58.7847 89.6671 59.0256 89.6298 59.1994C89.6111 59.2865 89.598 59.3571 89.5895 59.4068C89.5852 59.4317 89.5821 59.4513 89.58 59.4651C89.5789 59.4721 89.5781 59.4775 89.5776 59.4815L89.5769 59.4863L89.5767 59.4878L89.5766 59.4886C89.5766 59.4887 89.5765 59.4888 89.9157 59.5326L89.5766 59.4886L89.5741 59.507L89.5737 59.5254C89.3985 67.4547 91.8883 71.3789 94.5081 73.3039C94.55 73.3348 94.592 73.3651 94.634 73.3948C93.7138 74.5963 92.5191 75.4576 91.0161 75.7771L91.1615 76.4305C92.8751 76.0662 94.2019 75.0904 95.2034 73.7684C96.2676 74.4121 97.2991 74.7443 98.1112 74.9151C98.6055 75.019 99.0196 75.0634 99.3124 75.0817C99.4589 75.0908 99.5752 75.0935 99.6562 75.0938C99.6967 75.094 99.7284 75.0935 99.7507 75.093C99.7619 75.0928 99.7706 75.0925 99.777 75.0923L99.7847 75.092L99.7871 75.0919L99.788 75.0918C99.7883 75.0918 99.7886 75.0918 99.772 74.7579C99.7554 74.4239 99.7556 74.4239 99.7558 74.4239L99.7523 74.424C99.7488 74.4242 99.743 74.4243 99.7348 74.4245C99.7185 74.4249 99.693 74.4253 99.6588 74.4251C99.5906 74.4249 99.488 74.4226 99.3561 74.4144C99.0922 74.3979 98.712 74.3574 98.2551 74.2614C97.5108 74.1049 96.5665 73.8016 95.5904 73.216Z" fill="white"/>
<path fill-rule="evenodd" clip-rule="evenodd" d="M100.154 75.6997C100.557 75.6997 100.884 75.2907 100.884 74.7861C100.884 74.2816 100.557 73.8726 100.154 73.8726C99.7503 73.8726 99.4233 74.2816 99.4233 74.7861C99.4233 75.2907 99.7503 75.6997 100.154 75.6997Z" fill="#062721"/>
<path fill-rule="evenodd" clip-rule="evenodd" d="M91.0258 76.7959C91.4291 76.7959 91.7561 76.4687 91.7561 76.0651C91.7561 75.6614 91.4291 75.3342 91.0258 75.3342C90.6224 75.3342 90.2954 75.6614 90.2954 76.0651C90.2954 76.4687 90.6224 76.7959 91.0258 76.7959Z" fill="#062721"/>
<path fill-rule="evenodd" clip-rule="evenodd" d="M85.3666 35.8684C85.6691 35.8684 85.9144 35.7048 85.9144 35.503C85.9144 35.3012 85.6691 35.1376 85.3666 35.1376C85.0641 35.1376 84.8188 35.3012 84.8188 35.503C84.8188 35.7048 85.0641 35.8684 85.3666 35.8684Z" fill="#062721"/>
<path fill-rule="evenodd" clip-rule="evenodd" d="M78.2466 35.503C78.2466 34.494 79.1456 33.6759 80.2547 33.6759C81.3638 33.6759 82.2628 34.494 82.2628 35.503C82.2628 36.5121 81.3638 37.3301 80.2547 37.3301C79.1456 37.3301 78.2466 36.5121 78.2466 35.503ZM80.2547 33.9603C79.3184 33.9603 78.5593 34.6509 78.5593 35.503C78.5593 36.3551 79.3184 37.0457 80.2547 37.0457C81.191 37.0457 81.9501 36.3551 81.9501 35.503C81.9501 34.6509 81.191 33.9603 80.2547 33.9603Z" fill="white"/>
<path fill-rule="evenodd" clip-rule="evenodd" d="M83.7236 35.503C83.7236 34.494 84.5409 33.6759 85.5492 33.6759C86.5575 33.6759 87.3748 34.494 87.3748 35.503C87.3748 36.5121 86.5575 37.3301 85.5492 37.3301C84.5409 37.3301 83.7236 36.5121 83.7236 35.503ZM85.5492 33.9603C84.698 33.9603 84.0079 34.6509 84.0079 35.503C84.0079 36.3551 84.698 37.0457 85.5492 37.0457C86.4004 37.0457 87.0905 36.3551 87.0905 35.503C87.0905 34.6509 86.4004 33.9603 85.5492 33.9603Z" fill="white"/>
<path fill-rule="evenodd" clip-rule="evenodd" d="M91.0256 34.2302L87.4311 35.1375L87.3745 34.9486L90.9691 34.0413L91.0256 34.2302Z" fill="white"/>
<path fill-rule="evenodd" clip-rule="evenodd" d="M75.4252 33.6759L78.6117 34.945L78.5122 35.1376L75.3257 33.8685L75.4252 33.6759Z" fill="white"/>
<path fill-rule="evenodd" clip-rule="evenodd" d="M78.734 33.6759C78.734 33.6759 78.7341 33.6759 78.6729 33.5613C78.6117 33.4466 78.6118 33.4466 78.6118 33.4466L78.6119 33.4465L78.6123 33.4462L78.6134 33.4454L78.6171 33.4428C78.6202 33.4406 78.6246 33.4376 78.6303 33.4337C78.6417 33.4259 78.6582 33.4149 78.6794 33.4014C78.7219 33.3744 78.7836 33.3374 78.862 33.296C79.0184 33.2132 79.2421 33.1126 79.5123 33.0403C80.0527 32.8959 80.7843 32.8638 81.5327 33.3229L81.4251 33.5621C80.7395 33.1415 80.0681 33.1688 79.5639 33.3036C79.3119 33.371 79.103 33.465 78.9574 33.542C78.8847 33.5805 78.828 33.6145 78.7899 33.6387C78.7708 33.6508 78.7564 33.6604 78.747 33.6668C78.7423 33.6701 78.7389 33.6725 78.7367 33.674L78.7344 33.6756L78.734 33.6759Z" fill="#062721"/>
<path fill-rule="evenodd" clip-rule="evenodd" d="M84.5605 33.6759C84.5606 33.6759 84.5606 33.6759 84.5071 33.5613C84.4535 33.4466 84.4536 33.4466 84.4536 33.4466L84.4537 33.4465L84.454 33.4462L84.455 33.4454L84.4582 33.4428C84.4609 33.4406 84.4648 33.4376 84.4698 33.4337C84.4797 33.4259 84.4942 33.4149 84.5128 33.4014C84.55 33.3744 84.604 33.3374 84.6725 33.296C84.8094 33.2132 85.0051 33.1126 85.2415 33.0403C85.7144 32.8959 86.3545 32.8638 87.0094 33.3229L86.9153 33.5621C86.3153 33.1415 85.7278 33.1688 85.2867 33.3036C85.0662 33.371 84.8834 33.465 84.756 33.542C84.6924 33.5805 84.6428 33.6145 84.6094 33.6387C84.5928 33.6508 84.5802 33.6604 84.5719 33.6668C84.5678 33.6701 84.5648 33.6725 84.5629 33.674L84.5609 33.6756L84.5605 33.6759Z" fill="#062721"/>
<path fill-rule="evenodd" clip-rule="evenodd" d="M91.3911 84.8352L107.573 85.2926L107.581 85.2937L107.562 85.4283C107.581 85.2937 107.581 85.2937 107.581 85.2937L107.582 85.2938L107.582 85.2939L107.584 85.2942L107.59 85.2951C107.595 85.296 107.602 85.2972 107.611 85.2988C107.63 85.3022 107.656 85.3073 107.689 85.3147C107.756 85.3295 107.851 85.3532 107.968 85.3897C108.2 85.4625 108.518 85.5863 108.861 85.7906C109.548 86.2001 110.336 86.9329 110.742 88.2198L110.484 88.3019C110.101 87.0899 109.363 86.4064 108.722 86.0244C108.401 85.8329 108.103 85.7171 107.887 85.6492C107.779 85.6153 107.691 85.5935 107.631 85.5803C107.601 85.5736 107.578 85.5692 107.563 85.5664C107.557 85.5653 107.552 85.5645 107.549 85.5639L91.6622 85.1149V92.6683C91.6697 92.6706 91.6777 92.6731 91.6861 92.6757C91.7642 92.6999 91.8799 92.7352 92.0302 92.7796C92.3308 92.8685 92.7697 92.9936 93.3216 93.1385C94.4256 93.4284 95.9817 93.7973 97.7891 94.1135C101.407 94.7462 106.019 95.1648 110.028 94.323L110.083 94.5891C106.024 95.4416 101.372 95.0161 97.7425 94.3813C95.9262 94.0637 94.3626 93.6929 93.253 93.4016C92.6981 93.2559 92.2566 93.13 91.9536 93.0405C91.8021 92.9957 91.6852 92.96 91.6061 92.9355C91.5665 92.9232 91.5364 92.9138 91.5161 92.9073L91.4931 92.9L91.4872 92.8981L91.4852 92.8975C91.4851 92.8975 91.4851 92.8974 91.5267 92.768L91.4852 92.8975L91.3911 92.8671V84.8352Z" fill="#062721"/>
<path fill-rule="evenodd" clip-rule="evenodd" d="M101.693 85.5661L100.884 67.3064L101.17 67.2949L101.979 85.5546L101.693 85.5661Z" fill="#062721"/>
</g>
<path fill-rule="evenodd" clip-rule="evenodd" d="M42.8308 55.8572L40.5561 49.6895C40.5561 49.6895 41.3344 46.9306 40.9452 44.6494C40.5561 42.3682 42.1742 40.6283 42.1742 40.6283C42.1742 40.6283 40.2954 39.9589 39.5507 41.5721C38.8061 43.1853 38.2643 44.164 38.2643 44.164C38.2643 44.164 37.1604 42.1707 36.8331 41.2823C35.519 37.7158 35.0465 35.883 34.697 36.0454C34.0421 36.3496 34.697 40.6283 34.697 40.6283C34.697 40.6283 34.1222 39.6265 33.8964 39.1524C32.4848 36.1885 31.8551 35.3305 31.4926 35.5306C30.8619 35.8787 32.8843 41.2823 32.5691 41.2823C32.2539 41.2823 30.3584 37.0113 29.8305 37.3168C29.3025 37.6223 31.1921 42.7528 31.1921 42.7528C31.1921 42.7528 29.5654 39.806 29.0586 40.0293C28.5518 40.2527 30.0766 43.5762 30.4682 44.6951C30.8598 45.814 31.3027 49.4072 34.2851 52.2377L35.7769 58.1593L42.8308 55.8572Z" fill="#FFAE9C"/>
<path fill-rule="evenodd" clip-rule="evenodd" d="M74.705 33.9614C74.705 33.9614 73.6373 28.152 74.705 27.3222C74.705 27.3222 77.8202 21.3876 84.0945 22.4826C90.3689 23.5776 93.0363 26.7459 91.8437 33.7495C90.6512 40.753 76.1858 37.118 76.1858 37.118L74.705 33.9614Z" fill="#062721"/>
<path fill-rule="evenodd" clip-rule="evenodd" d="M102.129 95.1925C102.129 95.1925 112.46 95.7852 113.772 91.4037C115.084 87.0222 111.112 69.1521 107.336 59.3705C103.559 49.5889 89.2591 47.1965 89.2591 47.1965L77.6769 47.7172C77.6769 47.7172 63.2889 50.9248 60.5544 55.6023C57.8199 60.2798 50.0199 71.6783 50.0199 71.6783L43.0018 51.8765L33.3379 55.6023C33.3379 55.6023 41.1857 89.9874 47.5744 90.979C53.963 91.9706 64.0836 80.1187 64.0836 80.1187V99.4521H102.129V95.1925Z" fill="#6E1C74"/>
<mask id="mask8" mask-type="alpha" maskUnits="userSpaceOnUse" x="33" y="47" width="82" height="53">
<path fill-rule="evenodd" clip-rule="evenodd" d="M102.129 95.1925C102.129 95.1925 112.46 95.7852 113.772 91.4037C115.084 87.0222 111.112 69.1521 107.336 59.3705C103.559 49.5889 89.2591 47.1965 89.2591 47.1965L77.6769 47.7172C77.6769 47.7172 63.2889 50.9248 60.5544 55.6023C57.8199 60.2798 50.0199 71.6783 50.0199 71.6783L43.0018 51.8765L33.3379 55.6023C33.3379 55.6023 41.1857 89.9874 47.5744 90.979C53.963 91.9706 64.0836 80.1187 64.0836 80.1187V99.4521H102.129V95.1925Z" fill="white"/>
</mask>
<g mask="url(#mask8)">
<path fill-rule="evenodd" clip-rule="evenodd" d="M76.7861 47.7113L82.4026 74.6033L88.4697 47.1965L76.7861 47.7113Z" fill="white"/>
<path fill-rule="evenodd" clip-rule="evenodd" d="M76.8194 47.5618L77.0599 47.6836L71.3352 58.8654L76.972 60.4035L73.1539 63.4556L82.6279 79.2158L82.3962 79.3536L72.8016 63.3928L76.391 60.5234L70.9443 59.0372L76.8194 47.5618Z" fill="#062721"/>
<path fill-rule="evenodd" clip-rule="evenodd" d="M88.7963 47.1965L88.5555 47.3181L94.2855 58.4719L88.6436 60.0062L92.4664 63.0516L82.9932 79.2193L83.2268 79.3538L92.8167 62.987L89.225 60.1258L94.6768 58.6433L88.7963 47.1965Z" fill="#062721"/>
<path fill-rule="evenodd" clip-rule="evenodd" d="M93.5811 56.2788C93.5811 56.2789 93.5811 56.279 93.1208 56.3055C92.6605 56.3321 92.6605 56.3321 92.6605 56.3321L92.6605 56.3316L92.6603 56.3294L92.6597 56.3196C92.6591 56.3106 92.6582 56.297 92.6569 56.2788C92.6543 56.2425 92.6503 56.1881 92.6445 56.1172C92.6329 55.9753 92.6144 55.7671 92.5869 55.5048C92.5317 54.9798 92.4403 54.2387 92.2955 53.3768C92.005 51.6478 91.5032 49.4551 90.6602 47.5484L91.5078 47.1965C92.3933 49.1993 92.9099 51.4731 93.2057 53.2332C93.354 54.1159 93.4477 54.8751 93.5043 55.4143C93.5327 55.6839 93.5518 55.8988 93.5638 56.0469C93.5699 56.121 93.5741 56.1783 93.5769 56.2175C93.5783 56.2371 93.5793 56.2521 93.58 56.2625L93.5808 56.2744L93.5811 56.2788Z" fill="white"/>
<path fill-rule="evenodd" clip-rule="evenodd" d="M75.4348 47.1965C75.4352 47.1964 75.4356 47.1963 75.5621 47.6282C75.6885 48.0601 75.6889 48.06 75.6892 48.0599L75.6898 48.0597L75.6906 48.0595L75.6857 48.0611C75.6798 48.0629 75.6693 48.0664 75.6543 48.0717C75.6244 48.0824 75.5767 48.1003 75.5139 48.1272C75.3883 48.1809 75.2022 48.2704 74.9755 48.4088C74.5226 48.6852 73.9058 49.1579 73.2838 49.9346C72.0443 51.4826 70.7516 54.2799 70.7516 59.2376V71.6799C70.7516 71.6799 70.7516 71.6799 70.3004 71.6799C69.8491 71.6799 69.8491 71.6799 69.8491 71.6799V59.2376C69.8491 54.1179 71.1873 51.1105 72.5786 49.3731C73.272 48.5072 73.9707 47.967 74.5043 47.6413C74.7709 47.4786 74.9958 47.3696 75.158 47.3003C75.2391 47.2656 75.3045 47.2407 75.3516 47.224C75.3752 47.2156 75.3942 47.2093 75.4083 47.2047C75.4153 47.2025 75.4211 47.2007 75.4257 47.1993L75.4316 47.1975L75.4338 47.1968L75.4348 47.1965ZM75.6908 48.0594C75.691 48.0594 75.691 48.0594 75.6906 48.0595L75.6908 48.0594Z" fill="white"/>
<path fill-rule="evenodd" clip-rule="evenodd" d="M70.2141 73.8725C71.424 73.8725 72.4048 72.809 72.4048 71.4972C72.4048 70.1854 71.424 69.1219 70.2141 69.1219C69.0042 69.1219 68.0234 70.1854 68.0234 71.4972C68.0234 72.809 69.0042 73.8725 70.2141 73.8725Z" fill="white"/>
</g>
<path d="M76.0562 72.0454H91.756V94.3362H76.0562V72.0454Z" fill="#F9F8F8"/>
<path fill-rule="evenodd" clip-rule="evenodd" d="M89.5657 75.3339H78.6123V74.9688H89.5657V75.3339Z" fill="#062721"/>
<path fill-rule="evenodd" clip-rule="evenodd" d="M86.6448 78.2573H78.6123V77.8921H86.6448V78.2573Z" fill="#062721"/>
<path fill-rule="evenodd" clip-rule="evenodd" d="M89.5657 80.8152H78.6123V80.4501H89.5657V80.8152Z" fill="#062721"/>
<path fill-rule="evenodd" clip-rule="evenodd" d="M86.6448 83.7387H78.6123V83.3735H86.6448V83.7387Z" fill="#062721"/>
<path fill-rule="evenodd" clip-rule="evenodd" d="M91.756 85.5649L87.4986 82.7455L84.7083 82.0515C84.7083 82.0515 83.7657 81.7373 83.6875 82.0515C83.6093 82.3657 84.1401 83.1658 84.374 83.3943C84.6079 83.6228 86.7695 84.4515 86.7695 84.4515L83.1672 83.8001L79.9515 82.2742C79.9515 82.2742 79.1624 81.9915 79.0046 82.3727C78.8469 82.7538 79.4175 83.2396 79.4175 83.2396L82.2907 84.9787C82.2907 84.9787 81.1713 84.7825 81.0637 84.826C80.956 84.8694 80.706 84.9846 80.6532 85.3944C80.6004 85.8042 80.9422 86.2797 80.9422 86.2797L81.095 86.4041C81.095 86.4041 80.7445 86.7024 80.6989 87.0944C80.6532 87.4865 80.9422 87.7494 80.9422 87.7494L81.0269 87.839C81.0269 87.839 80.7497 88.1565 80.7497 88.4969C80.7497 88.8374 80.9422 89.0459 80.9422 89.0459L84.5075 91.053C84.5075 91.053 88.6638 91.6263 91.756 91.3257V85.5649Z" fill="#FFAE9C"/>
<path fill-rule="evenodd" clip-rule="evenodd" d="M82.5334 87.0277L81.1685 86.5797L81.2642 86.2969L82.6291 86.7449L82.5334 87.0277Z" fill="#062721"/>
<path fill-rule="evenodd" clip-rule="evenodd" d="M82.5274 88.8548L81.1685 88.0761L81.2702 87.7585L82.6291 88.5373L82.5274 88.8548Z" fill="#062721"/>
<path fill-rule="evenodd" clip-rule="evenodd" d="M83.6281 85.5661L82.2632 85.1181L82.3589 84.8352L83.7239 85.2832L83.6281 85.5661Z" fill="#062721"/>
<path fill-rule="evenodd" clip-rule="evenodd" d="M77.1514 40.2736C77.1514 40.2736 78.1078 44.5759 77.789 47.8652C77.789 47.8652 80.3682 54.1396 83.6915 54.1396C87.0148 54.1396 89.2886 47.3546 89.2886 47.3546C89.2886 47.3546 88.8528 44.5595 89.5391 41.6702C90.2254 38.7808 77.1514 40.2736 77.1514 40.2736Z" fill="#FFAE9C"/>
<mask id="mask9" mask-type="alpha" maskUnits="userSpaceOnUse" x="77" y="39" width="13" height="16">
<path fill-rule="evenodd" clip-rule="evenodd" d="M77.1514 40.2736C77.1514 40.2736 78.1078 44.5759 77.789 47.8652C77.789 47.8652 80.3682 54.1396 83.6915 54.1396C87.0148 54.1396 89.2886 47.3546 89.2886 47.3546C89.2886 47.3546 88.8528 44.5595 89.5391 41.6702C90.2254 38.7808 77.1514 40.2736 77.1514 40.2736Z" fill="white"/>
</mask>
<g mask="url(#mask9)">
<path fill-rule="evenodd" clip-rule="evenodd" d="M89.1998 42.4903C89.1998 42.4903 86.6725 48.4274 80.7195 48.4274C80.7195 48.4274 78.0642 48.8113 81.5119 53.7742L76.4209 48.2949L77.2683 40.9844L89.1998 42.4903Z" fill="#DF8D70"/>
</g>
<path fill-rule="evenodd" clip-rule="evenodd" d="M91.3736 38.542C91.7716 38.3236 92.2424 37.4828 92.4489 35.7898C92.6553 34.0967 91.9543 33.7846 91.5318 33.9256C91.1093 34.0667 90.1673 36.0948 90.1673 36.0948L90.2277 33.1351C88.7422 31.5534 88.6695 29.2495 88.6695 29.2495C84.1878 30.7468 78.8827 27.8291 78.8827 27.8291C78.3926 28.6866 77.9829 29.2966 77.5663 29.809C77.1003 30.3823 76.2829 31.0347 76.2829 31.0347L76.4236 36.1033L75.112 33.9256C73.3804 33.9256 74.6552 37.3367 75.112 38.1865C75.5688 39.0364 76.6477 38.542 76.6477 38.542C76.6477 38.542 78.3619 46.463 83.1377 46.817C87.9135 47.1709 90.2277 40.7997 90.2277 38.542C90.2277 38.542 90.9757 38.7605 91.3736 38.542Z" fill="#FFAE9C"/>
<path fill-rule="evenodd" clip-rule="evenodd" d="M38.4494 44.1449L38.3341 43.9077L38.3675 44.0385C38.3341 43.9077 38.3342 43.9077 38.3341 43.9077L38.3333 43.9079L38.3311 43.9085L38.3228 43.9107C38.3155 43.9127 38.3048 43.9156 38.2909 43.9194C38.263 43.927 38.2221 43.9384 38.1698 43.9534C38.0652 43.9835 37.9147 44.0283 37.7304 44.0872C37.3619 44.205 36.8576 44.3798 36.3143 44.6076C35.7714 44.8352 35.1873 45.1167 34.6602 45.4485C34.1344 45.7795 33.658 46.1653 33.3379 46.6039L33.5523 46.7646C33.8442 46.3646 34.2891 46.0003 34.801 45.678C35.3116 45.3565 35.8816 45.0814 36.4163 44.8572C36.9506 44.6332 37.4474 44.461 37.8106 44.3449C37.8234 44.3408 37.8359 44.3368 37.8483 44.3329C37.8375 44.3438 37.8264 44.355 37.8153 44.3664C37.5446 44.643 37.1975 45.0431 36.8936 45.536C36.2863 46.5211 35.8425 47.8953 36.5592 49.3891L36.799 49.2709C36.1381 47.8934 36.5386 46.6219 37.1198 45.6791C37.4103 45.208 37.7435 44.8236 38.0047 44.5566C38.1351 44.4234 38.2471 44.3198 38.3262 44.2499C38.3657 44.2149 38.3969 44.1884 38.4181 44.1707C38.4287 44.1619 38.4367 44.1553 38.442 44.151L38.4479 44.1463L38.4492 44.1453L38.4495 44.1451C38.4495 44.1451 38.4495 44.145 38.4494 44.1449Z" fill="#062721"/>
<path fill-rule="evenodd" clip-rule="evenodd" d="M34.0679 38.0952C34.0679 38.0951 34.0679 38.0951 34.236 38.0781C34.404 38.061 34.404 38.061 34.404 38.061L34.4093 38.0968C34.4127 38.1203 34.4178 38.1548 34.4245 38.1991C34.4377 38.2876 34.4569 38.415 34.481 38.5703C34.5291 38.8809 34.5963 39.3029 34.6731 39.7488C34.8277 40.6479 35.0175 41.6224 35.1634 41.9919L34.8418 42.0807C34.6842 41.6817 34.4906 40.6771 34.3379 39.7891C34.2608 39.3415 34.1934 38.9181 34.1451 38.6066C34.121 38.4509 34.1017 38.3231 34.0884 38.2342C34.0818 38.1897 34.0767 38.155 34.0732 38.1314L34.0679 38.0952Z" fill="#062721"/>
<path fill-rule="evenodd" clip-rule="evenodd" d="M32.6922 42.0807L31.8774 39.5855L32.1582 39.5227L32.973 42.0179L32.6922 42.0807Z" fill="#062721"/>
<path fill-rule="evenodd" clip-rule="evenodd" d="M31.2444 43.1769L30.417 41.077L30.6851 40.9844L31.5125 43.0843L31.2444 43.1769Z" fill="#062721"/>
<path fill-rule="evenodd" clip-rule="evenodd" d="M31.0437 43.4241C30.9792 43.4782 30.8903 43.5423 30.7839 43.5423V43.2799C30.7831 43.2799 30.7827 43.2799 30.7827 43.2798C30.7826 43.2794 30.8043 43.2748 30.8608 43.2274C30.9091 43.1869 30.9639 43.1321 31.0343 43.0619C31.0494 43.0469 31.0652 43.0311 31.0818 43.0146C31.2655 42.8322 31.5209 42.5886 31.8946 42.3623C32.6462 41.9072 33.8533 41.5356 35.8943 41.8076L35.8559 42.0676C33.8684 41.8026 32.73 42.1677 32.043 42.5836C31.6975 42.7928 31.4604 43.0183 31.2814 43.1961C31.2666 43.2108 31.252 43.2254 31.2376 43.2398C31.1671 43.3101 31.1018 43.3754 31.0437 43.4241Z" fill="#062721"/>
<path fill-rule="evenodd" clip-rule="evenodd" d="M64.0073 97.2596V72.4108H64.3725V97.2596H64.0073Z" fill="#062721"/>
<path fill-rule="evenodd" clip-rule="evenodd" d="M43.09 51.947L50.1331 71.5874V76.4304H49.8654V71.6335L42.9299 52.2933L33.4336 55.9118L33.3379 55.663L43.09 51.947Z" fill="#062721"/>
<path fill-rule="evenodd" clip-rule="evenodd" d="M83.5407 42.8115C82.1753 42.8115 81.1675 41.7152 81.1675 41.7152L85.9139 41.7152C85.9139 41.7152 84.9061 42.8115 83.5407 42.8115Z" fill="white"/>
<path fill-rule="evenodd" clip-rule="evenodd" d="M82.6292 34.7722L82.906 34.7922L82.5513 39.3235C82.579 39.3409 82.6166 39.363 82.6635 39.3872C82.7792 39.4469 82.9511 39.5194 83.1726 39.5679C83.6127 39.6642 84.2573 39.6676 85.0563 39.2702L85.1841 39.5067C84.3246 39.9341 83.6126 39.9374 83.1108 39.8275C82.8613 39.7729 82.6659 39.6908 82.532 39.6217C82.465 39.5871 82.4132 39.5557 82.3775 39.5324C82.3597 39.5207 82.3458 39.5111 82.3361 39.5041C82.3312 39.5006 82.3274 39.4978 82.3246 39.4957L82.3212 39.4931L82.3201 39.4922L82.3196 39.4919L82.3195 39.4918C82.3194 39.4917 82.3193 39.4917 82.407 39.3885L82.3195 39.4918L82.2632 39.4478L82.6292 34.7722Z" fill="#062721"/>
<path fill-rule="evenodd" clip-rule="evenodd" d="M80.4374 35.8684C80.6391 35.8684 80.8026 35.7048 80.8026 35.503C80.8026 35.3012 80.6391 35.1376 80.4374 35.1376C80.2358 35.1376 80.0723 35.3012 80.0723 35.503C80.0723 35.7048 80.2358 35.8684 80.4374 35.8684Z" fill="#062721"/>
<path fill-rule="evenodd" clip-rule="evenodd" d="M93.4139 56.6389C92.5317 56.5993 91.723 56.9059 91.3251 57.2775C90.9061 57.669 90.635 58.233 90.4684 58.7243C90.3864 58.9662 90.3326 59.182 90.2993 59.3368C90.2827 59.414 90.2714 59.4756 90.2643 59.5171C90.2611 59.5356 90.2588 59.5501 90.2572 59.5601C90.09 67.3275 92.5261 71.011 94.9192 72.7695C94.9535 72.7946 94.9877 72.8194 95.022 72.8438C95.9435 71.4213 96.5408 69.6253 96.8583 67.7219C97.1801 65.7935 97.2053 63.7959 96.9997 62.0538C96.7929 60.3023 96.357 58.8465 95.7856 57.9767C95.1743 57.0464 94.277 56.6777 93.4139 56.6389ZM95.5904 73.216C96.5897 71.6755 97.2107 69.7647 97.5336 67.8295C97.8658 65.8383 97.892 63.7786 97.6793 61.9771C97.4677 60.185 97.0153 58.6108 96.3612 57.6154C95.6125 56.476 94.4954 56.0181 93.4453 55.9709C92.4141 55.9246 91.4105 56.2728 90.8524 56.7942C90.3154 57.2958 90 57.9802 89.819 58.514C89.7272 58.7847 89.6671 59.0256 89.6298 59.1994C89.6111 59.2865 89.598 59.3571 89.5895 59.4068C89.5852 59.4317 89.5821 59.4513 89.58 59.4651C89.5789 59.4721 89.5781 59.4775 89.5776 59.4815L89.5769 59.4863L89.5767 59.4878L89.5766 59.4886C89.5766 59.4887 89.5765 59.4888 89.9157 59.5326L89.5766 59.4886L89.5741 59.507L89.5737 59.5254C89.3985 67.4547 91.8883 71.3789 94.5081 73.3039C94.55 73.3348 94.592 73.3651 94.634 73.3948C93.7138 74.5963 92.5191 75.4576 91.0161 75.7771L91.1615 76.4305C92.8751 76.0662 94.2019 75.0904 95.2034 73.7684C96.2676 74.4121 97.2991 74.7443 98.1112 74.9151C98.6055 75.019 99.0196 75.0634 99.3124 75.0817C99.4589 75.0908 99.5752 75.0935 99.6562 75.0938C99.6967 75.094 99.7284 75.0935 99.7507 75.093C99.7619 75.0928 99.7706 75.0925 99.777 75.0923L99.7847 75.092L99.7871 75.0919L99.788 75.0918C99.7883 75.0918 99.7886 75.0918 99.772 74.7579C99.7554 74.4239 99.7556 74.4239 99.7558 74.4239L99.7523 74.424C99.7488 74.4242 99.743 74.4243 99.7348 74.4245C99.7185 74.4249 99.693 74.4253 99.6588 74.4251C99.5906 74.4249 99.488 74.4226 99.3561 74.4144C99.0922 74.3979 98.712 74.3574 98.2551 74.2614C97.5108 74.1049 96.5665 73.8016 95.5904 73.216Z" fill="white"/>
<path fill-rule="evenodd" clip-rule="evenodd" d="M100.154 75.6997C100.557 75.6997 100.884 75.2907 100.884 74.7861C100.884 74.2816 100.557 73.8726 100.154 73.8726C99.7503 73.8726 99.4233 74.2816 99.4233 74.7861C99.4233 75.2907 99.7503 75.6997 100.154 75.6997Z" fill="#062721"/>
<path fill-rule="evenodd" clip-rule="evenodd" d="M91.0258 76.7959C91.4291 76.7959 91.7561 76.4687 91.7561 76.0651C91.7561 75.6614 91.4291 75.3342 91.0258 75.3342C90.6224 75.3342 90.2954 75.6614 90.2954 76.0651C90.2954 76.4687 90.6224 76.7959 91.0258 76.7959Z" fill="#062721"/>
<path fill-rule="evenodd" clip-rule="evenodd" d="M85.3666 35.8684C85.6691 35.8684 85.9144 35.7048 85.9144 35.503C85.9144 35.3012 85.6691 35.1376 85.3666 35.1376C85.0641 35.1376 84.8188 35.3012 84.8188 35.503C84.8188 35.7048 85.0641 35.8684 85.3666 35.8684Z" fill="#062721"/>
<path fill-rule="evenodd" clip-rule="evenodd" d="M78.2466 35.503C78.2466 34.494 79.1456 33.6759 80.2547 33.6759C81.3638 33.6759 82.2628 34.494 82.2628 35.503C82.2628 36.5121 81.3638 37.3301 80.2547 37.3301C79.1456 37.3301 78.2466 36.5121 78.2466 35.503ZM80.2547 33.9603C79.3184 33.9603 78.5593 34.6509 78.5593 35.503C78.5593 36.3551 79.3184 37.0457 80.2547 37.0457C81.191 37.0457 81.9501 36.3551 81.9501 35.503C81.9501 34.6509 81.191 33.9603 80.2547 33.9603Z" fill="white"/>
<path fill-rule="evenodd" clip-rule="evenodd" d="M83.7236 35.503C83.7236 34.494 84.5409 33.6759 85.5492 33.6759C86.5575 33.6759 87.3748 34.494 87.3748 35.503C87.3748 36.5121 86.5575 37.3301 85.5492 37.3301C84.5409 37.3301 83.7236 36.5121 83.7236 35.503ZM85.5492 33.9603C84.698 33.9603 84.0079 34.6509 84.0079 35.503C84.0079 36.3551 84.698 37.0457 85.5492 37.0457C86.4004 37.0457 87.0905 36.3551 87.0905 35.503C87.0905 34.6509 86.4004 33.9603 85.5492 33.9603Z" fill="white"/>
<path fill-rule="evenodd" clip-rule="evenodd" d="M91.0256 34.2302L87.4311 35.1375L87.3745 34.9486L90.9691 34.0413L91.0256 34.2302Z" fill="white"/>
<path fill-rule="evenodd" clip-rule="evenodd" d="M75.4252 33.6759L78.6117 34.945L78.5122 35.1376L75.3257 33.8685L75.4252 33.6759Z" fill="white"/>
<path fill-rule="evenodd" clip-rule="evenodd" d="M78.734 33.6759C78.734 33.6759 78.7341 33.6759 78.6729 33.5613C78.6117 33.4466 78.6118 33.4466 78.6118 33.4466L78.6119 33.4465L78.6123 33.4462L78.6134 33.4454L78.6171 33.4428C78.6202 33.4406 78.6246 33.4376 78.6303 33.4337C78.6417 33.4259 78.6582 33.4149 78.6794 33.4014C78.7219 33.3744 78.7836 33.3374 78.862 33.296C79.0184 33.2132 79.2421 33.1126 79.5123 33.0403C80.0527 32.8959 80.7843 32.8638 81.5327 33.3229L81.4251 33.5621C80.7395 33.1415 80.0681 33.1688 79.5639 33.3036C79.3119 33.371 79.103 33.465 78.9574 33.542C78.8847 33.5805 78.828 33.6145 78.7899 33.6387C78.7708 33.6508 78.7564 33.6604 78.747 33.6668C78.7423 33.6701 78.7389 33.6725 78.7367 33.674L78.7344 33.6756L78.734 33.6759Z" fill="#062721"/>
<path fill-rule="evenodd" clip-rule="evenodd" d="M84.5605 33.6759C84.5606 33.6759 84.5606 33.6759 84.5071 33.5613C84.4535 33.4466 84.4536 33.4466 84.4536 33.4466L84.4537 33.4465L84.454 33.4462L84.455 33.4454L84.4582 33.4428C84.4609 33.4406 84.4648 33.4376 84.4698 33.4337C84.4797 33.4259 84.4942 33.4149 84.5128 33.4014C84.55 33.3744 84.604 33.3374 84.6725 33.296C84.8094 33.2132 85.0051 33.1126 85.2415 33.0403C85.7144 32.8959 86.3545 32.8638 87.0094 33.3229L86.9153 33.5621C86.3153 33.1415 85.7278 33.1688 85.2867 33.3036C85.0662 33.371 84.8834 33.465 84.756 33.542C84.6924 33.5805 84.6428 33.6145 84.6094 33.6387C84.5928 33.6508 84.5802 33.6604 84.5719 33.6668C84.5678 33.6701 84.5648 33.6725 84.5629 33.674L84.5609 33.6756L84.5605 33.6759Z" fill="#062721"/>
<path fill-rule="evenodd" clip-rule="evenodd" d="M91.3906 84.8352L107.573 85.2926L107.581 85.2937L107.561 85.4283C107.581 85.2937 107.581 85.2937 107.581 85.2937L107.581 85.2938L107.582 85.2939L107.583 85.2942L107.589 85.2951C107.595 85.296 107.602 85.2972 107.611 85.2988C107.629 85.3022 107.656 85.3073 107.689 85.3147C107.756 85.3295 107.851 85.3532 107.967 85.3897C108.2 85.4625 108.517 85.5863 108.86 85.7906C109.547 86.2001 110.335 86.9329 110.742 88.2198L110.483 88.3019C110.1 87.0899 109.363 86.4064 108.722 86.0244C108.4 85.8329 108.103 85.7171 107.886 85.6492C107.778 85.6153 107.691 85.5935 107.631 85.5803C107.601 85.5736 107.578 85.5692 107.562 85.5664C107.557 85.5653 107.552 85.5645 107.548 85.5639L91.6617 85.1149V92.6683C91.6692 92.6706 91.6772 92.6731 91.6856 92.6757C91.7637 92.6999 91.8794 92.7352 92.0297 92.7796C92.3304 92.8685 92.7692 92.9936 93.3211 93.1385C94.4252 93.4284 95.9812 93.7973 97.7886 94.1135C101.407 94.7462 106.019 95.1648 110.027 94.323L110.083 94.5891C106.024 95.4416 101.372 95.0161 97.742 94.3813C95.9257 94.0637 94.3621 93.6929 93.2525 93.4016C92.6976 93.2559 92.2561 93.13 91.9531 93.0405C91.8016 92.9957 91.6847 92.96 91.6056 92.9355C91.566 92.9232 91.5359 92.9138 91.5156 92.9073L91.4926 92.9L91.4867 92.8981L91.4848 92.8975C91.4846 92.8975 91.4846 92.8974 91.5262 92.768L91.4848 92.8975L91.3906 92.8671V84.8352Z" fill="#062721"/>
<path fill-rule="evenodd" clip-rule="evenodd" d="M101.693 85.5661L100.884 67.3064L101.17 67.2949L101.979 85.5546L101.693 85.5661Z" fill="#062721"/>
<path d="M70.5796 2.98035H95.0421V4.90279C95.0421 6.06105 94.0312 7.00001 92.7841 7.00001H72.8377C71.5906 7.00001 70.5796 6.06105 70.5796 4.90279V2.98035Z" fill="#1C154A"/>
<path fill-rule="evenodd" clip-rule="evenodd" d="M69.4843 31.1386V23.4853C69.4843 22.2516 68.4717 21.2515 67.2225 21.2515H48.0137C46.7646 21.2515 45.752 22.2516 45.752 23.4853V29.3886C45.752 30.6223 46.7646 31.6224 48.0137 31.6224H65.2983L69.4843 35.503V31.1386Z" fill="#49B7D7"/>
<path fill-rule="evenodd" clip-rule="evenodd" d="M53.0546 27.0983C53.4579 27.0983 53.7849 26.7711 53.7849 26.3674C53.7849 25.9638 53.4579 25.6366 53.0546 25.6366C52.6512 25.6366 52.3242 25.9638 52.3242 26.3674C52.3242 26.7711 52.6512 27.0983 53.0546 27.0983Z" fill="white"/>
<path fill-rule="evenodd" clip-rule="evenodd" d="M57.0707 27.0983C57.474 27.0983 57.801 26.7711 57.801 26.3674C57.801 25.9638 57.474 25.6366 57.0707 25.6366C56.6673 25.6366 56.3403 25.9638 56.3403 26.3674C56.3403 26.7711 56.6673 27.0983 57.0707 27.0983Z" fill="white"/>
<path fill-rule="evenodd" clip-rule="evenodd" d="M60.722 27.0983C61.1254 27.0983 61.4524 26.7711 61.4524 26.3674C61.4524 25.9638 61.1254 25.6366 60.722 25.6366C60.3187 25.6366 59.9917 25.9638 59.9917 26.3674C59.9917 26.7711 60.3187 27.0983 60.722 27.0983Z" fill="white"/>
<defs>
<filter id="filter0_d" x="1.22461" y="30.7524" width="13.8418" height="13.8468" filterUnits="userSpaceOnUse" color-interpolation-filters="sRGB">
<feFlood flood-opacity="0" result="BackgroundImageFix"/>
<feColorMatrix in="SourceAlpha" type="matrix" values="0 0 0 0 0 0 0 0 0 0 0 0 0 0 0 0 0 0 127 0"/>
<feOffset dy="4"/>
<feGaussianBlur stdDeviation="2"/>
<feColorMatrix type="matrix" values="0 0 0 0 0.227451 0 0 0 0 0.670588 0 0 0 0 0.8 0 0 0 0.15 0"/>
<feBlend mode="normal" in2="BackgroundImageFix" result="effect1_dropShadow"/>
<feBlend mode="normal" in="SourceGraphic" in2="effect1_dropShadow" result="shape"/>
</filter>
<filter id="filter1_d" x="4.87598" y="26.002" width="12.3814" height="12.3851" filterUnits="userSpaceOnUse" color-interpolation-filters="sRGB">
<feFlood flood-opacity="0" result="BackgroundImageFix"/>
<feColorMatrix in="SourceAlpha" type="matrix" values="0 0 0 0 0 0 0 0 0 0 0 0 0 0 0 0 0 0 127 0"/>
<feOffset dy="4"/>
<feGaussianBlur stdDeviation="2"/>
<feColorMatrix type="matrix" values="0 0 0 0 0.227451 0 0 0 0 0.670588 0 0 0 0 0.8 0 0 0 0.15 0"/>
<feBlend mode="normal" in2="BackgroundImageFix" result="effect1_dropShadow"/>
<feBlend mode="normal" in="SourceGraphic" in2="effect1_dropShadow" result="shape"/>
</filter>
<filter id="filter2_d" x="8.89209" y="31.4834" width="11.286" height="11.6542" filterUnits="userSpaceOnUse" color-interpolation-filters="sRGB">
<feFlood flood-opacity="0" result="BackgroundImageFix"/>
<feColorMatrix in="SourceAlpha" type="matrix" values="0 0 0 0 0 0 0 0 0 0 0 0 0 0 0 0 0 0 127 0"/>
<feOffset dy="4"/>
<feGaussianBlur stdDeviation="2"/>
<feColorMatrix type="matrix" values="0 0 0 0 0.227451 0 0 0 0 0.670588 0 0 0 0 0.8 0 0 0 0.15 0"/>
<feBlend mode="normal" in2="BackgroundImageFix" result="effect1_dropShadow"/>
<feBlend mode="normal" in="SourceGraphic" in2="effect1_dropShadow" result="shape"/>
</filter>
<filter id="filter3_d" x="16.0581" y="33.9175" width="13.176" height="14.4439" filterUnits="userSpaceOnUse" color-interpolation-filters="sRGB">
<feFlood flood-opacity="0" result="BackgroundImageFix"/>
<feColorMatrix in="SourceAlpha" type="matrix" values="0 0 0 0 0 0 0 0 0 0 0 0 0 0 0 0 0 0 127 0"/>
<feOffset dy="4"/>
<feGaussianBlur stdDeviation="2"/>
<feColorMatrix type="matrix" values="0 0 0 0 0.227451 0 0 0 0 0.670588 0 0 0 0 0.8 0 0 0 0.34 0"/>
<feBlend mode="normal" in2="BackgroundImageFix" result="effect1_dropShadow"/>
<feBlend mode="normal" in="SourceGraphic" in2="effect1_dropShadow" result="shape"/>
</filter>
<filter id="filter4_d" x="30.397" y="28.1775" width="14.4593" height="12.7156" filterUnits="userSpaceOnUse" color-interpolation-filters="sRGB">
<feFlood flood-opacity="0" result="BackgroundImageFix"/>
<feColorMatrix in="SourceAlpha" type="matrix" values="0 0 0 0 0 0 0 0 0 0 0 0 0 0 0 0 0 0 127 0"/>
<feOffset dy="4"/>
<feGaussianBlur stdDeviation="2"/>
<feColorMatrix type="matrix" values="0 0 0 0 0.227451 0 0 0 0 0.670588 0 0 0 0 0.8 0 0 0 0.18 0"/>
<feBlend mode="normal" in2="BackgroundImageFix" result="effect1_dropShadow"/>
<feBlend mode="normal" in="SourceGraphic" in2="effect1_dropShadow" result="shape"/>
</filter>
</defs>
</svg>
