<svg width="19" height="19" viewBox="0 0 19 19" fill="none" xmlns="http://www.w3.org/2000/svg">
<path d="M18.8509 13.3255C18.8334 13.2142 18.8067 13.1046 18.771 12.9977C18.4295 12.0473 17.4556 11.4786 16.4601 11.6482C16.1308 11.7001 15.8217 11.4752 15.7698 11.1458L15.2688 7.9405C14.8577 5.22851 12.8985 3.00759 10.259 2.26132C10.0189 0.792092 8.63328 -0.204378 7.164 0.0356875C5.71418 0.272584 4.721 1.62673 4.93068 3.08075C2.65552 4.52059 1.45456 7.17553 1.87543 9.83491L2.41225 13.2465C2.46141 13.5751 2.23775 13.8824 1.90993 13.9367C0.910296 14.081 0.157932 14.9211 0.124378 15.9306C0.11281 17.0507 1.01147 17.9681 2.13158 17.9797C2.13859 17.9797 2.14564 17.9798 2.15265 17.9798C2.25839 17.9797 2.36392 17.9716 2.46838 17.9555L4.54939 17.6282C5.27331 18.9206 6.90777 19.3814 8.20009 18.6574C8.88269 18.2751 9.36429 17.6137 9.51867 16.8467L17.1619 15.6439C18.2685 15.4701 19.0247 14.4321 18.8509 13.3255ZM7.39912 1.43856C7.46959 1.42759 7.54078 1.42193 7.61209 1.42165C8.06532 1.42407 8.48749 1.65229 8.73778 2.03013H8.70534C8.45319 2.02253 8.20076 2.02978 7.94945 2.05176C7.68478 2.07704 7.42178 2.11768 7.16179 2.17346C7.10565 2.18495 7.05023 2.20119 6.99477 2.2147C6.7818 2.26473 6.57287 2.32356 6.36802 2.3932C6.34774 2.3993 6.32678 2.40267 6.3065 2.41012C6.44915 1.90031 6.87616 1.52061 7.39912 1.43856ZM6.88527 17.6479C6.59874 17.6482 6.31969 17.5562 6.08953 17.3855L7.9826 17.0887C7.72784 17.4405 7.31961 17.6485 6.88527 17.6479ZM17.4235 13.9922C17.32 14.1622 17.1469 14.278 16.9502 14.3086L8.80675 15.5892L4.84959 16.2118L2.26017 16.6175C2.064 16.6495 1.86378 16.5925 1.71388 16.462C1.56089 16.3315 1.47393 16.1397 1.47659 15.9387C1.50586 15.5919 1.77473 15.3135 2.12021 15.272C3.18506 15.1013 3.91214 14.1027 3.74755 13.0369L3.2114 9.62535C2.86025 7.37468 3.95311 5.14449 5.94688 4.04288C5.9586 4.03896 5.97009 4.03444 5.98134 4.02937C6.62841 3.67878 7.34021 3.46387 8.07316 3.39791C8.29528 3.37838 8.51843 3.3741 8.74115 3.38508L8.85203 3.3905C9.08243 3.40445 9.31164 3.43333 9.53828 3.47706C9.54572 3.47706 9.55246 3.47706 9.55991 3.47706C11.8476 3.97197 13.5888 5.83331 13.9302 8.14887L14.4345 11.3542C14.6022 12.4211 15.6028 13.1502 16.6697 12.9829C17.0107 12.9163 17.3516 13.0981 17.4864 13.4183C17.5523 13.6093 17.5292 13.8199 17.4235 13.9922Z" fill="white"/>
</svg>
