<svg width="25" height="25" viewBox="0 0 25 25" fill="none" xmlns="http://www.w3.org/2000/svg">
<path fill-rule="evenodd" clip-rule="evenodd" d="M12.5 0C5.6 0 0 5.6 0 12.5C0 19.4 5.6 25 12.5 25C19.4 25 25 19.4 25 12.5C25 5.6 19.4 0 12.5 0ZM13.75 21.25H11.25V18.75H13.75V21.25ZM16.3375 11.5625L15.2125 12.7125C14.3125 13.625 13.75 14.375 13.75 16.25H11.25V15.625C11.25 14.25 11.8125 13 12.7125 12.0875L14.2625 10.5125C14.725 10.0625 15 9.43748 15 8.74998C15 7.37498 13.875 6.24998 12.5 6.24998C11.125 6.24998 10 7.37498 10 8.74998H7.50001C7.50001 5.98748 9.73751 3.74998 12.5 3.74998C15.2625 3.74998 17.5 5.98748 17.5 8.74998C17.5 9.84998 17.05 10.85 16.3375 11.5625Z" fill="#C5D9E8"/>
</svg>
