<svg width="365" height="181" viewBox="0 0 365 181" fill="none" xmlns="http://www.w3.org/2000/svg">
<rect x="0.997498" width="363" height="181" rx="10" fill="url(#paint0_linear)"/>
<mask id="mask0" mask-type="alpha" maskUnits="userSpaceOnUse" x="1" y="0" width="364" height="181">
<rect x="1.05127" width="363" height="181" rx="10" fill="url(#paint1_linear)"/>
</mask>
<g mask="url(#mask0)">
<g opacity="0.1">
<path d="M433.667 46.4714H184.831V267.961H433.667V46.4714Z" fill="white"/>
<path d="M437.56 38.4246H178.677V46.4716H437.56V38.4246Z" fill="white"/>
<path d="M345.831 66.491H184.831V107.66H345.831V66.491Z" fill="#EAA0ED"/>
<path d="M206.733 101.862C202.969 101.862 199.431 100.317 196.768 97.5167C194.105 94.7159 192.641 90.9875 192.641 87.0241C192.641 83.0608 194.108 79.3352 196.768 76.5315C199.431 73.7308 202.969 72.1865 206.733 72.1865C210.497 72.1865 214.036 73.7308 216.698 76.5315C219.361 79.3352 220.825 83.0608 220.825 87.0241C220.825 90.9875 219.358 94.713 216.698 97.5167C214.036 100.32 210.497 101.862 206.733 101.862ZM206.733 73.5546C203.315 73.5546 200.103 74.955 197.685 77.5003C195.268 80.0457 193.938 83.4277 193.938 87.027C193.938 90.6264 195.268 94.0084 197.685 96.5538C200.103 99.0991 203.315 100.499 206.733 100.499C210.151 100.499 213.364 99.0991 215.781 96.5538C218.198 94.0084 219.528 90.6264 219.528 87.027C219.528 83.4277 218.198 80.0457 215.781 77.5003C213.364 74.955 210.151 73.5546 206.733 73.5546Z" fill="white"/>
<path d="M215.834 84.605H209.031V77.4417H204.433V84.605H197.632V89.4462H204.433V96.6096H209.031V89.4462H215.834V84.605Z" fill="white"/>
<path d="M232 79.9177H234.992V85.5839H240.51V79.9177H243.502V94.2357H240.51V88.4874H234.992V94.2357H232V79.9177Z" fill="white"/>
<path d="M246.164 87.077C246.164 83.005 249.215 79.6729 253.411 79.6729C257.607 79.6729 260.619 82.9668 260.619 87.077C260.619 91.1489 257.568 94.4811 253.372 94.4811C249.176 94.4811 246.164 91.1871 246.164 87.077ZM257.49 87.077C257.49 84.6226 255.781 82.5764 253.372 82.5764C250.963 82.5764 249.293 84.5815 249.293 87.077C249.293 89.5313 251.002 91.5776 253.411 91.5776C255.82 91.5776 257.49 89.5724 257.49 87.077Z" fill="white"/>
<path d="M262.253 92.1495L264.02 89.9212C265.245 90.984 266.527 91.6592 268.08 91.6592C269.304 91.6592 270.043 91.1484 270.043 90.2676C270.043 89.4691 269.577 89.061 267.305 88.4474C264.564 87.7105 262.796 86.912 262.796 84.029C262.796 81.4308 264.779 79.7134 267.556 79.7134C269.538 79.7134 271.228 80.3681 272.608 81.5336L271.055 83.9057C269.851 83.025 268.666 82.4936 267.52 82.4936C266.374 82.4936 265.772 83.0455 265.772 83.7824C265.772 84.7248 266.354 85.0301 268.705 85.6643C271.462 86.4217 273.018 87.4639 273.018 90.0005C273.018 92.8423 270.958 94.4394 268.024 94.4394C265.961 94.4394 263.884 93.682 262.253 92.1495Z" fill="white"/>
<path d="M275.62 79.9165H281.177C284.422 79.9165 286.382 81.9422 286.382 84.9074C286.382 88.2219 283.934 89.9394 280.884 89.9394H278.612V94.2345H275.62V79.9165ZM280.982 87.1386C282.476 87.1386 283.352 86.1962 283.352 84.9279C283.352 83.5158 282.42 82.7584 280.923 82.7584H278.612V87.1357H280.982V87.1386Z" fill="white"/>
<path d="M288.733 79.9165H291.725V94.2345H288.733V79.9165Z" fill="white"/>
<path d="M298.291 82.82H294.153V79.9165H305.421V82.82H301.283V94.2345H298.291V82.82Z" fill="white"/>
<path d="M310.629 79.8137H313.387L319.214 94.2344H316.086L314.842 91.0226H309.093L307.849 94.2344H304.799L310.629 79.8137ZM313.777 88.2424L311.971 83.598L310.164 88.2424H313.777Z" fill="white"/>
<path d="M321.317 79.9165H324.308V91.372H331.089V94.2345H321.317V79.9165Z" fill="white"/>
<path d="M184.831 49.234L433.667 57.1343V46.4714H184.831V49.234Z" fill="#DFEBFD"/>
<path d="M441.001 140.412H180.964V150.047H441.001V140.412Z" fill="#DFEBFD"/>
</g>
</g>
<defs>
<linearGradient id="paint0_linear" x1="-16.8284" y1="90.9249" x2="365.198" y2="159.904" gradientUnits="userSpaceOnUse">
<stop offset="0.411458" stop-color="#E34A8A"/>
<stop offset="1" stop-color="#B954A4"/>
</linearGradient>
<linearGradient id="paint1_linear" x1="-16.7746" y1="90.9249" x2="365.252" y2="159.904" gradientUnits="userSpaceOnUse">
<stop offset="0.411458" stop-color="#E34A8A"/>
<stop offset="1" stop-color="#B954A4"/>
</linearGradient>
</defs>
</svg>
