<svg width="364" height="181" viewBox="0 0 364 181" fill="none" xmlns="http://www.w3.org/2000/svg">
<rect x="0.999969" width="363" height="181" rx="10" fill="url(#paint0_linear)"/>
<mask id="mask0" mask-type="alpha" maskUnits="userSpaceOnUse" x="0" y="0" width="364" height="181">
<rect x="0.766663" width="363" height="181" rx="10" fill="url(#paint1_linear)"/>
</mask>
<g mask="url(#mask0)">
<path d="M355.439 77.4466L307.04 103.548L239.716 47.1351C234.19 42.5041 222.634 43.0832 218.447 48.3455L183.613 92.1288L150.873 133.281L87.8204 93.655C82.3767 90.1819 73.3339 90.7081 68.8125 94.5496L-6.55045 158.699C-8.14159 160.014 -8.97891 161.699 -8.97891 163.382V257.106C-8.97891 261.474 -3.36967 265 3.5817 265H363.645C370.596 265 376.206 261.474 376.206 257.106V83.4459C376.205 76.71 363.561 73.0789 355.439 77.4466Z" fill="white" fill-opacity="0.1"/>
</g>
<defs>
<linearGradient id="paint0_linear" x1="22.4242" y1="90.9249" x2="365.929" y2="172.917" gradientUnits="userSpaceOnUse">
<stop stop-color="#875FC0"/>
<stop offset="1" stop-color="#5B4ABC"/>
</linearGradient>
<linearGradient id="paint1_linear" x1="22.1909" y1="90.9249" x2="365.696" y2="172.917" gradientUnits="userSpaceOnUse">
<stop stop-color="#875FC0"/>
<stop offset="1" stop-color="#5B4ABC"/>
</linearGradient>
</defs>
</svg>
