<svg width="32" height="32" viewBox="0 0 32 32" fill="none" xmlns="http://www.w3.org/2000/svg">
<path fill-rule="evenodd" clip-rule="evenodd" d="M0.35342 17.1356L0.428892 17.2377L0.5277 17.3537L0.585787 17.4142L14.5858 31.4142C15.3668 32.1953 16.6332 32.1953 17.4142 31.4142C18.1542 30.6743 18.1931 29.4988 17.531 28.713L17.4142 28.5858L6.83 18.001L30 18C31.1046 18 32 17.1046 32 16C32 14.9456 31.1841 14.0818 30.1493 14.0055L30 14L6.828 14.001L17.4142 3.41421C18.1542 2.67427 18.1931 1.49879 17.531 0.713001L17.4142 0.585786C16.6743 -0.154154 15.4988 -0.193099 14.713 0.468954L14.5858 0.585786L0.585787 14.5858C0.536703 14.6349 0.490703 14.6859 0.447788 14.7385L0.350746 14.868L0.276794 14.9839L0.266201 15.002C0.163922 15.1796 0.0879327 15.3746 0.0438938 15.5813L0.0169754 15.7382L0.00334549 15.8833L0 16L0.00234032 16.0976L0.0134201 16.2321L0.0405998 16.4021L0.075592 16.5461L0.136515 16.7276L0.20417 16.8814C0.247751 16.97 0.2977 17.0549 0.35342 17.1356Z" fill="#19191D"/>
<path fill-rule="evenodd" clip-rule="evenodd" d="M0.35342 17.1356L0.428892 17.2377L0.5277 17.3537L0.585787 17.4142L14.5858 31.4142C15.3668 32.1953 16.6332 32.1953 17.4142 31.4142C18.1542 30.6743 18.1931 29.4988 17.531 28.713L17.4142 28.5858L6.83 18.001L30 18C31.1046 18 32 17.1046 32 16C32 14.9456 31.1841 14.0818 30.1493 14.0055L30 14L6.828 14.001L17.4142 3.41421C18.1542 2.67427 18.1931 1.49879 17.531 0.713001L17.4142 0.585786C16.6743 -0.154154 15.4988 -0.193099 14.713 0.468954L14.5858 0.585786L0.585787 14.5858C0.536703 14.6349 0.490703 14.6859 0.447788 14.7385L0.350746 14.868L0.276794 14.9839L0.266201 15.002C0.163922 15.1796 0.0879327 15.3746 0.0438938 15.5813L0.0169754 15.7382L0.00334549 15.8833L0 16L0.00234032 16.0976L0.0134201 16.2321L0.0405998 16.4021L0.075592 16.5461L0.136515 16.7276L0.20417 16.8814C0.247751 16.97 0.2977 17.0549 0.35342 17.1356Z" fill="#19191D"/>
</svg>
