<svg width="17" height="17" viewBox="0 0 17 17" fill="none" xmlns="http://www.w3.org/2000/svg">
<path fill-rule="evenodd" clip-rule="evenodd" d="M14.0345 11.9311C14.4154 11.9311 14.7242 12.2398 14.7242 12.6207C14.7242 12.9843 14.4428 13.2821 14.086 13.3085L14.0345 13.3104H3.00002C2.61913 13.3104 2.31036 13.0016 2.31036 12.6207C2.31036 12.2571 2.5917 11.9593 2.94855 11.9329L3.00002 11.9311H14.0345ZM14.0345 7.79312C14.4154 7.79312 14.7242 8.10189 14.7242 8.48277C14.7242 8.84635 14.4428 9.14421 14.086 9.17054L14.0345 9.17243H3.00002C2.61913 9.17243 2.31036 8.86366 2.31036 8.48277C2.31036 8.1192 2.5917 7.82134 2.94855 7.79501L3.00002 7.79312H14.0345ZM14.0345 3.65518C14.4154 3.65518 14.7242 3.96395 14.7242 4.34484C14.7242 4.70841 14.4428 5.00627 14.086 5.0326L14.0345 5.03449H3.00002C2.61913 5.03449 2.31036 4.72572 2.31036 4.34484C2.31036 3.98126 2.5917 3.6834 2.94855 3.65707L3.00002 3.65518H14.0345Z" fill="white"/>
</svg>
