<svg width="16" height="18" viewBox="0 0 16 18" fill="none" xmlns="http://www.w3.org/2000/svg">
<path fill-rule="evenodd" clip-rule="evenodd" d="M1.77778 16.2H14.2221V6.3H1.77778V16.2ZM14.2222 1.8H13.3333V0H11.5556V1.8H4.44444V0H2.66667V1.8H1.77778C0.791111 1.8 0.00888889 2.61 0.00888889 3.6L0 16.2C0 17.19 0.791111 18 1.77778 18H14.2222C15.2 18 16 17.19 16 16.2V3.6C16 2.61 15.2 1.8 14.2222 1.8ZM10.6667 9.9H12.4444V8.1H10.6667V9.9ZM7.11111 9.9H8.88889V8.1H7.11111V9.9ZM3.55556 9.9H5.33333V8.1H3.55556V9.9Z" fill="#2F80ED"/>
</svg>
