<svg width="25" height="25" viewBox="0 0 25 25" fill="none" xmlns="http://www.w3.org/2000/svg">
<g clip-path="url(#clip0)">
<path d="M12.5 25C19.4036 25 25 19.4036 25 12.5C25 5.59644 19.4036 0 12.5 0C5.59644 0 0 5.59644 0 12.5C0 19.4036 5.59644 25 12.5 25Z" fill="#FF0000"/>
<path d="M24.9998 12.5001C24.9998 19.3751 19.3748 25.0001 12.4998 25.0001C8.51543 25.0001 4.99981 23.2032 2.73416 20.3126C4.84353 22.0314 7.57791 23.047 10.5466 23.047C17.4216 23.047 23.0466 17.422 23.0466 10.547C23.0466 7.57825 22.031 4.84387 20.3123 2.7345C23.2029 5.00004 24.9998 8.51566 24.9998 12.5001Z" fill="#FF0000"/>
<path d="M18.2032 18.2032C17.7345 18.6719 16.9532 18.6719 16.4844 18.2032L12.5001 14.2188L8.51571 18.2032C8.04698 18.6719 7.26569 18.6719 6.79695 18.2032C6.32822 17.7345 6.32822 16.9532 6.79695 16.4844L10.7813 12.5001L6.79695 8.51571C6.32822 8.04698 6.32822 7.26569 6.79695 6.79695C7.26569 6.32822 8.04698 6.32822 8.51571 6.79695L12.5001 10.7813L16.4844 6.79695C16.9532 6.32822 17.7345 6.32822 18.2032 6.79695C18.6719 7.26569 18.6719 8.04698 18.2032 8.51571L14.2188 12.5001L18.2032 16.4844C18.6719 16.9532 18.6719 17.7344 18.2032 18.2032Z" fill="white"/>
</g>
<defs>
<clipPath id="clip0">
<rect width="25" height="25" fill="white"/>
</clipPath>
</defs>
</svg>
