<svg width="198" height="162" viewBox="0 0 198 162" fill="none" xmlns="http://www.w3.org/2000/svg">
<g clip-path="url(#clip0)" filter="url(#filter0_d)">
<path d="M143.016 124.271C168.001 100.677 168.001 62.4233 143.016 38.8293C118.032 15.2352 77.5245 15.2352 52.5403 38.8293C27.556 62.4233 27.556 100.677 52.5403 124.271C77.5245 147.865 118.032 147.865 143.016 124.271Z" fill="#A14DA7"/>
<path opacity="0.73" d="M149.924 96.0076V116.373C147.562 119.476 144.892 122.385 142.017 125.101V96.0076C142.017 95.8136 138.115 92.8073 135.137 90.5769V89.2192L138.731 88.3464C140.169 87.9585 141.709 88.1524 143.147 88.6373C143.763 88.9282 144.379 89.1222 145.098 89.3161V91.9345C148.076 94.359 149.924 95.8136 149.924 96.0076Z" fill="#66A3FF"/>
<path d="M6.77246 4.073L25.565 45.6763L39.223 36.7544L47.2329 47.7128L48.6706 29.2871L65.2039 19.7833L6.77246 4.073Z" fill="#FFB031"/>
<path d="M42.3038 34.8148L25.5651 45.6763L39.2231 36.7544L47.233 47.7128L48.6707 29.2871L22.1763 14.4496L42.3038 34.8148Z" fill="#FF9433"/>
<path d="M48.2599 33.8451L22.1763 14.4496L48.6707 29.2871L48.2599 33.8451Z" fill="#FF7733"/>
<path d="M47.5413 52.8526C47.4386 52.0768 47.2332 51.204 47.0278 50.4281L48.3628 50.1372C48.5682 50.913 48.7736 51.7858 48.979 52.6586L47.5413 52.8526Z" fill="#00C8B7"/>
<path d="M32.0348 81.0729C30.0836 80.9759 28.2352 80.3941 26.6948 79.4243L27.4137 78.3575C28.7486 79.2303 30.3917 79.7152 32.1375 79.8122L32.0348 81.0729ZM37.4774 80.1031L36.8613 78.9394C38.1963 78.2606 39.634 77.2908 40.8663 75.9331L41.8932 76.8059C40.5582 78.2606 39.0178 79.3273 37.4774 80.1031ZM22.8952 75.4482C22.1764 73.9936 21.7656 72.4419 21.7656 70.8903C21.7656 70.7933 21.7656 70.5993 21.7656 70.5024V70.2114L23.1006 70.3084V70.5024C23.1006 70.5993 23.1006 70.6963 23.1006 70.7933C23.1006 72.151 23.4087 73.5087 24.1275 74.7694L22.8952 75.4482ZM74.4464 75.1573V73.8966C76.1921 73.8966 77.9379 73.7996 79.7863 73.7026L79.889 74.9633C78.0406 75.0603 76.1921 75.0603 74.4464 75.1573ZM69.1064 74.9633L68.2849 74.8663C66.6418 74.7694 65.2041 74.5754 63.7665 74.2845L63.9718 73.0238C65.3068 73.2177 66.7445 73.4117 68.3876 73.5087L69.2091 73.6056L69.1064 74.9633ZM85.229 74.3815L85.0236 73.1208C86.7694 72.9268 88.5151 72.6359 90.2609 72.3449L90.4663 73.6056C88.7205 73.8966 86.9747 74.1875 85.229 74.3815ZM58.4265 73.1208C56.8861 72.6359 55.3458 71.957 54.1135 71.2782C53.9081 71.1812 53.7027 71.0842 53.4973 70.8903L54.2162 69.8235C54.4215 69.9205 54.6269 70.0175 54.8323 70.1145C56.0646 70.7933 57.5023 71.3752 58.94 71.8601L58.4265 73.1208ZM45.0766 72.6359L43.947 72.054C44.7685 70.5993 45.5901 69.1447 46.1035 67.593L47.3358 67.981C46.7197 69.5326 46.0008 71.0842 45.0766 72.6359ZM95.8062 72.4419L95.4981 71.1812C97.1412 70.7933 98.887 70.4054 100.633 69.9205L101.043 71.0842C99.195 71.6661 97.4493 72.054 95.8062 72.4419ZM106.178 69.7266L105.767 68.5628C107.41 68.0779 109.156 67.4961 110.799 66.9142L111.21 68.0779C109.567 68.6598 107.821 69.1447 106.178 69.7266ZM48.9789 67.981C47.7466 67.1082 46.4116 66.2354 44.9739 65.5565L44.5631 65.3626L45.1793 64.1988C45.3847 64.2958 45.4874 64.3928 45.6928 64.3928C47.2331 65.1686 48.5681 66.1384 49.8004 66.9142L48.9789 67.981ZM25.0518 66.1384L24.1275 65.2656C25.2571 64.1988 26.9002 63.326 29.0567 62.7442L29.4675 63.9079C27.4137 64.4898 25.976 65.1686 25.0518 66.1384ZM39.634 63.714C38.0936 63.423 36.5532 63.2291 35.0128 63.2291H34.4994V61.9684C36.3478 61.9684 38.1963 62.0653 39.942 62.4533L39.634 63.714ZM48.7735 62.9381L47.4385 62.7442C47.7466 61.0956 47.952 59.447 47.952 57.7983H49.287C49.287 59.5439 49.0816 61.1925 48.7735 62.9381Z" fill="#00C8B7"/>
<path d="M116.345 66.2354L115.831 65.0716C116.653 64.7807 117.474 64.4898 118.296 64.1989L118.809 65.3626C117.988 65.6535 117.166 65.9445 116.345 66.2354Z" fill="#00C8B7"/>
<path d="M158.243 96.8803C157.524 96.8803 157.01 96.3954 156.908 95.7166C156.805 95.0377 157.421 94.4559 158.14 94.3589C166.15 93.5831 173.544 89.9949 178.986 84.1763C179.5 83.6914 180.321 83.5944 180.835 84.0793C181.348 84.5642 181.451 85.34 180.938 85.8249C175.084 92.1284 167.074 96.1045 158.345 96.8803C158.345 96.8803 158.345 96.8803 158.243 96.8803Z" fill="#00C8B7"/>
<path d="M142.017 96.0075L95.6005 121.803L49.2866 96.0075V95.9105C49.2866 95.7165 51.8539 93.68 55.7562 90.7707L55.8589 90.6737C68.6953 80.879 95.6005 60.8047 95.6005 60.8047C95.6005 60.8047 122.608 80.879 135.342 90.7707C139.347 93.777 142.017 95.8135 142.017 96.0075Z" fill="#7A4C08"/>
<path fill-rule="evenodd" clip-rule="evenodd" d="M61.0369 21.8955H133.63C135.062 21.894 136.223 22.9837 136.223 24.3279C136.223 24.3284 136.223 24.3289 136.221 24.3294L136.149 131.029C136.146 132.372 134.986 133.461 133.555 133.462H61.0369C59.6051 133.462 58.4443 132.373 58.4443 131.029V24.3294C58.4443 22.9852 59.6051 21.8955 61.0369 21.8955Z" fill="#B1C1FF"/>
<path d="M122.563 45.3177C127.52 45.3177 131.538 41.5294 131.538 36.8562C131.538 32.183 127.52 28.3947 122.563 28.3947C117.607 28.3947 113.589 32.183 113.589 36.8562C113.589 41.5294 117.607 45.3177 122.563 45.3177Z" fill="white"/>
<path d="M122.563 42.1838C125.684 42.1838 128.214 39.7986 128.214 36.8562C128.214 33.9138 125.684 31.5286 122.563 31.5286C119.442 31.5286 116.913 33.9138 116.913 36.8562C116.913 39.7986 119.442 42.1838 122.563 42.1838Z" fill="#13BB84"/>
<path fill-rule="evenodd" clip-rule="evenodd" d="M126.219 35.0155L122.226 39.6767L119.572 37.9156L120.443 36.6537L121.937 37.6445L125.029 34.0356L126.219 35.0155Z" fill="white"/>
<path fill-rule="evenodd" clip-rule="evenodd" d="M116.279 53.2345H126.251V62.6362H116.279V53.2345ZM116.851 53.7723V62.0984H125.68V53.7723H116.851Z" fill="#E7EEFF"/>
<path fill-rule="evenodd" clip-rule="evenodd" d="M124.922 56.0947L120.929 60.7559L118.274 58.9949L119.146 57.7329L120.639 58.7238L123.731 55.1149L124.922 56.0947Z" fill="white"/>
<path fill-rule="evenodd" clip-rule="evenodd" d="M124.922 76.1518L120.929 80.8129L118.274 79.0519L119.146 77.7899L120.639 78.7808L123.731 75.1719L124.922 76.1518Z" fill="white"/>
<path fill-rule="evenodd" clip-rule="evenodd" d="M124.922 96.2088L120.929 100.87L118.274 99.1089L119.146 97.8469L120.639 98.8378L123.731 95.2289L124.922 96.2088Z" fill="white"/>
<path fill-rule="evenodd" clip-rule="evenodd" d="M124.922 115.639L120.929 120.3L118.274 118.539L119.146 117.277L120.639 118.268L123.731 114.659L124.922 115.639Z" fill="white"/>
<path fill-rule="evenodd" clip-rule="evenodd" d="M116.279 73.2915H126.251V82.6932H116.279V73.2915ZM116.851 73.8293V82.1554H125.68V73.8293H116.851Z" fill="#E7EEFF"/>
<path fill-rule="evenodd" clip-rule="evenodd" d="M116.279 92.7217H126.251V102.75H116.279V92.7217ZM116.851 93.2953V102.177H125.68V93.2953H116.851Z" fill="#E7EEFF"/>
<path fill-rule="evenodd" clip-rule="evenodd" d="M116.279 112.779H126.251V122.18H116.279V112.779ZM116.851 113.316V121.643H125.68V113.316H116.851Z" fill="#E7EEFF"/>
<path fill-rule="evenodd" clip-rule="evenodd" d="M106.308 34.4311H66.4219V33.8043H106.308V34.4311Z" fill="#E7EEFF"/>
<path fill-rule="evenodd" clip-rule="evenodd" d="M106.308 38.8186H66.4219V38.1918H106.308V38.8186Z" fill="#E7EEFF"/>
<path fill-rule="evenodd" clip-rule="evenodd" d="M106.308 43.2061H66.4219V42.5793H106.308V43.2061Z" fill="#E7EEFF"/>
<path fill-rule="evenodd" clip-rule="evenodd" d="M106.308 53.8613H66.4219V53.2345H106.308V53.8613Z" fill="#E7EEFF"/>
<path fill-rule="evenodd" clip-rule="evenodd" d="M106.308 58.2487H66.4219V57.6219H106.308V58.2487Z" fill="#E7EEFF"/>
<path fill-rule="evenodd" clip-rule="evenodd" d="M106.308 62.6363H66.4219V62.0095H106.308V62.6363Z" fill="#E7EEFF"/>
<path fill-rule="evenodd" clip-rule="evenodd" d="M106.308 73.9183H66.4219V73.2915H106.308V73.9183Z" fill="#E7EEFF"/>
<path fill-rule="evenodd" clip-rule="evenodd" d="M106.308 78.3057H66.4219V77.679H106.308V78.3057Z" fill="#E7EEFF"/>
<path fill-rule="evenodd" clip-rule="evenodd" d="M106.308 82.6932H66.4219V82.0664H106.308V82.6932Z" fill="#E7EEFF"/>
<path fill-rule="evenodd" clip-rule="evenodd" d="M106.308 94.0126H66.4219V93.3859H106.308V94.0126Z" fill="#E7EEFF"/>
<path fill-rule="evenodd" clip-rule="evenodd" d="M106.308 97.2623H66.4219V96.6355H106.308V97.2623Z" fill="#E7EEFF"/>
<path fill-rule="evenodd" clip-rule="evenodd" d="M106.308 102.75H66.4219V102.123H106.308V102.75Z" fill="#E7EEFF"/>
<path fill-rule="evenodd" clip-rule="evenodd" d="M106.308 113.405H66.4219V112.779H106.308V113.405Z" fill="#E7EEFF"/>
<path fill-rule="evenodd" clip-rule="evenodd" d="M106.308 117.793H66.4219V117.166H106.308V117.793Z" fill="#E7EEFF"/>
<path fill-rule="evenodd" clip-rule="evenodd" d="M106.308 122.18H66.4219V121.554H106.308V122.18Z" fill="#E7EEFF"/>
<path d="M142.017 96.0076V137.999C142.017 140.908 139.45 143.332 136.369 143.332H54.9347C51.8539 143.332 49.2866 140.908 49.2866 137.999V96.0076L95.7032 121.804L142.017 96.0076Z" fill="#FFB031"/>
<path d="M140.476 141.781L110.593 113.56L95.6003 121.9L80.6073 113.56L50.7241 141.781C51.751 142.848 53.1887 143.429 54.8318 143.429H136.369C138.012 143.429 139.45 142.751 140.476 141.781Z" fill="#FF9433"/>
<path d="M151.362 38.306C138.012 39.5668 127.332 49.9433 126.408 62.5504C125.895 68.8539 127.846 74.6725 131.337 79.4244C132.672 81.17 132.878 83.4975 131.953 85.534L129.797 90.5768L138.834 88.3463C140.271 87.9584 141.812 88.0554 143.249 88.6373C147.46 90.3829 152.081 91.1587 157.113 90.6738C170.257 89.5101 180.834 79.5214 182.067 67.1083C183.71 50.5252 169.025 36.7544 151.362 38.306Z" fill="#00C8B7"/>
<path d="M154.956 77.8729L156.497 76.4182C156.497 76.4182 155.264 73.7029 160.399 69.1449C163.48 66.4296 164.096 63.8112 163.89 61.6777C163.48 58.2835 160.501 55.4711 156.907 55.0832C154.648 54.8893 151.875 55.4711 149 58.3805C144.174 63.2293 141.298 62.0656 141.298 62.0656L139.758 63.5203L154.956 77.8729Z" fill="white"/>
<path d="M143.147 68.9509C141.914 70.5026 142.12 72.733 143.557 74.0907C144.995 75.4484 147.357 75.6424 149 74.4786L143.147 68.9509Z" fill="white"/>
<path d="M164.917 56.7318L163.993 57.6046C163.274 56.5378 162.247 55.5681 161.015 54.8892L161.939 54.0164C162.761 53.2406 164.096 53.2406 164.917 54.0164C165.636 54.7923 165.636 55.956 164.917 56.7318Z" fill="white"/>
<path d="M153.519 38.209C163.48 41.0214 170.668 49.6524 170.668 60.0289C170.668 72.636 159.885 82.8186 146.535 82.8186C139.552 82.8186 133.288 80.0063 128.873 75.4483C129.591 76.903 130.413 78.2607 131.337 79.5214C132.672 81.267 132.878 83.5944 131.953 85.631L129.797 90.6738L138.834 88.4433C140.271 88.0554 141.812 88.1524 143.249 88.7342C147.46 90.4798 152.081 91.2556 157.113 90.7707C170.257 89.607 180.834 79.6184 182.067 67.2053C183.607 51.204 170.155 37.8211 153.519 38.209Z" fill="#08B29D"/>
<path d="M8.31287 16.3891L14.3717 29.578C14.6797 30.2568 14.3717 31.0327 13.6528 31.3236L13.4474 31.4206C12.7286 31.7115 11.9071 31.4206 11.599 30.7417L5.74558 17.4558C5.43751 16.777 5.84827 16.0012 6.56711 15.7102C7.28595 15.4193 8.10748 15.7102 8.31287 16.3891Z" fill="#FFB031"/>
<path d="M32.2401 109.196C29.7755 109.196 27.7217 111.136 27.7217 113.463C27.7217 115.791 29.7755 117.73 32.2401 117.73C34.7047 117.73 36.7585 115.791 36.7585 113.463C36.6558 111.136 34.7047 109.196 32.2401 109.196ZM32.2401 115.112C31.2132 115.112 30.3917 114.336 30.3917 113.366C30.3917 112.397 31.2132 111.621 32.2401 111.621C33.267 111.621 34.0886 112.397 34.0886 113.366C33.9859 114.336 33.1643 115.112 32.2401 115.112Z" fill="#A14DA7"/>
<path d="M152.081 126.265C149.616 126.265 147.562 128.204 147.562 130.532C147.562 132.859 149.616 134.799 152.081 134.799C154.546 134.799 156.599 132.859 156.599 130.532C156.599 128.204 154.546 126.265 152.081 126.265ZM152.081 132.277C151.054 132.277 150.232 131.501 150.232 130.532C150.232 129.562 151.054 128.786 152.081 128.786C153.108 128.786 153.929 129.562 153.929 130.532C153.929 131.501 153.108 132.277 152.081 132.277Z" fill="#A14DA7"/>
<path d="M188.639 60.7078C186.791 60.7078 185.25 62.1624 185.25 63.908C185.25 65.6536 186.791 67.1083 188.639 67.1083C190.488 67.1083 192.028 65.6536 192.028 63.908C192.131 62.1624 190.59 60.7078 188.639 60.7078ZM188.639 65.2657C187.92 65.2657 187.202 64.6838 187.202 63.908C187.202 63.2292 187.818 62.5503 188.639 62.5503C189.358 62.5503 190.077 63.1322 190.077 63.908C190.077 64.5869 189.461 65.2657 188.639 65.2657Z" fill="#A14DA7"/>
<path d="M128.359 8.92188C126.408 8.92188 124.765 10.4735 124.765 12.3161C124.765 14.1587 126.408 15.7103 128.359 15.7103C130.31 15.7103 131.954 14.1587 131.954 12.3161C131.954 10.4735 130.413 8.92188 128.359 8.92188ZM128.359 13.7707C127.538 13.7707 126.922 13.1889 126.922 12.4131C126.922 11.6372 127.538 11.0554 128.359 11.0554C129.181 11.0554 129.797 11.6372 129.797 12.4131C129.797 13.0919 129.181 13.7707 128.359 13.7707Z" fill="#A14DA7"/>
<path d="M12.5232 88.6373C10.4694 88.6373 8.72363 90.2859 8.72363 92.2255C8.72363 94.165 10.4694 95.8136 12.5232 95.8136C14.577 95.8136 16.3228 94.165 16.3228 92.2255C16.3228 90.189 14.577 88.6373 12.5232 88.6373Z" fill="#A14DA7"/>
<path d="M165.328 100.565C163.788 100.565 162.556 101.729 162.556 103.184C162.556 104.638 163.788 105.802 165.328 105.802C166.869 105.802 168.101 104.638 168.101 103.184C168.101 101.729 166.869 100.565 165.328 100.565Z" fill="#A14DA7"/>
<path d="M73.6246 9.98865C71.3654 9.98865 69.6196 11.7342 69.6196 13.7708C69.6196 15.8073 71.4681 17.5529 73.6246 17.5529C75.8838 17.5529 77.6296 15.8073 77.6296 13.7708C77.6296 11.7342 75.7811 9.98865 73.6246 9.98865Z" fill="#A14DA7"/>
<path d="M95.2925 148.472C93.6494 148.472 92.3145 149.733 92.3145 151.285C92.3145 152.836 93.6494 154.097 95.2925 154.097C96.9356 154.097 98.2706 152.836 98.2706 151.285C98.1679 149.733 96.8329 148.472 95.2925 148.472Z" fill="#A14DA7"/>
<path d="M152.389 24.7292C150.438 24.7292 148.897 26.1839 148.897 28.0265C148.897 29.869 150.438 31.3237 152.389 31.3237C154.34 31.3237 155.88 29.869 155.88 28.0265C155.778 26.1839 154.237 24.7292 152.389 24.7292Z" fill="#A14DA7"/>
<path d="M29.6728 53.8225C30.7504 53.8225 31.624 52.9975 31.624 51.9799C31.624 50.9623 30.7504 50.1373 29.6728 50.1373C28.5952 50.1373 27.7217 50.9623 27.7217 51.9799C27.7217 52.9975 28.5952 53.8225 29.6728 53.8225Z" fill="#A14DA7"/>
<path d="M189.872 44.4156C188.023 44.4156 186.483 45.8703 186.483 47.6159C186.483 49.3615 188.023 50.8162 189.872 50.8162C191.72 50.8162 193.261 49.3615 193.261 47.6159C193.261 45.7733 191.72 44.4156 189.872 44.4156Z" fill="#A14DA7"/>
<path d="M10.6746 65.2657C11.8656 65.2657 12.8311 64.3539 12.8311 63.2292C12.8311 62.1044 11.8656 61.1926 10.6746 61.1926C9.48357 61.1926 8.51807 62.1044 8.51807 63.2292C8.51807 64.3539 9.48357 65.2657 10.6746 65.2657Z" fill="#A14DA7"/>
<path d="M100.838 3.20023L102.173 1.93953C102.687 1.45464 102.687 0.775798 102.173 0.290911C101.66 -0.193976 100.941 -0.193976 100.427 0.290911L99.0923 1.55162L97.7573 0.290911C97.2439 -0.193976 96.525 -0.193976 96.0116 0.290911C95.4981 0.775798 95.4981 1.45464 96.0116 1.93953L97.4492 3.20023L96.1142 4.46094C95.6008 4.94582 95.6008 5.62466 96.1142 6.10955C96.6277 6.59444 97.3465 6.59444 97.86 6.10955L99.0923 4.84884L100.427 6.10955C100.941 6.59444 101.66 6.59444 102.173 6.10955C102.687 5.62466 102.687 4.94582 102.173 4.46094L100.838 3.20023Z" fill="#A14DA7"/>
<path d="M9.13444 41.7002L10.4694 40.4395C10.9829 39.9546 10.9829 39.2758 10.4694 38.7909C9.95598 38.306 9.23714 38.306 8.72368 38.7909L7.38869 40.0516L6.0537 38.7909C5.54024 38.306 4.8214 38.306 4.30794 38.7909C3.79449 39.2758 3.79449 39.9546 4.30794 40.4395L5.74563 41.7002L4.41064 42.9609C3.89718 43.4458 3.89718 44.1247 4.41064 44.6096C4.92409 45.0944 5.64293 45.0944 6.15639 44.6096L7.49138 43.3489L8.82637 44.6096C9.33983 45.0944 10.0587 45.0944 10.5721 44.6096C11.0856 44.1247 11.0856 43.4458 10.5721 42.9609L9.13444 41.7002Z" fill="#A14DA7"/>
<path d="M167.998 119.379L169.128 118.312C169.538 117.925 169.538 117.343 169.128 116.955C168.717 116.567 168.101 116.567 167.69 116.955L166.56 118.022L165.431 116.955C165.02 116.567 164.404 116.567 163.993 116.955C163.582 117.343 163.582 117.925 163.993 118.312L165.123 119.379L163.993 120.446C163.582 120.834 163.582 121.416 163.993 121.804C164.404 122.192 165.02 122.192 165.431 121.804L166.56 120.737L167.69 121.804C168.101 122.192 168.717 122.192 169.128 121.804C169.538 121.416 169.538 120.834 169.128 120.446L167.998 119.379Z" fill="#A14DA7"/>
</g>
<defs>
<filter id="filter0_d" x="0" y="0" width="197.26" height="162" filterUnits="userSpaceOnUse" color-interpolation-filters="sRGB">
<feFlood flood-opacity="0" result="BackgroundImageFix"/>
<feColorMatrix in="SourceAlpha" type="matrix" values="0 0 0 0 0 0 0 0 0 0 0 0 0 0 0 0 0 0 127 0"/>
<feOffset dy="4"/>
<feGaussianBlur stdDeviation="2"/>
<feColorMatrix type="matrix" values="0 0 0 0 0 0 0 0 0 0 0 0 0 0 0 0 0 0 0.25 0"/>
<feBlend mode="normal" in2="BackgroundImageFix" result="effect1_dropShadow"/>
<feBlend mode="normal" in="SourceGraphic" in2="effect1_dropShadow" result="shape"/>
</filter>
<clipPath id="clip0">
<rect width="189.26" height="154" fill="white" transform="translate(4)"/>
</clipPath>
</defs>
</svg>
