<svg width="15" height="15" viewBox="0 0 15 15" fill="none" xmlns="http://www.w3.org/2000/svg">
<g clip-path="url(#clip0)">
<path d="M7.4751 13.7292H1.86876C1.5249 13.7292 1.24585 13.4502 1.24585 13.1063V1.89369C1.24585 1.54983 1.52493 1.27078 1.86876 1.27078H7.4751C7.81957 1.27078 8.09801 0.992344 8.09801 0.647871C8.09801 0.303398 7.81957 0.0249023 7.4751 0.0249023H1.86876C0.838447 0.0249023 0 0.863379 0 1.89369V13.1063C0 14.1366 0.838447 14.9751 1.86876 14.9751H7.4751C7.81957 14.9751 8.09801 14.6966 8.09801 14.3522C8.09801 14.0077 7.81957 13.7292 7.4751 13.7292Z" fill="#1B2031"/>
<path d="M14.8144 7.05641L11.027 3.31886C10.7828 3.07716 10.3879 3.0803 10.1462 3.3251C9.90448 3.56991 9.90697 3.96421 10.1524 4.20591L12.859 6.877H5.60631C5.26184 6.877 4.9834 7.15544 4.9834 7.49991C4.9834 7.84438 5.26184 8.12285 5.60631 8.12285H12.859L10.1524 10.7939C9.907 11.0356 9.90513 11.4299 10.1462 11.6747C10.2683 11.7981 10.429 11.8604 10.5897 11.8604C10.7479 11.8604 10.9061 11.8006 11.027 11.681L14.8144 7.9434C14.9327 7.8263 15 7.66681 15 7.49988C15 7.333 14.9334 7.17416 14.8144 7.05641Z" fill="#1B2031"/>
</g>
<defs>
<clipPath id="clip0">
<rect width="15" height="15" fill="white"/>
</clipPath>
</defs>
</svg>
