<svg width="17" height="17" viewBox="0 0 17 17" fill="none" xmlns="http://www.w3.org/2000/svg">
<path fill-rule="evenodd" clip-rule="evenodd" d="M7.10348 9.17246H2.2759C1.89501 9.17246 1.58624 9.48123 1.58624 9.86211V14.6897C1.58624 15.0706 1.89501 15.3794 2.2759 15.3794H7.10348C7.48437 15.3794 7.79314 15.0706 7.79314 14.6897V9.86211C7.79314 9.48123 7.48437 9.17246 7.10348 9.17246ZM6.41383 14H2.96555V10.5518H6.41383V14ZM14.6897 1.58624H9.86211C9.48123 1.58624 9.17246 1.89501 9.17246 2.2759V7.10348C9.17246 7.48437 9.48123 7.79314 9.86211 7.79314H14.6897C15.0706 7.79314 15.3794 7.48437 15.3794 7.10348V2.2759C15.3794 1.89501 15.0706 1.58624 14.6897 1.58624ZM14 6.41383H10.5518V2.96555H14V6.41383ZM14.6897 9.17246H9.86211C9.48123 9.17246 9.17246 9.48123 9.17246 9.86211V14.6897C9.17246 15.0706 9.48123 15.3794 9.86211 15.3794H14.6897C15.0706 15.3794 15.3794 15.0706 15.3794 14.6897V9.86211C15.3794 9.48123 15.0706 9.17246 14.6897 9.17246ZM14 14H10.5518V10.5518H14V14ZM7.10348 1.58624H2.2759C1.89501 1.58624 1.58624 1.89501 1.58624 2.2759V7.10348C1.58624 7.48437 1.89501 7.79314 2.2759 7.79314H7.10348C7.48437 7.79314 7.79314 7.48437 7.79314 7.10348V2.2759C7.79314 1.89501 7.48437 1.58624 7.10348 1.58624ZM6.41383 6.41383H2.96555V2.96555H6.41383V6.41383Z" fill="white"/>
</svg>
