<svg width="363" height="181" viewBox="0 0 363 181" fill="none" xmlns="http://www.w3.org/2000/svg">
<rect x="0.432129" width="362.568" height="180.925" rx="10" fill="url(#paint0_linear)"/>
<mask id="mask0" mask-type="alpha" maskUnits="userSpaceOnUse" x="0" y="0" width="363" height="181">
<rect y="0.074707" width="362.568" height="180.925" rx="10" fill="url(#paint1_linear)"/>
</mask>
<g mask="url(#mask0)">
<g opacity="0.2">
<path d="M111.971 185.71C108.852 167.303 107.303 128.124 126.059 118.663C149.505 106.838 185.146 157.492 220.258 150.961C248.348 145.736 243.414 96.2634 237.436 72.1803C254.724 82.2398 294.731 99.4344 316.451 87.7365C343.601 73.1141 325.077 17.763 345.358 9.50193C365.639 1.24088 385.067 15.9531 410.359 30.9383" stroke="#F2F2F2"/>
<ellipse rx="5.53681" ry="5.66347" transform="matrix(0.802894 -0.606187 0.572104 0.813099 111.431 184.943)" fill="#F2F2F2"/>
<ellipse rx="5.53681" ry="5.66347" transform="matrix(0.802894 -0.606187 0.572104 0.813099 125.519 117.895)" fill="#F2F2F2"/>
<ellipse rx="5.53681" ry="5.66347" transform="matrix(0.802894 -0.606187 0.572104 0.813099 220.459 149.634)" fill="#F2F2F2"/>
<ellipse rx="5.53681" ry="5.66347" transform="matrix(0.802894 -0.606187 0.572104 0.813099 238.315 75.042)" fill="#F2F2F2"/>
<ellipse rx="5.53681" ry="5.66347" transform="matrix(0.802894 -0.606187 0.572104 0.813099 318.813 89.4792)" fill="#F2F2F2"/>
<ellipse rx="5.53681" ry="5.66347" transform="matrix(0.802894 -0.606187 0.572104 0.813099 344.077 9.29391)" fill="#F2F2F2"/>
</g>
</g>
<defs>
<linearGradient id="paint0_linear" x1="0.432129" y1="6.37061" x2="357.72" y2="156.507" gradientUnits="userSpaceOnUse">
<stop offset="0.401042" stop-color="#A14DA7"/>
<stop offset="0.942708" stop-color="#B97DBD"/>
</linearGradient>
<linearGradient id="paint1_linear" x1="-7.59014e-08" y1="6.44532" x2="357.288" y2="156.581" gradientUnits="userSpaceOnUse">
<stop stop-color="#1163E7"/>
<stop offset="1" stop-color="#4BBDEF"/>
</linearGradient>
</defs>
</svg>
