<svg width="363" height="181" viewBox="0 0 363 181" fill="none" xmlns="http://www.w3.org/2000/svg">
<rect width="363" height="181" rx="10" fill="url(#paint0_linear)"/>
<g opacity="0.2" clip-path="url(#clip0)">
<path d="M317.512 128.104C315.216 127.464 312.872 126.799 310.53 126.108V93.4373C316.734 94.8754 320.878 97.2073 321.054 97.3083C325.079 99.6835 330.791 99.0535 333.832 95.8911C336.884 92.7179 336.093 88.1967 332.064 85.7919C331.527 85.4711 323.018 80.4958 310.53 78.6122V71.4383C310.53 67.457 306.433 64.2297 301.378 64.2297C296.324 64.2297 292.227 67.457 292.227 71.4383V78.5603C290.677 78.7946 289.105 79.0909 287.513 79.4679C274.633 82.5164 265.006 91.1925 262.388 102.111C259.999 112.08 264.054 121.695 272.971 127.204C277.81 130.194 283.856 132.923 292.227 135.823V177.629C285.02 177.27 280.199 175.979 272.163 171.837C267.934 169.657 262.261 170.592 259.494 173.923C256.727 177.255 257.913 181.722 262.143 183.902C273.862 189.941 281.797 191.651 292.227 192.056V199.51C292.227 203.491 296.324 206.719 301.378 206.719C306.433 206.719 310.53 203.491 310.53 199.51V191.307C330.126 187.926 341.587 175.045 344.159 162.995C347.52 147.242 337.061 133.546 317.512 128.104ZM284.266 115.859C280.748 113.686 279.257 109.442 280.373 104.785C281.4 100.502 285.059 95.3367 292.227 93.4257V119.826C289.218 118.562 286.503 117.241 284.266 115.859ZM326.109 160.604C324.791 166.778 319.501 173.327 310.529 176.22V141.447C310.827 141.53 311.11 141.612 311.412 141.696C327.819 146.264 326.81 157.324 326.109 160.604Z" fill="#F9FAFC"/>
<path d="M301.543 53.0379C303.047 53.0379 304.522 52.5543 305.585 51.7138C306.648 50.8733 307.26 49.7074 307.26 48.5189C307.26 47.3304 306.648 46.1646 305.585 45.324C304.522 44.4835 303.047 44 301.543 44C300.04 44 298.565 44.4835 297.502 45.324C296.439 46.1646 295.827 47.3304 295.827 48.5189C295.827 49.7074 296.439 50.8733 297.502 51.7138C298.565 52.5543 300.04 53.0379 301.543 53.0379Z" fill="#F9FAFC"/>
</g>
<defs>
<linearGradient id="paint0_linear" x1="26.3337" y1="45.0376" x2="407.14" y2="219.124" gradientUnits="userSpaceOnUse">
<stop stop-color="#FFB82C"/>
<stop offset="1" stop-color="#F78850"/>
</linearGradient>
<clipPath id="clip0">
<rect width="189" height="181" fill="white" transform="translate(174)"/>
</clipPath>
</defs>
</svg>
