<svg width="11" height="11" viewBox="0 0 11 11" fill="none" xmlns="http://www.w3.org/2000/svg">
    <path fill-rule="evenodd" clip-rule="evenodd" d="M0.761665 5.85988L0.784436 5.89071L0.814249 5.92568L0.831775 5.94395L5.05591 10.1681C5.29157 10.4038 5.67366 10.4038 5.90932 10.1681C6.13258 9.94483 6.14433 9.59016 5.94457 9.35307L5.90932 9.31469L2.7158 6.121L9.70675 6.1207C10.04 6.1207 10.3102 5.85053 10.3102 5.51725C10.3102 5.19913 10.064 4.9385 9.75179 4.91546L9.70675 4.9138L2.7152 4.91411L5.90932 1.71982C6.13258 1.49656 6.14433 1.14189 5.94457 0.904796L5.90932 0.866413C5.68606 0.643155 5.33139 0.631404 5.0943 0.831161L5.05591 0.866413L0.831775 5.09055C0.816965 5.10536 0.803086 5.12075 0.790138 5.13664L0.760858 5.17571L0.738545 5.21068L0.735349 5.21614C0.704488 5.26973 0.681561 5.32854 0.668273 5.39092L0.660151 5.43827L0.656039 5.48205L0.655029 5.51725L0.655735 5.54671L0.659078 5.58728L0.667279 5.63859L0.677837 5.68201L0.696219 5.73679L0.716632 5.78318C0.729782 5.80992 0.744853 5.83555 0.761665 5.85988Z" fill="#6B7B94" />
    <path fill-rule="evenodd" clip-rule="evenodd" d="M0.761665 5.85988L0.784436 5.89071L0.814249 5.92568L0.831775 5.94395L5.05591 10.1681C5.29157 10.4038 5.67366 10.4038 5.90932 10.1681C6.13258 9.94483 6.14433 9.59016 5.94457 9.35307L5.90932 9.31469L2.7158 6.121L9.70675 6.1207C10.04 6.1207 10.3102 5.85053 10.3102 5.51725C10.3102 5.19913 10.064 4.9385 9.75179 4.91546L9.70675 4.9138L2.7152 4.91411L5.90932 1.71982C6.13258 1.49656 6.14433 1.14189 5.94457 0.904796L5.90932 0.866413C5.68606 0.643155 5.33139 0.631404 5.0943 0.831161L5.05591 0.866413L0.831775 5.09055C0.816965 5.10536 0.803086 5.12075 0.790138 5.13664L0.760858 5.17571L0.738545 5.21068L0.735349 5.21614C0.704488 5.26973 0.681561 5.32854 0.668273 5.39092L0.660151 5.43827L0.656039 5.48205L0.655029 5.51725L0.655735 5.54671L0.659078 5.58728L0.667279 5.63859L0.677837 5.68201L0.696219 5.73679L0.716632 5.78318C0.729782 5.80992 0.744853 5.83555 0.761665 5.85988Z" fill="#6B7B94" />
</svg>