<svg width="17" height="17" viewBox="0 0 17 17" fill="none" xmlns="http://www.w3.org/2000/svg">
<path fill-rule="evenodd" clip-rule="evenodd" d="M7.10348 9.17243H2.2759C1.89501 9.17243 1.58624 9.48119 1.58624 9.86208V14.6897C1.58624 15.0706 1.89501 15.3793 2.2759 15.3793H7.10348C7.48437 15.3793 7.79314 15.0706 7.79314 14.6897V9.86208C7.79314 9.48119 7.48437 9.17243 7.10348 9.17243ZM6.41383 14H2.96555V10.5517H6.41383V14ZM14.6897 1.58621H9.86211C9.48123 1.58621 9.17246 1.89498 9.17246 2.27587V7.10345C9.17246 7.48434 9.48123 7.79311 9.86211 7.79311H14.6897C15.0706 7.79311 15.3794 7.48434 15.3794 7.10345V2.27587C15.3794 1.89498 15.0706 1.58621 14.6897 1.58621ZM14 6.4138H10.5518V2.96552H14V6.4138ZM14.6897 9.17243H9.86211C9.48123 9.17243 9.17246 9.48119 9.17246 9.86208V14.6897C9.17246 15.0706 9.48123 15.3793 9.86211 15.3793H14.6897C15.0706 15.3793 15.3794 15.0706 15.3794 14.6897V9.86208C15.3794 9.48119 15.0706 9.17243 14.6897 9.17243ZM14 14H10.5518V10.5517H14V14ZM7.10348 1.58621H2.2759C1.89501 1.58621 1.58624 1.89498 1.58624 2.27587V7.10345C1.58624 7.48434 1.89501 7.79311 2.2759 7.79311H7.10348C7.48437 7.79311 7.79314 7.48434 7.79314 7.10345V2.27587C7.79314 1.89498 7.48437 1.58621 7.10348 1.58621ZM6.41383 6.4138H2.96555V2.96552H6.41383V6.4138Z" fill="#6B7B94"/>
</svg>
