<svg width="17" height="17" viewBox="0 0 17 17" fill="none" xmlns="http://www.w3.org/2000/svg">
<path fill-rule="evenodd" clip-rule="evenodd" d="M14.0345 11.9311C14.4154 11.9311 14.7242 12.2399 14.7242 12.6207C14.7242 12.9843 14.4428 13.2822 14.086 13.3085L14.0345 13.3104H3.00002C2.61913 13.3104 2.31036 13.0016 2.31036 12.6207C2.31036 12.2572 2.5917 11.9593 2.94855 11.933L3.00002 11.9311H14.0345ZM14.0345 7.79315C14.4154 7.79315 14.7242 8.10192 14.7242 8.4828C14.7242 8.84638 14.4428 9.14424 14.086 9.17057L14.0345 9.17246H3.00002C2.61913 9.17246 2.31036 8.86369 2.31036 8.4828C2.31036 8.11923 2.5917 7.82137 2.94855 7.79504L3.00002 7.79315H14.0345ZM14.0345 3.65521C14.4154 3.65521 14.7242 3.96398 14.7242 4.34487C14.7242 4.70844 14.4428 5.0063 14.086 5.03263L14.0345 5.03452H3.00002C2.61913 5.03452 2.31036 4.72575 2.31036 4.34487C2.31036 3.98129 2.5917 3.68343 2.94855 3.6571L3.00002 3.65521H14.0345Z" fill="#6B7B94"/>
</svg>
