<svg width="15" height="15" viewBox="0 0 15 15" fill="none" xmlns="http://www.w3.org/2000/svg">
<path fill-rule="evenodd" clip-rule="evenodd" d="M7.5 8.125C7.15482 8.125 6.875 8.40482 6.875 8.75V10.625C6.875 10.9702 7.15482 11.25 7.5 11.25C7.84518 11.25 8.125 10.9702 8.125 10.625V8.75C8.125 8.40482 7.84518 8.125 7.5 8.125ZM10.625 5.625V4.375C10.625 2.64911 9.22589 1.25 7.5 1.25C5.77411 1.25 4.375 2.64911 4.375 4.375V5.625C3.33947 5.625 2.5 6.46447 2.5 7.5V11.875C2.5 12.9105 3.33947 13.75 4.375 13.75H10.625C11.6605 13.75 12.5 12.9105 12.5 11.875V7.5C12.5 6.46447 11.6605 5.625 10.625 5.625ZM5.625 4.375C5.625 3.33947 6.46447 2.5 7.5 2.5C8.53553 2.5 9.375 3.33947 9.375 4.375V5.625H5.625V4.375ZM11.25 11.875C11.25 12.2202 10.9702 12.5 10.625 12.5H4.375C4.02982 12.5 3.75 12.2202 3.75 11.875V7.5C3.75 7.15482 4.02982 6.875 4.375 6.875H10.625C10.9702 6.875 11.25 7.15482 11.25 7.5V11.875Z" fill="#6B7B94"/>
</svg>
