<svg width="21" height="17" viewBox="0 0 21 17" fill="none" xmlns="http://www.w3.org/2000/svg">
<path fill-rule="evenodd" clip-rule="evenodd" d="M17.7916 0.166748H3.20831C1.48242 0.166748 0.083313 1.56586 0.083313 3.29175V13.7084C0.083313 15.4343 1.48242 16.8334 3.20831 16.8334H17.7916C19.5175 16.8334 20.9166 15.4343 20.9166 13.7084V3.29175C20.9166 1.56586 19.5175 0.166748 17.7916 0.166748ZM17.3646 2.25008L11.2396 8.37508C11.044 8.57228 10.7777 8.6832 10.5 8.6832C10.2222 8.6832 9.95599 8.57228 9.7604 8.37508L3.6354 2.25008H17.3646ZM18.8333 13.7084C18.8333 14.2837 18.3669 14.7501 17.7916 14.7501H3.20831C2.63302 14.7501 2.16665 14.2837 2.16665 13.7084V3.71883L8.29165 9.84383C9.51172 11.0624 11.4882 11.0624 12.7083 9.84383L18.8333 3.71883V13.7084Z" fill="#D2D2D6"/>
</svg>
