<svg width="11" height="11" viewBox="0 0 11 11" fill="none" xmlns="http://www.w3.org/2000/svg">
    <path fill-rule="evenodd" clip-rule="evenodd" d="M10.2382 5.85988L10.2155 5.89071L10.1856 5.92568L10.1681 5.94395L5.94398 10.1681C5.70832 10.4038 5.32624 10.4038 5.09058 10.1681C4.86732 9.94483 4.85557 9.59016 5.05533 9.35307L5.09058 9.31469L8.28409 6.121L1.29315 6.1207C0.95987 6.1207 0.689697 5.85053 0.689697 5.51725C0.689697 5.19913 0.935867 4.9385 1.24811 4.91546L1.29315 4.9138L8.2847 4.91411L5.09058 1.71982C4.86732 1.49656 4.85557 1.14189 5.05533 0.904796L5.09058 0.866413C5.31384 0.643155 5.66851 0.631404 5.9056 0.831161L5.94398 0.866413L10.1681 5.09055C10.1829 5.10536 10.1968 5.12075 10.2098 5.13664L10.239 5.17571L10.2614 5.21068L10.2645 5.21614C10.2954 5.26973 10.3183 5.32854 10.3316 5.39092L10.3397 5.43827L10.3439 5.48205L10.3449 5.51725L10.3442 5.54671L10.3408 5.58728L10.3326 5.63859L10.3221 5.68201L10.3037 5.73679L10.2833 5.78318C10.2701 5.80992 10.255 5.83555 10.2382 5.85988Z" fill="#6B7B94" />
</svg>