<svg width="68" height="86" viewBox="0 0 68 86" fill="none" xmlns="http://www.w3.org/2000/svg">
<path fill-rule="evenodd" clip-rule="evenodd" d="M34.0182 0.5C21.5486 0.5 11.44 10.6517 11.44 23.1745C11.44 35.6973 21.5486 45.849 34.0182 45.849C46.4879 45.849 56.5965 35.6973 56.5965 23.1745C56.5965 10.6517 46.4879 0.5 34.0182 0.5ZM34.0183 6.65259C43.1043 6.65259 50.47 14.0497 50.47 23.1745C50.47 32.2993 43.1043 39.6964 34.0183 39.6964C24.9322 39.6964 17.5665 32.2993 17.5665 23.1745C17.5665 14.0497 24.9322 6.65259 34.0183 6.65259ZM24.7777 54.9888C21.4724 55.2182 18.1314 55.69 14.8359 56.3963C8.47525 57.7065 3.38662 60.3243 1.22077 64.6745C0.403866 66.3758 -0.0068439 68.1974 8.62537e-05 70.0415C-0.00236445 71.8725 0.405021 73.6964 1.19263 75.3649C3.27226 79.6651 7.76816 82.0986 13.839 83.4475L14.9265 83.6745C18.1326 84.3978 21.4746 84.8848 24.839 85.1134C25.1255 85.1974 25.8084 85.2755 26.5538 85.3136L27.1669 85.3366C27.4822 85.3439 27.84 85.3457 28.373 85.3457C33.2088 85.6117 38.222 85.5343 43.2119 85.1095C45.8711 84.9275 48.5482 84.5798 51.2029 84.0703L53.189 83.6579C59.7446 82.3646 64.6534 79.9053 66.804 75.3698C68.3984 72.0025 68.3984 68.0949 66.8047 64.7292C64.6596 60.2051 59.8132 57.7662 53.1393 56.3913C50.5209 55.8323 47.8601 55.4187 45.1804 55.1545L43.2212 54.9888C37.0852 54.4475 30.9137 54.4475 24.7777 54.9888ZM42.6852 61.1178L42.7391 61.122C45.8146 61.3385 48.8713 61.7702 51.8869 62.4139C56.8442 63.4352 60.2084 65.1283 61.2727 67.3728C62.0741 69.0653 62.0741 71.0321 61.272 72.7261C60.2775 74.8234 57.2561 76.4438 52.8891 77.434L51.933 77.6365C48.858 78.3226 45.8114 78.7648 42.7447 78.975C37.9863 79.3797 33.2561 79.4528 28.5378 79.1976L26.865 79.1689C26.4006 79.1452 26.0093 79.1004 25.6466 79.0276C22.7746 78.8108 20.1904 78.4679 17.6812 77.9705L16.183 77.6533C11.2103 76.6786 7.81645 74.9783 6.71608 72.7031C6.33104 71.8871 6.12537 70.9663 6.1266 70.034C6.12315 69.107 6.32611 68.2068 6.72009 67.3859C7.79001 65.2377 11.3866 63.3875 16.0908 62.4184C19.1282 61.7676 22.1834 61.3361 25.2575 61.1222C31.0932 60.6079 36.9059 60.6079 42.6852 61.1178Z" fill="#6B7B94"/>
</svg>
