<svg width="12" height="13" viewBox="0 0 12 13" fill="none" xmlns="http://www.w3.org/2000/svg">
<path fill-rule="evenodd" clip-rule="evenodd" d="M4.83335 0.25C7.41069 0.25 9.50002 2.48858 9.50002 5.25C9.50002 6.40531 9.13431 7.4691 8.52015 8.31573L11.6625 11.6831C11.8903 11.9271 11.8903 12.3229 11.6625 12.5669C11.4467 12.7982 11.1038 12.8103 10.8746 12.6035L10.8375 12.5669L7.69471 9.20014C6.90452 9.85817 5.91164 10.25 4.83335 10.25C2.25602 10.25 0.166687 8.01143 0.166687 5.25C0.166687 2.48858 2.25603 0.25 4.83335 0.25ZM4.83335 1.5C2.90036 1.5 1.33335 3.17893 1.33335 5.25C1.33335 7.32107 2.90036 9 4.83335 9C6.76635 9 8.33335 7.32107 8.33335 5.25C8.33335 3.17893 6.76635 1.5 4.83335 1.5Z" fill="#8A98AD"/>
</svg>
