<svg width="769" height="256" viewBox="0 0 769 256" fill="none" xmlns="http://www.w3.org/2000/svg">
<rect width="769" height="256" rx="8" fill="url(#paint0_linear)"/>
<mask id="mask0" mask-type="alpha" maskUnits="userSpaceOnUse" x="0" y="0" width="769" height="256">
<rect width="769" height="256" rx="8" fill="url(#paint1_linear)"/>
</mask>
<g mask="url(#mask0)">
<ellipse cx="597.5" cy="157" rx="262.5" ry="237" fill="#8B90FF" fill-opacity="0.1"/>
<ellipse cx="149" cy="263.5" rx="204" ry="183.5" fill="#1D0229" fill-opacity="0.05"/>
</g>
<g opacity="0.5">
<path d="M770.873 84.1H724.6V80.25C724.587 69.624 715.976 61.0125 705.35 61H697.65C687.024 61.0125 678.413 69.624 678.4 80.25V84.1H632.127C625.791 84.1063 620.656 89.2412 620.65 95.5768V280.523C620.656 286.859 625.791 291.994 632.127 292H770.873C777.209 291.994 782.344 286.859 782.35 280.523V95.5768C782.344 89.2412 777.209 84.1063 770.873 84.1ZM686.1 80.25C686.1 73.871 691.271 68.7 697.65 68.7H705.35C711.729 68.7 716.9 73.871 716.9 80.25V84.1H686.1V80.25ZM731.603 91.8C729.976 96.4022 725.631 99.4846 720.75 99.5H682.25C677.373 99.4798 673.034 96.3983 671.408 91.8H731.603ZM774.65 280.523C774.648 282.608 772.958 284.298 770.873 284.3H632.127C630.042 284.298 628.352 282.608 628.35 280.523V95.5768C628.352 93.4916 630.042 91.8019 632.127 91.8H663.385C665.227 100.757 673.106 107.188 682.25 107.2H720.75C729.894 107.188 737.773 100.757 739.615 91.8H770.877C772.962 91.8019 774.652 93.4921 774.654 95.5768L774.65 280.523Z" fill="white"/>
<path d="M716.515 128.579C715.566 126.676 713.255 125.902 711.352 126.851C710.435 127.308 709.739 128.111 709.416 129.083L701.804 151.925L697.519 136.941C696.933 134.897 694.801 133.716 692.757 134.302C691.821 134.57 691.022 135.183 690.52 136.017L684.837 145.488L682.246 122.176C682.014 120.063 680.112 118.537 677.999 118.77C676.503 118.934 675.24 119.955 674.766 121.383L662.569 157.958L655.007 140.317C654.393 138.902 652.993 137.99 651.45 138H636.05V145.7H648.913L659.462 170.317C660.069 171.732 661.46 172.65 663 172.65H663.162C664.758 172.583 666.148 171.537 666.654 170.021L676.51 140.453L678.435 157.677C678.669 159.791 680.572 161.314 682.686 161.08C683.879 160.948 684.943 160.266 685.561 159.237L692.549 147.594L697.812 166.013C698.276 167.636 699.743 168.768 701.431 168.804C703.113 168.823 704.618 167.761 705.165 166.171L713.774 140.337L717.316 147.425C717.967 148.725 719.296 149.547 720.75 149.55H766.95V141.85H723.129L716.515 128.579Z" fill="white"/>
<path d="M766.95 195.75H636.05V203.45H766.95V195.75Z" fill="white"/>
<path d="M766.95 211.15H636.05V218.85H766.95V211.15Z" fill="white"/>
<path d="M766.95 226.55H636.05V234.25H766.95V226.55Z" fill="white"/>
<path d="M766.95 241.95H636.05V249.65H766.95V241.95Z" fill="white"/>
</g>
<defs>
<linearGradient id="paint0_linear" x1="64" y1="47" x2="384.5" y2="256" gradientUnits="userSpaceOnUse">
<stop stop-color="#8E1BB7"/>
<stop offset="0.661458" stop-color="#A531AE"/>
</linearGradient>
<linearGradient id="paint1_linear" x1="64" y1="47" x2="384.5" y2="256" gradientUnits="userSpaceOnUse">
<stop stop-color="#FF8B64"/>
<stop offset="1" stop-color="#FF6587"/>
</linearGradient>
</defs>
</svg>
