<svg width="769" height="256" viewBox="0 0 769 256" fill="none" xmlns="http://www.w3.org/2000/svg">
<rect width="769" height="256" rx="8" fill="url(#paint0_linear)"/>
<mask id="mask0" mask-type="alpha" maskUnits="userSpaceOnUse" x="0" y="0" width="769" height="256">
<rect width="769" height="256" rx="8" fill="url(#paint1_linear)"/>
</mask>
<g mask="url(#mask0)">
<ellipse cx="597.5" cy="157" rx="262.5" ry="237" fill="#FF9A8B" fill-opacity="0.3"/>
<ellipse cx="159" cy="232" rx="181" ry="163" fill="#FF707E" fill-opacity="0.7"/>
</g>
<g opacity="0.5">
<path d="M759.105 217.313H744.518V202.842C744.53 202.296 744.434 201.754 744.234 201.246C744.035 200.739 743.736 200.276 743.356 199.885C742.976 199.494 742.521 199.182 742.019 198.969C741.518 198.755 740.978 198.644 740.433 198.641H727.362C726.236 198.638 725.154 199.076 724.347 199.861C723.54 200.646 723.073 201.716 723.045 202.842V217.313H708.224C707.098 217.309 706.015 217.748 705.208 218.533C704.401 219.318 703.934 220.388 703.906 221.514V234.584C703.934 235.71 704.401 236.78 705.208 237.565C706.015 238.35 707.098 238.788 708.224 238.785H723.045V253.723C723.073 254.848 723.54 255.918 724.347 256.704C725.154 257.489 726.236 257.927 727.362 257.924H740.433C740.978 257.921 741.518 257.809 742.019 257.596C742.521 257.382 742.976 257.071 743.356 256.68C743.736 256.289 744.035 255.826 744.234 255.318C744.434 254.81 744.53 254.268 744.518 253.723V238.785H759.105C759.65 238.782 760.189 238.671 760.691 238.457C761.193 238.244 761.648 237.932 762.028 237.541C762.408 237.15 762.707 236.687 762.906 236.179C763.106 235.672 763.202 235.129 763.189 234.584V221.514C763.202 220.968 763.106 220.426 762.906 219.918C762.707 219.411 762.408 218.948 762.028 218.557C761.648 218.166 761.193 217.854 760.691 217.641C760.189 217.427 759.65 217.315 759.105 217.313ZM756.654 232.25H742.3C741.174 232.247 740.091 232.685 739.285 233.47C738.478 234.256 738.01 235.326 737.982 236.451V251.389H729.58V236.451C729.592 235.906 729.496 235.364 729.297 234.856C729.097 234.348 728.799 233.885 728.418 233.494C728.038 233.103 727.584 232.792 727.082 232.578C726.58 232.364 726.041 232.253 725.495 232.25H710.441V223.848H725.495C726.041 223.845 726.58 223.733 727.082 223.52C727.584 223.306 728.038 222.995 728.418 222.604C728.799 222.212 729.097 221.75 729.297 221.242C729.496 220.734 729.592 220.192 729.58 219.646V205.176H737.982V219.646C738.01 220.772 738.478 221.842 739.285 222.627C740.091 223.413 741.174 223.851 742.3 223.848H756.654V232.25Z" fill="#FFFDFD"/>
<path d="M734.635 171.173C725.609 171.176 716.718 173.362 708.719 177.546C700.721 181.729 693.853 187.785 688.703 195.198C687.823 194.927 686.99 194.664 686.205 194.408L683.033 185.413C692.836 178.069 695.521 166.601 696.254 161.046C702.846 159.258 708.9 151.512 711.326 141.248C712.633 135.696 710.719 130.527 706.561 128.385C705.409 127.792 704.132 127.482 702.836 127.481C703.051 125.87 703.275 123.9 703.507 121.481C704.05 115.82 704.394 110.102 704.394 108.653C704.394 107.626 704.415 106.567 704.436 105.447C704.609 96.5079 704.824 85.3841 694.965 75.4115C686.116 66.4621 673.589 61.5285 660.601 61.8875C647.661 62.2413 635.528 67.7626 627.31 77.0355C627.058 77.3208 626.802 77.6081 626.542 77.8972C621.586 83.4353 614.797 91.0202 615.284 110.444C615.331 112.345 617.152 121.059 619.037 127.699C617.938 127.808 616.872 128.138 615.903 128.667C611.912 130.824 610.082 135.879 611.349 141.248C613.777 151.53 619.85 159.285 626.457 161.054C627.247 166.501 630.012 177.856 639.564 185.206L635.38 193.81C632.393 194.746 629.026 195.674 625.551 196.648C603.089 202.943 572.27 211.564 572.27 239.574V268.86C572.27 275.778 575.97 283.131 582.612 283.131H734.831C734.861 283.131 734.891 283.127 734.921 283.126C749.736 283.041 763.912 277.087 774.345 266.568C784.777 256.049 790.614 241.823 790.576 227.008C790.538 212.193 784.629 197.997 774.143 187.531C763.658 177.065 749.451 171.183 734.635 171.173ZM631.413 82.2538C631.68 81.9557 631.943 81.66 632.203 81.3669C639.225 73.4416 649.641 68.7218 660.78 68.4175C671.972 68.1066 682.737 72.3348 690.318 80.0038C698.238 88.0136 698.06 97.2062 697.903 105.317C697.881 106.471 697.86 107.561 697.86 108.65C697.86 109.343 697.79 110.78 697.67 112.609C696.09 106.735 693.881 101.062 690.839 97.7449L690.597 97.2613C690.321 96.7093 689.894 96.2467 689.366 95.927C688.839 95.6074 688.231 95.4438 687.614 95.4552C686.997 95.4666 686.396 95.6525 685.88 95.9913C685.364 96.3302 684.955 96.8083 684.699 97.3701C679.434 108.951 674.219 108.485 665.578 107.714C664.575 107.624 663.555 107.533 662.518 107.461C659.23 107.228 658.041 109.149 657.682 109.982C656.616 112.456 658.097 115.128 660.806 118.295C652.18 117.265 649.994 110.956 648.024 105.265C646.657 101.315 645.108 96.8375 640.602 96.8375C638.431 96.795 636.276 97.2174 634.282 98.0766C632.288 98.9358 630.5 100.212 629.04 101.819C625.692 105.413 623.805 110.537 622.755 115.559C622.329 113.821 622.018 112.057 621.821 110.278C621.395 93.4471 626.717 87.5001 631.413 82.2538ZM632.695 158.035C632.656 157.194 632.295 156.399 631.687 155.816C631.079 155.232 630.27 154.904 629.427 154.9C629.381 154.9 629.334 154.9 629.285 154.9C624.499 154.9 619.446 147.093 617.708 139.745C617.043 136.926 617.917 135.006 619.009 134.415C620.245 133.748 621.563 134.922 622.072 135.458C622.499 135.908 623.045 136.227 623.647 136.378C624.248 136.529 624.881 136.505 625.469 136.31C626.058 136.115 626.579 135.756 626.971 135.276C627.364 134.795 627.611 134.213 627.685 133.597C628.007 133.037 628.155 132.393 628.11 131.748C627.762 126.736 628.113 112.389 633.823 106.27C634.631 105.374 635.615 104.654 636.714 104.157C637.813 103.66 639.003 103.395 640.209 103.38C640.7 104.089 641.355 105.982 641.847 107.403C644.269 114.4 648.776 127.42 668.751 124.57C669.364 124.483 669.939 124.223 670.41 123.822C670.88 123.421 671.228 122.894 671.411 122.303C671.594 121.712 671.606 121.081 671.445 120.484C671.284 119.887 670.956 119.348 670.501 118.929C668.917 117.473 667.413 115.931 665.997 114.312C673.679 114.979 681.515 115.23 687.991 105.039C692.084 112.715 694.215 127.979 694.737 134.04C694.807 134.855 695.18 135.613 695.782 136.167C696.384 136.72 697.172 137.027 697.989 137.028C698.082 137.028 698.176 137.024 698.272 137.015C698.864 136.964 699.431 136.753 699.912 136.404C700.393 136.055 700.769 135.581 701 135.034C701.646 134.396 702.63 133.708 703.568 134.191C704.767 134.808 705.631 136.915 704.965 139.745C703.228 147.095 698.175 154.901 693.388 154.901H693.307C692.672 154.891 692.049 155.064 691.51 155.399C691.054 155.684 690.675 156.078 690.408 156.544C690.14 157.011 689.993 157.537 689.978 158.075C689.838 160.747 688.572 174.409 677.439 181.329C677.421 181.339 677.404 181.352 677.387 181.363C673.052 184.037 667.652 185.394 661.337 185.394C655.039 185.394 649.651 184.006 645.321 181.269C634.346 174.339 632.878 160.699 632.695 158.035H632.695ZM640.645 197.927L645.173 188.617C649.862 190.814 655.28 191.928 661.337 191.928C667.307 191.928 672.653 190.87 677.292 188.785L680.572 198.088C680.736 198.554 681.004 198.977 681.355 199.325C681.706 199.672 682.132 199.936 682.599 200.095C683.413 200.373 684.275 200.656 685.185 200.945C683.584 203.952 682.262 207.1 681.237 210.348C678.213 213.93 671.867 219.408 661.337 219.408C657.784 219.446 654.263 218.735 651.003 217.321C647.743 215.907 644.818 213.821 642.418 211.2C638.971 207.503 637.02 203.382 636.363 200.347C637.164 200.101 637.95 199.854 638.717 199.605C639.135 199.469 639.521 199.251 639.852 198.962C640.183 198.674 640.453 198.322 640.645 197.927H640.645ZM578.805 268.86V239.574C578.805 216.52 605.727 208.991 627.313 202.94C628.227 202.684 629.156 202.432 630.045 202.181C632.409 212.113 643.06 225.941 661.32 225.941C667.578 226.02 673.722 224.269 678.999 220.904C677.751 232.066 679.888 243.346 685.134 253.278C690.38 263.21 698.491 271.334 708.414 276.596H582.612C580.532 276.596 578.805 272.437 578.805 268.86ZM734.635 276.596C724.857 276.596 715.297 273.696 707.167 268.263C699.036 262.83 692.699 255.108 688.956 246.074C685.214 237.039 684.235 227.098 686.143 217.507C688.051 207.916 692.76 199.106 699.674 192.191C706.589 185.276 715.399 180.567 724.99 178.66C734.581 176.752 744.522 177.731 753.557 181.473C762.591 185.215 770.313 191.552 775.746 199.683C781.179 207.814 784.079 217.373 784.079 227.152C784.064 240.261 778.851 252.829 769.581 262.098C760.312 271.367 747.744 276.581 734.635 276.596Z" fill="#FFFDFD"/>
</g>
<defs>
<linearGradient id="paint0_linear" x1="64" y1="47" x2="384.5" y2="256" gradientUnits="userSpaceOnUse">
<stop stop-color="#FF8B64"/>
<stop offset="1" stop-color="#FF6587"/>
</linearGradient>
<linearGradient id="paint1_linear" x1="64" y1="47" x2="384.5" y2="256" gradientUnits="userSpaceOnUse">
<stop stop-color="#FF8B64"/>
<stop offset="1" stop-color="#FF6587"/>
</linearGradient>
</defs>
</svg>
