<svg width="50" height="50" viewBox="0 0 50 50" fill="none" xmlns="http://www.w3.org/2000/svg">
<path d="M24.6437 24.0852C27.9526 24.0852 30.8174 22.8984 33.1589 20.557C35.4996 18.2159 36.6867 15.3515 36.6867 12.0422C36.6867 8.73411 35.5 5.86928 33.1585 3.52744C30.817 1.18675 27.9522 0 24.6437 0C21.3345 0 18.47 1.18675 16.1289 3.52783C13.7878 5.8689 12.6007 8.73373 12.6007 12.0422C12.6007 15.3515 13.7878 18.2163 16.1289 20.5574C18.4708 22.8981 21.3356 24.0852 24.6437 24.0852ZM18.2011 5.59958C19.9974 3.80325 22.1046 2.93006 24.6437 2.93006C27.1824 2.93006 29.29 3.80325 31.0867 5.59958C32.8831 7.3963 33.7566 9.50392 33.7566 12.0422C33.7566 14.5813 32.8831 16.6885 31.0867 18.4852C29.29 20.2819 27.1824 21.1551 24.6437 21.1551C22.1054 21.1551 19.9982 20.2816 18.2011 18.4852C16.4043 16.6889 15.5308 14.5813 15.5308 12.0422C15.5308 9.50392 16.4043 7.3963 18.2011 5.59958Z" fill="#F2F2F2"/>
<path d="M45.7157 38.4475C45.6482 37.4733 45.5116 36.4105 45.3106 35.2882C45.1077 34.1575 44.8463 33.0887 44.5335 32.1117C44.2101 31.102 43.771 30.1048 43.2274 29.1492C42.664 28.1574 42.0017 27.2938 41.2586 26.5831C40.4816 25.8396 39.5302 25.2418 38.43 24.8058C37.3337 24.3721 36.1187 24.1524 34.819 24.1524C34.3086 24.1524 33.815 24.3618 32.8617 24.9824C32.275 25.365 31.5887 25.8076 30.8228 26.297C30.1678 26.7143 29.2805 27.1053 28.1845 27.4593C27.1152 27.8053 26.0296 27.9808 24.9577 27.9808C23.8865 27.9808 22.8008 27.8053 21.7308 27.4593C20.636 27.1057 19.7483 26.7147 19.0945 26.2974C18.3357 25.8125 17.6491 25.37 17.0536 24.9821C16.1011 24.3614 15.6075 24.152 15.097 24.152C13.797 24.152 12.5824 24.3721 11.4864 24.8062C10.387 25.2415 9.43527 25.8392 8.65746 26.5835C7.91435 27.2945 7.25212 28.1578 6.68907 29.1492C6.14624 30.1048 5.70679 31.1016 5.3833 32.1121C5.07088 33.089 4.80957 34.1575 4.60663 35.2882C4.40521 36.409 4.26903 37.4721 4.20151 38.4487C4.13513 39.4035 4.10156 40.3972 4.10156 41.4012C4.10156 44.0113 4.93126 46.1242 6.56738 47.6825C8.18329 49.2202 10.321 49.9999 12.9215 49.9999H36.9968C39.5966 49.9999 41.7343 49.2202 43.3506 47.6825C44.9871 46.1254 45.8168 44.0116 45.8168 41.4009C45.8164 40.3934 45.7825 39.3997 45.7157 38.4475ZM41.3303 45.5596C40.2626 46.5759 38.8451 47.0699 36.9965 47.0699H12.9215C11.0725 47.0699 9.655 46.5759 8.58765 45.56C7.54051 44.5632 7.03163 43.2025 7.03163 41.4012C7.03163 40.4644 7.06253 39.5393 7.12433 38.6512C7.1846 37.78 7.30782 36.8229 7.49054 35.8059C7.67097 34.8014 7.90062 33.8588 8.17375 33.0055C8.43582 32.1872 8.79326 31.377 9.23653 30.5965C9.65958 29.8527 10.1463 29.2145 10.6834 28.7002C11.1858 28.2192 11.8191 27.8255 12.5652 27.5303C13.2553 27.2571 14.0308 27.1076 14.8727 27.0851C14.9754 27.1396 15.1581 27.2438 15.4541 27.4368C16.0564 27.8293 16.7507 28.2772 17.5182 28.7674C18.3834 29.319 19.4981 29.8172 20.8298 30.2471C22.1912 30.6873 23.5798 30.9108 24.958 30.9108C26.3363 30.9108 27.7252 30.6873 29.0859 30.2475C30.4188 29.8168 31.5331 29.319 32.3994 28.7666C33.1848 28.2646 33.8596 27.8297 34.462 27.4368C34.758 27.2442 34.9407 27.1396 35.0433 27.0851C35.8856 27.1076 36.6611 27.2571 37.3516 27.5303C38.0974 27.8255 38.7306 28.2196 39.233 28.7002C39.7701 29.2141 40.2569 29.8523 40.6799 30.5969C41.1236 31.377 41.4814 32.1876 41.7431 33.0051C42.0166 33.8596 42.2466 34.8018 42.4267 35.8055C42.609 36.8244 42.7326 37.7819 42.7929 38.6516V38.6524C42.8551 39.537 42.8864 40.4617 42.8867 41.4012C42.8864 43.2029 42.3775 44.5632 41.3303 45.5596Z" fill="#F2F2F2"/>
</svg>
