<svg width="29" height="50" viewBox="0 0 29 50" fill="none" xmlns="http://www.w3.org/2000/svg">
<path d="M28.0278 30.7428C27.6306 30.7428 27.3087 31.0714 27.3087 31.4766V35.4623C27.3087 42.6691 21.5627 48.5323 14.5 48.5323C7.43729 48.5323 1.69135 42.6691 1.69135 35.4623V20.9598C1.69135 20.5545 1.36944 20.226 0.972169 20.226C0.574991 20.226 0.252991 20.5545 0.252991 20.9598V35.4623C0.252991 43.4784 6.64418 50 14.5 50C22.3558 50 28.747 43.4784 28.747 35.4623V31.4766C28.747 31.0714 28.4251 30.7428 28.0278 30.7428Z" fill="#F2F2F2"/>
<path d="M14.5 0C6.64418 0 0.252991 6.52162 0.252991 14.5378V18.0244C0.252991 18.4296 0.574991 18.7582 0.972169 18.7582C1.36944 18.7582 1.69135 18.4296 1.69135 18.0244V14.5378C1.69135 7.5774 7.05124 1.87094 13.7804 1.48875V6.74384C12.5536 7.06996 11.6453 8.20998 11.6453 9.56252V13.7965C11.6453 15.149 12.5536 16.289 13.7804 16.6152V21.8099C13.7804 22.2152 14.1023 22.5437 14.4996 22.5437C14.8969 22.5437 15.2188 22.2152 15.2188 21.8099V16.6152C16.4456 16.289 17.3539 15.149 17.3539 13.7965V9.56252C17.3539 8.20998 16.4456 7.06996 15.2188 6.74384V1.48865C21.9484 1.87045 27.3087 7.57701 27.3087 14.5377V28.5411C27.3087 28.9464 27.6306 29.275 28.0278 29.275C28.4251 29.275 28.747 28.9464 28.747 28.5411V14.5378C28.747 6.52162 22.3558 0 14.5 0ZM15.9155 9.56252V13.7965C15.9155 14.5932 15.2804 15.2413 14.4996 15.2413C13.7189 15.2413 13.0837 14.5932 13.0837 13.7965V9.56252C13.0837 8.76585 13.7189 8.11771 14.4996 8.11771C15.2804 8.11771 15.9155 8.76585 15.9155 9.56252Z" fill="#F2F2F2"/>
</svg>
