<svg width="48" height="50" viewBox="0 0 48 50" fill="none" xmlns="http://www.w3.org/2000/svg">
<path d="M43.6362 35.6552L21.6364 16.9053C21.2092 16.5406 20.5791 16.6055 20.229 17.0505C20.0827 17.2363 20.0027 17.4691 20.0023 17.7094V48.9592C20.0028 49.5345 20.4508 50.0005 21.0031 50C21.3371 49.9997 21.649 49.8258 21.8343 49.5362L29.5402 37.5009H43.0021C43.5543 37.5002 44.0015 37.0333 44.0009 36.458C44.0005 36.146 43.8659 35.8506 43.634 35.653L43.6362 35.6552Z" fill="#F2F2F2"/>
<path d="M15.2604 34.3094C15.1374 34.3095 15.0154 34.2862 14.9004 34.2407C6.13758 30.7296 1.76634 20.4836 5.137 11.3556C8.50765 2.2277 18.3437 -2.32567 27.1066 1.18543C35.8693 4.69643 40.2406 14.9421 36.8702 24.07C36.6719 24.6073 36.093 24.8754 35.5772 24.6689C35.0614 24.4624 34.804 23.8593 35.0023 23.322C37.9783 15.2687 34.1236 6.22718 26.3924 3.12711C18.6613 0.0270428 9.98129 4.04243 7.00523 12.0957C4.02916 20.1489 7.88394 29.1905 15.615 32.2906C15.6168 32.2913 15.6186 32.2921 15.6204 32.2927C16.1362 32.4983 16.3945 33.1005 16.1971 33.6378C16.0487 34.042 15.6759 34.3085 15.2604 34.3074V34.3094Z" fill="#F2F2F2"/>
</svg>
