<svg width="15" height="15" viewBox="0 0 15 15" fill="none" xmlns="http://www.w3.org/2000/svg">
<path fill-rule="evenodd" clip-rule="evenodd" d="M4.375 4.375C4.375 2.64911 5.77411 1.25 7.5 1.25C9.22589 1.25 10.625 2.64911 10.625 4.375C10.625 6.10089 9.22589 7.5 7.5 7.5C5.77411 7.5 4.375 6.10089 4.375 4.375ZM9.375 4.375C9.375 3.33947 8.53553 2.5 7.5 2.5C6.46447 2.5 5.625 3.33947 5.625 4.375C5.625 5.41053 6.46447 6.25 7.5 6.25C8.53553 6.25 9.375 5.41053 9.375 4.375ZM13.1238 11.7875C13.0775 10.1021 11.6966 8.75 10 8.75H5L4.91253 8.7512C3.22708 8.79752 1.875 10.1784 1.875 11.875V13.125L1.87671 13.1716C1.90057 13.495 2.17051 13.75 2.5 13.75C2.84518 13.75 3.125 13.4702 3.125 13.125V11.875L3.12629 11.8047C3.16326 10.8017 3.988 10 5 10H10L10.0703 10.0013C11.0733 10.0383 11.875 10.863 11.875 11.875V13.125L11.8767 13.1716C11.9006 13.495 12.1705 13.75 12.5 13.75C12.8452 13.75 13.125 13.4702 13.125 13.125V11.875L13.1238 11.7875Z" fill="#6B7B94"/>
<mask id="mask0" mask-type="alpha" maskUnits="userSpaceOnUse" x="1" y="1" width="13" height="13">
<path fill-rule="evenodd" clip-rule="evenodd" d="M4.375 4.375C4.375 2.64911 5.77411 1.25 7.5 1.25C9.22589 1.25 10.625 2.64911 10.625 4.375C10.625 6.10089 9.22589 7.5 7.5 7.5C5.77411 7.5 4.375 6.10089 4.375 4.375ZM9.375 4.375C9.375 3.33947 8.53553 2.5 7.5 2.5C6.46447 2.5 5.625 3.33947 5.625 4.375C5.625 5.41053 6.46447 6.25 7.5 6.25C8.53553 6.25 9.375 5.41053 9.375 4.375ZM13.1238 11.7875C13.0775 10.1021 11.6966 8.75 10 8.75H5L4.91253 8.7512C3.22708 8.79752 1.875 10.1784 1.875 11.875V13.125L1.87671 13.1716C1.90057 13.495 2.17051 13.75 2.5 13.75C2.84518 13.75 3.125 13.4702 3.125 13.125V11.875L3.12629 11.8047C3.16326 10.8017 3.988 10 5 10H10L10.0703 10.0013C11.0733 10.0383 11.875 10.863 11.875 11.875V13.125L11.8767 13.1716C11.9006 13.495 12.1705 13.75 12.5 13.75C12.8452 13.75 13.125 13.4702 13.125 13.125V11.875L13.1238 11.7875Z" fill="white"/>
</mask>
<g mask="url(#mask0)">
</g>
</svg>
